300.ufo
<glyph name="numbersign" format="2">
  <advance width="591"/>
  <unicode hex="0023"/>
  <outline>
    <contour>
      <point x="75" y="446" type="line"/>
      <point x="75" y="489" type="line"/>
      <point x="556" y="489" type="line"/>
      <point x="556" y="446" type="line"/>
      <point x="426" y="446" type="line" smooth="yes"/>
      <point x="416" y="446" type="line" smooth="yes"/>
      <point x="218" y="446" type="line" smooth="yes"/>
      <point x="208" y="446" type="line" smooth="yes"/>
    </contour>
    <contour>
      <point x="35" y="216" type="line"/>
      <point x="35" y="259" type="line"/>
      <point x="162" y="259" type="line" smooth="yes"/>
      <point x="173" y="259" type="line" smooth="yes"/>
      <point x="374" y="259" type="line" smooth="yes"/>
      <point x="389" y="259" type="line" smooth="yes"/>
      <point x="516" y="259" type="line"/>
      <point x="516" y="216" type="line"/>
    </contour>
    <contour>
      <point x="461" y="700" type="line"/>
      <point x="510" y="700" type="line"/>
      <point x="340" y="0" type="line"/>
      <point x="291" y="0" type="line"/>
      <point x="348" y="234" type="line" smooth="yes"/>
      <point x="351" y="246" type="line" smooth="yes"/>
      <point x="403" y="460" type="line" smooth="yes"/>
      <point x="405" y="472" type="line" smooth="yes"/>
    </contour>
    <contour>
      <point x="251" y="700" type="line"/>
      <point x="300" y="700" type="line"/>
      <point x="245" y="474" type="line" smooth="yes"/>
      <point x="243" y="463" type="line" smooth="yes"/>
      <point x="189" y="244" type="line" smooth="yes"/>
      <point x="187" y="233" type="line" smooth="yes"/>
      <point x="130" y="0" type="line"/>
      <point x="81" y="0" type="line"/>
    </contour>
  </outline>
</glyph>
<glyph name="dollar" format="2">
  <advance width="580"/>
  <unicode hex="0024"/>
  <outline>
    <contour>
      <point x="255" y="818" type="line"/>
      <point x="303" y="818" type="line"/>
      <point x="303" y="681" type="line"/>
      <point x="255" y="681" type="line"/>
    </contour>
    <contour>
      <point x="255" y="28" type="line"/>
      <point x="304" y="28" type="line"/>
      <point x="304" y="-112" type="line"/>
      <point x="255" y="-112" type="line"/>
    </contour>
    <contour>
      <point x="436" y="528" type="line"/>
      <point x="410" y="590"/>
      <point x="367" y="656"/>
      <point x="278" y="656" type="curve" smooth="yes"/>
      <point x="194" y="656"/>
      <point x="144" y="611"/>
      <point x="144" y="540" type="curve" smooth="yes"/>
      <point x="144" y="454"/>
      <point x="229" y="417"/>
      <point x="314" y="385" type="curve" smooth="yes"/>
      <point x="391" y="357"/>
      <point x="488" y="303"/>
      <point x="488" y="184" type="curve" smooth="yes"/>
      <point x="488" y="73"/>
      <point x="424" y="-9"/>
      <point x="285" y="-9" type="curve" smooth="yes"/>
      <point x="166" y="-9"/>
      <point x="87" y="79"/>
      <point x="49" y="187" type="curve"/>
      <point x="96" y="214" type="line"/>
      <point x="132" y="119"/>
      <point x="187" y="43"/>
      <point x="288" y="43" type="curve" smooth="yes"/>
      <point x="388" y="43"/>
      <point x="431" y="99"/>
      <point x="431" y="180" type="curve" smooth="yes"/>
      <point x="431" y="275"/>
      <point x="344" y="317"/>
      <point x="266" y="346" type="curve" smooth="yes"/>
      <point x="192" y="373"/>
      <point x="86" y="425"/>
      <point x="86" y="544" type="curve" smooth="yes"/>
      <point x="86" y="640"/>
      <point x="171" y="709"/>
      <point x="277" y="709" type="curve" smooth="yes"/>
      <point x="390" y="709"/>
      <point x="457" y="627"/>
      <point x="481" y="556" type="curve"/>
    </contour>
  </outline>
</glyph>
<glyph name="ampersand" format="2">
  <advance width="675"/>
  <unicode hex="0026"/>
  <outline>
    <contour>
      <point x="207" y="401" type="line" smooth="yes"/>
      <point x="174" y="439"/>
      <point x="117" y="489"/>
      <point x="117" y="564" type="curve" smooth="yes"/>
      <point x="117" y="650"/>
      <point x="180" y="711"/>
      <point x="280" y="711" type="curve" smooth="yes"/>
      <point x="381" y="711"/>
      <point x="436" y="638"/>
      <point x="436" y="562" type="curve" smooth="yes"/>
      <point x="436" y="495"/>
      <point x="383" y="438"/>
      <point x="290" y="382" type="curve" smooth="yes"/>
      <point x="217" y="339"/>
      <point x="95" y="298"/>
      <point x="95" y="182" type="curve" smooth="yes"/>
      <point x="95" y="91"/>
      <point x="168" y="38"/>
      <point x="260" y="38" type="curve" smooth="yes"/>
      <point x="405" y="38"/>
      <point x="504" y="182"/>
      <point x="602" y="316" type="curve"/>
      <point x="643" y="291" type="line"/>
      <point x="538" y="151"/>
      <point x="436" y="-10"/>
      <point x="257" y="-10" type="curve" smooth="yes"/>
      <point x="142" y="-10"/>
      <point x="40" y="60"/>
      <point x="40" y="179" type="curve" smooth="yes"/>
      <point x="40" y="326"/>
      <point x="186" y="374"/>
      <point x="254" y="413" type="curve" smooth="yes"/>
      <point x="335" y="459"/>
      <point x="383" y="510"/>
      <point x="383" y="562" type="curve" smooth="yes"/>
      <point x="383" y="615"/>
      <point x="349" y="664"/>
      <point x="280" y="664" type="curve" smooth="yes"/>
      <point x="209" y="664"/>
      <point x="171" y="621"/>
      <point x="171" y="564" type="curve" smooth="yes"/>
      <point x="171" y="508"/>
      <point x="211" y="470"/>
      <point x="247" y="429" type="curve" smooth="yes"/>
      <point x="621" y="0" type="line"/>
      <point x="559" y="0" type="line"/>
    </contour>
  </outline>
</glyph>
<glyph name="asterisk" format="2">
  <advance width="592"/>
  <unicode hex="002A"/>
  <outline>
    <contour>
      <point x="467" y="593" type="line"/>
      <point x="481" y="548" type="line"/>
      <point x="301" y="497" type="line"/>
      <point x="290" y="529" type="line"/>
    </contour>
    <contour>
      <point x="425" y="376" type="line"/>
      <point x="387" y="348" type="line"/>
      <point x="283" y="503" type="line"/>
      <point x="309" y="523" type="line"/>
    </contour>
    <contour>
      <point x="205" y="348" type="line"/>
      <point x="167" y="376" type="line"/>
      <point x="283" y="523" type="line"/>
      <point x="309" y="503" type="line"/>
    </contour>
    <contour>
      <point x="111" y="548" type="line"/>
      <point x="125" y="593" type="line"/>
      <point x="302" y="529" type="line"/>
      <point x="291" y="497" type="line"/>
    </contour>
    <contour>
      <point x="273" y="700" type="line"/>
      <point x="319" y="700" type="line"/>
      <point x="312" y="513" type="line"/>
      <point x="280" y="513" type="line"/>
    </contour>
  </outline>
</glyph>
<glyph name="comma" format="2">
  <advance width="295"/>
  <unicode hex="002C"/>
  <outline>
    <contour>
      <point x="159" y="104" type="line"/>
      <point x="211" y="84" type="line"/>
      <point x="101" y="-166" type="line"/>
      <point x="64" y="-153" type="line"/>
    </contour>
  </outline>
</glyph>
<glyph name="period" format="2">
  <advance width="284"/>
  <unicode hex="002E"/>
  <outline>
    <contour>
      <point x="105" y="24" type="curve" smooth="yes"/>
      <point x="105" y="45"/>
      <point x="122" y="62"/>
      <point x="142" y="62" type="curve" smooth="yes"/>
      <point x="162" y="62"/>
      <point x="179" y="45"/>
      <point x="179" y="24" type="curve" smooth="yes"/>
      <point x="179" y="3"/>
      <point x="162" y="-13"/>
      <point x="142" y="-13" type="curve" smooth="yes"/>
      <point x="122" y="-13"/>
      <point x="105" y="3"/>
    </contour>
  </outline>
</glyph>
<glyph name="one" format="2">
  <advance width="434"/>
  <unicode hex="0031"/>
  <outline>
    <contour>
      <point x="86" y="599" type="line"/>
      <point x="86" y="656" type="line"/>
      <point x="302" y="708" type="line"/>
      <point x="302" y="0" type="line"/>
      <point x="247" y="0" type="line"/>
      <point x="247" y="641" type="line"/>
    </contour>
  </outline>
</glyph>
<glyph name="two" format="2">
  <advance width="547"/>
  <unicode hex="0032"/>
  <outline>
    <contour>
      <point x="22" y="0" type="line"/>
      <point x="349" y="345" type="line" smooth="yes"/>
      <point x="396" y="395"/>
      <point x="430" y="444"/>
      <point x="430" y="511" type="curve" smooth="yes"/>
      <point x="430" y="579"/>
      <point x="381" y="659"/>
      <point x="278" y="659" type="curve" smooth="yes"/>
      <point x="176" y="659"/>
      <point x="113" y="580"/>
      <point x="113" y="460" type="curve"/>
      <point x="58" y="460" type="line"/>
      <point x="58" y="609"/>
      <point x="141" y="711"/>
      <point x="278" y="711" type="curve" smooth="yes"/>
      <point x="424" y="711"/>
      <point x="487" y="597"/>
      <point x="487" y="513" type="curve" smooth="yes"/>
      <point x="487" y="437"/>
      <point x="445" y="369"/>
      <point x="392" y="315" type="curve" smooth="yes"/>
      <point x="137" y="52" type="line"/>
      <point x="500" y="52" type="line"/>
      <point x="500" y="0" type="line"/>
    </contour>
  </outline>
</glyph>
<glyph name="six" format="2">
  <advance width="560"/>
  <unicode hex="0036"/>
  <outline>
    <contour>
      <point x="103" y="226" type="curve" smooth="yes"/>
      <point x="103" y="118"/>
      <point x="176" y="40"/>
      <point x="280" y="40" type="curve" smooth="yes"/>
      <point x="384" y="40"/>
      <point x="457" y="118"/>
      <point x="457" y="226" type="curve" smooth="yes"/>
      <point x="457" y="330"/>
      <point x="380" y="408"/>
      <point x="284" y="408" type="curve" smooth="yes"/>
      <point x="174" y="408"/>
      <point x="103" y="326"/>
    </contour>
    <contour>
      <point x="330" y="700" type="line"/>
      <point x="399" y="700" type="line"/>
      <point x="171" y="389" type="line"/>
      <point x="167" y="392" type="line"/>
      <point x="200" y="433"/>
      <point x="246" y="449"/>
      <point x="303" y="449" type="curve" smooth="yes"/>
      <point x="417" y="449"/>
      <point x="510" y="351"/>
      <point x="510" y="226" type="curve" smooth="yes"/>
      <point x="510" y="86"/>
      <point x="415" y="-10"/>
      <point x="280" y="-10" type="curve" smooth="yes"/>
      <point x="145" y="-10"/>
      <point x="50" y="86"/>
      <point x="50" y="226" type="curve" smooth="yes"/>
      <point x="50" y="283"/>
      <point x="72" y="340"/>
      <point x="99" y="377" type="curve" smooth="yes"/>
    </contour>
  </outline>
</glyph>
<glyph name="seven" format="2">
  <advance width="521"/>
  <unicode hex="0037"/>
  <outline>
    <contour>
      <point x="32" y="648" type="line"/>
      <point x="32" y="700" type="line"/>
      <point x="514" y="700" type="line"/>
      <point x="165" y="0" type="line"/>
      <point x="107" y="0" type="line"/>
      <point x="431" y="648" type="line"/>
    </contour>
  </outline>
</glyph>
<glyph name="eight" format="2">
  <advance width="534"/>
  <unicode hex="0038"/>
  <outline>
    <contour>
      <point x="82" y="535" type="curve" smooth="yes"/>
      <point x="82" y="630"/>
      <point x="161" y="710"/>
      <point x="267" y="710" type="curve" smooth="yes"/>
      <point x="373" y="710"/>
      <point x="452" y="630"/>
      <point x="452" y="535" type="curve" smooth="yes"/>
      <point x="452" y="430"/>
      <point x="370" y="360"/>
      <point x="267" y="360" type="curve" smooth="yes"/>
      <point x="164" y="360"/>
      <point x="82" y="430"/>
    </contour>
    <contour>
      <point x="135" y="529" type="curve" smooth="yes"/>
      <point x="135" y="451"/>
      <point x="203" y="396"/>
      <point x="267" y="396" type="curve" smooth="yes"/>
      <point x="331" y="396"/>
      <point x="399" y="451"/>
      <point x="399" y="529" type="curve" smooth="yes"/>
      <point x="399" y="603"/>
      <point x="344" y="661"/>
      <point x="267" y="661" type="curve" smooth="yes"/>
      <point x="190" y="661"/>
      <point x="135" y="603"/>
    </contour>
    <contour>
      <point x="59" y="188" type="curve" smooth="yes"/>
      <point x="59" y="309"/>
      <point x="158" y="383"/>
      <point x="267" y="383" type="curve" smooth="yes"/>
      <point x="376" y="383"/>
      <point x="475" y="309"/>
      <point x="475" y="188" type="curve" smooth="yes"/>
      <point x="475" y="79"/>
      <point x="392" y="-10"/>
      <point x="267" y="-10" type="curve" smooth="yes"/>
      <point x="142" y="-10"/>
      <point x="59" y="79"/>
    </contour>
    <contour>
      <point x="112" y="194" type="curve" smooth="yes"/>
      <point x="112" y="100"/>
      <point x="179" y="39"/>
      <point x="267" y="39" type="curve" smooth="yes"/>
      <point x="355" y="39"/>
      <point x="422" y="100"/>
      <point x="422" y="194" type="curve" smooth="yes"/>
      <point x="422" y="282"/>
      <point x="345" y="347"/>
      <point x="267" y="347" type="curve" smooth="yes"/>
      <point x="189" y="347"/>
      <point x="112" y="282"/>
    </contour>
  </outline>
</glyph>
<glyph name="semicolon" format="2">
  <advance width="308"/>
  <unicode hex="003B"/>
  <outline>
    <contour>
      <point x="135" y="392" type="curve" smooth="yes"/>
      <point x="135" y="413"/>
      <point x="152" y="429"/>
      <point x="172" y="429" type="curve" smooth="yes"/>
      <point x="192" y="429"/>
      <point x="209" y="413"/>
      <point x="209" y="392" type="curve" smooth="yes"/>
      <point x="209" y="371"/>
      <point x="192" y="354"/>
      <point x="172" y="354" type="curve" smooth="yes"/>
      <point x="152" y="354"/>
      <point x="135" y="371"/>
    </contour>
    <contour>
      <point x="159" y="104" type="line"/>
      <point x="211" y="84" type="line"/>
      <point x="101" y="-166" type="line"/>
      <point x="64" y="-153" type="line"/>
    </contour>
  </outline>
</glyph>
<glyph name="A" format="2">
  <advance width="636"/>
  <unicode hex="0041"/>
  <outline>
    <contour>
      <point x="140" y="235" type="line"/>
      <point x="158" y="287" type="line"/>
      <point x="481" y="287" type="line"/>
      <point x="499" y="235" type="line"/>
    </contour>
    <contour>
      <point x="318" y="600" type="line"/>
      <point x="182" y="269" type="line"/>
      <point x="176" y="257" type="line"/>
      <point x="71" y="0" type="line"/>
      <point x="9" y="0" type="line"/>
      <point x="318" y="727" type="line"/>
      <point x="627" y="0" type="line"/>
      <point x="565" y="0" type="line"/>
      <point x="461" y="253" type="line"/>
      <point x="456" y="266" type="line"/>
    </contour>
  </outline>
</glyph>
<glyph name="B" format="2">
  <advance width="532"/>
  <unicode hex="0042"/>
  <outline>
    <contour>
      <point x="127" y="376" type="line"/>
      <point x="127" y="408" type="line"/>
      <point x="236" y="408" type="line" smooth="yes"/>
      <point x="318" y="408"/>
      <point x="385" y="446"/>
      <point x="385" y="528" type="curve" smooth="yes"/>
      <point x="385" y="605"/>
      <point x="326" y="651"/>
      <point x="236" y="651" type="curve" smooth="yes"/>
      <point x="139" y="651" type="line"/>
      <point x="139" y="49" type="line"/>
      <point x="246" y="49" type="line" smooth="yes"/>
      <point x="352" y="49"/>
      <point x="423" y="102"/>
      <point x="423" y="206" type="curve" smooth="yes"/>
      <point x="423" y="304"/>
      <point x="340" y="359"/>
      <point x="246" y="359" type="curve" smooth="yes"/>
      <point x="127" y="359" type="line"/>
      <point x="127" y="391" type="line"/>
      <point x="250" y="391" type="line" smooth="yes"/>
      <point x="365" y="391"/>
      <point x="479" y="332"/>
      <point x="479" y="203" type="curve" smooth="yes"/>
      <point x="479" y="64"/>
      <point x="381" y="0"/>
      <point x="246" y="0" type="curve" smooth="yes"/>
      <point x="84" y="0" type="line"/>
      <point x="84" y="700" type="line"/>
      <point x="236" y="700" type="line" smooth="yes"/>
      <point x="361" y="700"/>
      <point x="440" y="642"/>
      <point x="440" y="531" type="curve" smooth="yes"/>
      <point x="440" y="428"/>
      <point x="357" y="376"/>
      <point x="240" y="376" type="curve" smooth="yes"/>
    </contour>
  </outline>
</glyph>
<glyph name="D" format="2">
  <advance width="662"/>
  <unicode hex="0044"/>
  <outline>
    <contour>
      <point x="84" y="700" type="line"/>
      <point x="139" y="700" type="line"/>
      <point x="139" y="0" type="line"/>
      <point x="84" y="0" type="line"/>
    </contour>
    <contour>
      <point x="274" y="0" type="curve" smooth="yes"/>
      <point x="114" y="0" type="line"/>
      <point x="114" y="55" type="line"/>
      <point x="274" y="55" type="line" smooth="yes"/>
      <point x="449" y="55"/>
      <point x="563" y="171"/>
      <point x="563" y="350" type="curve" smooth="yes"/>
      <point x="563" y="529"/>
      <point x="449" y="645"/>
      <point x="274" y="645" type="curve" smooth="yes"/>
      <point x="114" y="645" type="line"/>
      <point x="114" y="700" type="line"/>
      <point x="274" y="700" type="line" smooth="yes"/>
      <point x="478" y="700"/>
      <point x="618" y="559"/>
      <point x="618" y="350" type="curve" smooth="yes"/>
      <point x="618" y="141"/>
      <point x="478" y="0"/>
    </contour>
  </outline>
</glyph>
<glyph name="I" format="2">
  <advance width="219"/>
  <unicode hex="0049"/>
  <outline>
    <contour>
      <point x="82" y="700" type="line"/>
      <point x="137" y="700" type="line"/>
      <point x="137" y="0" type="line"/>
      <point x="82" y="0" type="line"/>
    </contour>
  </outline>
</glyph>
<glyph name="J" format="2">
  <advance width="222"/>
  <unicode hex="004A"/>
  <outline>
    <contour>
      <point x="-91" y="-126" type="line"/>
      <point x="-73" y="-149"/>
      <point x="-40" y="-168"/>
      <point x="0" y="-168" type="curve" smooth="yes"/>
      <point x="54" y="-168"/>
      <point x="86" y="-136"/>
      <point x="86" y="-50" type="curve" smooth="yes"/>
      <point x="86" y="700" type="line"/>
      <point x="139" y="700" type="line"/>
      <point x="139" y="-60" type="line" smooth="yes"/>
      <point x="139" y="-169"/>
      <point x="92" y="-220"/>
      <point x="-2" y="-220" type="curve" smooth="yes"/>
      <point x="-55" y="-220"/>
      <point x="-105" y="-188"/>
      <point x="-120" y="-168" type="curve"/>
    </contour>
  </outline>
</glyph>
<glyph name="N" format="2">
  <advance width="755"/>
  <unicode hex="004E"/>
  <outline>
    <contour>
      <point x="616" y="700" type="line"/>
      <point x="671" y="700" type="line"/>
      <point x="671" y="-27" type="line"/>
      <point x="139" y="584" type="line"/>
      <point x="139" y="0" type="line"/>
      <point x="84" y="0" type="line"/>
      <point x="84" y="727" type="line"/>
      <point x="616" y="114" type="line"/>
    </contour>
  </outline>
</glyph>
<glyph name="Q" format="2">
  <advance width="782"/>
  <unicode hex="0051"/>
  <outline>
    <contour>
      <point x="102" y="350" type="curve" smooth="yes"/>
      <point x="102" y="175"/>
      <point x="224" y="46"/>
      <point x="392" y="46" type="curve" smooth="yes"/>
      <point x="560" y="46"/>
      <point x="681" y="175"/>
      <point x="681" y="350" type="curve" smooth="yes"/>
      <point x="681" y="525"/>
      <point x="560" y="654"/>
      <point x="392" y="654" type="curve" smooth="yes"/>
      <point x="224" y="654"/>
      <point x="102" y="525"/>
    </contour>
    <contour>
      <point x="44" y="350" type="curve" smooth="yes"/>
      <point x="44" y="556"/>
      <point x="192" y="709"/>
      <point x="392" y="709" type="curve" smooth="yes"/>
      <point x="592" y="709"/>
      <point x="740" y="556"/>
      <point x="740" y="350" type="curve" smooth="yes"/>
      <point x="740" y="144"/>
      <point x="592" y="-9"/>
      <point x="392" y="-9" type="curve" smooth="yes"/>
      <point x="192" y="-9"/>
      <point x="44" y="144"/>
    </contour>
    <contour>
      <point x="387" y="300" type="line"/>
      <point x="460" y="300" type="line"/>
      <point x="768" y="0" type="line"/>
      <point x="695" y="0" type="line"/>
    </contour>
  </outline>
</glyph>
<glyph name="S" format="2">
  <advance width="524"/>
  <unicode hex="0053"/>
  <outline>
    <contour>
      <point x="89" y="202" type="line"/>
      <point x="122" y="113"/>
      <point x="175" y="43"/>
      <point x="277" y="43" type="curve" smooth="yes"/>
      <point x="367" y="43"/>
      <point x="422" y="99"/>
      <point x="422" y="176" type="curve" smooth="yes"/>
      <point x="422" y="277"/>
      <point x="343" y="313"/>
      <point x="263" y="343" type="curve" smooth="yes"/>
      <point x="182" y="373"/>
      <point x="77" y="420"/>
      <point x="77" y="539" type="curve" smooth="yes"/>
      <point x="77" y="640"/>
      <point x="155" y="709"/>
      <point x="265" y="709" type="curve" smooth="yes"/>
      <point x="376" y="709"/>
      <point x="442" y="636"/>
      <point x="470" y="569" type="curve"/>
      <point x="422" y="542" type="line"/>
      <point x="398" y="595"/>
      <point x="353" y="656"/>
      <point x="262" y="656" type="curve" smooth="yes"/>
      <point x="180" y="656"/>
      <point x="135" y="609"/>
      <point x="135" y="546" type="curve" smooth="yes"/>
      <point x="135" y="469"/>
      <point x="192" y="426"/>
      <point x="305" y="386" type="curve" smooth="yes"/>
      <point x="383" y="358"/>
      <point x="479" y="305"/>
      <point x="479" y="182" type="curve" smooth="yes"/>
      <point x="479" y="68"/>
      <point x="390" y="-9"/>
      <point x="276" y="-9" type="curve" smooth="yes"/>
      <point x="155" y="-9"/>
      <point x="77" y="77"/>
      <point x="44" y="174" type="curve"/>
    </contour>
  </outline>
</glyph>
<glyph name="T" format="2">
  <advance width="451"/>
  <unicode hex="0054"/>
  <outline>
    <contour>
      <point x="14" y="648" type="line"/>
      <point x="14" y="700" type="line"/>
      <point x="437" y="700" type="line"/>
      <point x="437" y="648" type="line"/>
      <point x="253" y="648" type="line"/>
      <point x="253" y="0" type="line"/>
      <point x="198" y="0" type="line"/>
      <point x="198" y="648" type="line"/>
    </contour>
  </outline>
</glyph>
<glyph name="X" format="2">
  <advance width="533"/>
  <unicode hex="0058"/>
  <outline>
    <contour>
      <point x="438" y="700" type="line"/>
      <point x="504" y="700" type="line"/>
      <point x="297" y="367" type="line"/>
      <point x="519" y="0" type="line"/>
      <point x="453" y="0" type="line"/>
      <point x="269" y="318" type="line"/>
      <point x="80" y="0" type="line"/>
      <point x="14" y="0" type="line"/>
      <point x="241" y="367" type="line"/>
      <point x="39" y="700" type="line"/>
      <point x="105" y="700" type="line"/>
      <point x="270" y="415" type="line"/>
    </contour>
  </outline>
</glyph>
<glyph name="Y" format="2">
  <advance width="539"/>
  <unicode hex="0059"/>
  <outline>
    <contour>
      <point x="468" y="700" type="line"/>
      <point x="530" y="700" type="line"/>
      <point x="295" y="288" type="line"/>
      <point x="295" y="0" type="line"/>
      <point x="240" y="0" type="line"/>
      <point x="240" y="287" type="line"/>
      <point x="9" y="700" type="line"/>
      <point x="71" y="700" type="line"/>
      <point x="267" y="338" type="line"/>
    </contour>
  </outline>
</glyph>
<glyph name="Z" format="2">
  <advance width="541"/>
  <unicode hex="005A"/>
  <outline>
    <contour>
      <point x="37" y="648" type="line"/>
      <point x="37" y="700" type="line"/>
      <point x="523" y="700" type="line"/>
      <point x="111" y="52" type="line"/>
      <point x="507" y="52" type="line"/>
      <point x="507" y="0" type="line"/>
      <point x="17" y="0" type="line"/>
      <point x="429" y="648" type="line"/>
    </contour>
  </outline>
</glyph>
<glyph name="bracketleft" format="2">
  <advance width="284"/>
  <unicode hex="005B"/>
  <outline>
    <contour>
      <point x="152" y="731" type="line"/>
      <point x="152" y="-171" type="line"/>
      <point x="264" y="-171" type="line"/>
      <point x="264" y="-220" type="line"/>
      <point x="100" y="-220" type="line"/>
      <point x="100" y="780" type="line"/>
      <point x="264" y="780" type="line"/>
      <point x="264" y="731" type="line"/>
    </contour>
  </outline>
</glyph>
<glyph name="bracketright" format="2">
  <advance width="284"/>
  <unicode hex="005D"/>
  <outline>
    <contour>
      <point x="132" y="-171" type="line"/>
      <point x="132" y="731" type="line"/>
      <point x="20" y="731" type="line"/>
      <point x="20" y="780" type="line"/>
      <point x="184" y="780" type="line"/>
      <point x="184" y="-220" type="line"/>
      <point x="20" y="-220" type="line"/>
      <point x="20" y="-171" type="line"/>
    </contour>
  </outline>
</glyph>
<glyph name="a" format="2">
  <advance width="462"/>
  <unicode hex="0061"/>
  <outline>
    <contour>
      <point x="87" y="138" type="curve" smooth="yes"/>
      <point x="87" y="68"/>
      <point x="140" y="35"/>
      <point x="203" y="35" type="curve" smooth="yes"/>
      <point x="280" y="35"/>
      <point x="347" y="89"/>
      <point x="347" y="192" type="curve"/>
      <point x="359" y="148" type="line"/>
      <point x="359" y="41"/>
      <point x="269" y="-10"/>
      <point x="189" y="-10" type="curve" smooth="yes"/>
      <point x="110" y="-10"/>
      <point x="34" y="39"/>
      <point x="34" y="136" type="curve" smooth="yes"/>
      <point x="34" y="226"/>
      <point x="100" y="281"/>
      <point x="207" y="281" type="curve" smooth="yes"/>
      <point x="297" y="281"/>
      <point x="351" y="242"/>
      <point x="368" y="225" type="curve"/>
      <point x="368" y="192" type="line"/>
      <point x="323" y="225"/>
      <point x="272" y="239"/>
      <point x="215" y="239" type="curve" smooth="yes"/>
      <point x="138" y="239"/>
      <point x="87" y="206"/>
    </contour>
    <contour>
      <point x="89" y="376" type="curve"/>
      <point x="63" y="415" type="line"/>
      <point x="97" y="440"/>
      <point x="153" y="470"/>
      <point x="233" y="470" type="curve" smooth="yes"/>
      <point x="337" y="470"/>
      <point x="399" y="418"/>
      <point x="399" y="326" type="curve" smooth="yes"/>
      <point x="399" y="0" type="line"/>
      <point x="347" y="0" type="line"/>
      <point x="347" y="319" type="line" smooth="yes"/>
      <point x="347" y="372"/>
      <point x="318" y="424"/>
      <point x="229" y="424" type="curve" smooth="yes"/>
      <point x="160" y="424"/>
      <point x="114" y="395"/>
    </contour>
  </outline>
</glyph>
<glyph name="e" format="2">
  <advance width="509"/>
  <unicode hex="0065"/>
  <outline>
    <contour>
      <point x="252" y="-10" type="curve" smooth="yes"/>
      <point x="128" y="-10"/>
      <point x="39" y="91"/>
      <point x="39" y="231" type="curve" smooth="yes"/>
      <point x="39" y="371"/>
      <point x="130" y="470"/>
      <point x="260" y="470" type="curve" smooth="yes"/>
      <point x="385" y="470"/>
      <point x="471" y="377"/>
      <point x="471" y="242" type="curve" smooth="yes"/>
      <point x="471" y="234"/>
      <point x="470" y="222"/>
      <point x="469" y="217" type="curve"/>
      <point x="72" y="217" type="line"/>
      <point x="72" y="262" type="line"/>
      <point x="430" y="262" type="line"/>
      <point x="408" y="231" type="line"/>
      <point x="411" y="237"/>
      <point x="415" y="251"/>
      <point x="415" y="261" type="curve" smooth="yes"/>
      <point x="415" y="355"/>
      <point x="349" y="424"/>
      <point x="260" y="424" type="curve" smooth="yes"/>
      <point x="159" y="424"/>
      <point x="93" y="349"/>
      <point x="92" y="234" type="curve" smooth="yes"/>
      <point x="91" y="117"/>
      <point x="158" y="39"/>
      <point x="258" y="39" type="curve" smooth="yes"/>
      <point x="328" y="39"/>
      <point x="379" y="68"/>
      <point x="421" y="134" type="curve"/>
      <point x="463" y="107" type="line"/>
      <point x="411" y="27"/>
      <point x="344" y="-10"/>
    </contour>
  </outline>
</glyph>
<glyph name="f" format="2">
  <advance width="282"/>
  <unicode hex="0066"/>
  <outline>
    <contour>
      <point x="44" y="460" type="line"/>
      <point x="260" y="460" type="line"/>
      <point x="260" y="411" type="line"/>
      <point x="44" y="411" type="line"/>
    </contour>
    <contour>
      <point x="270" y="704" type="line"/>
      <point x="255" y="726"/>
      <point x="233" y="737"/>
      <point x="209" y="737" type="curve" smooth="yes"/>
      <point x="159" y="737"/>
      <point x="141" y="694"/>
      <point x="141" y="632" type="curve" smooth="yes"/>
      <point x="141" y="0" type="line"/>
      <point x="89" y="0" type="line"/>
      <point x="89" y="638" type="line" smooth="yes"/>
      <point x="89" y="731"/>
      <point x="128" y="789"/>
      <point x="212" y="789" type="curve" smooth="yes"/>
      <point x="255" y="789"/>
      <point x="284" y="766"/>
      <point x="299" y="746" type="curve"/>
    </contour>
  </outline>
</glyph>
<glyph name="j" format="2">
  <advance width="222"/>
  <unicode hex="006A"/>
  <outline>
    <contour>
      <point x="67" y="668" type="curve" smooth="yes"/>
      <point x="67" y="688"/>
      <point x="83" y="704"/>
      <point x="104" y="704" type="curve" smooth="yes"/>
      <point x="125" y="704"/>
      <point x="140" y="688"/>
      <point x="140" y="668" type="curve" smooth="yes"/>
      <point x="140" y="648"/>
      <point x="125" y="632"/>
      <point x="104" y="632" type="curve" smooth="yes"/>
      <point x="83" y="632"/>
      <point x="67" y="648"/>
    </contour>
    <contour>
      <point x="-49" y="-134" type="line"/>
      <point x="-37" y="-152"/>
      <point x="-15" y="-168"/>
      <point x="12" y="-168" type="curve" smooth="yes"/>
      <point x="64" y="-168"/>
      <point x="80" y="-124"/>
      <point x="80" y="-63" type="curve" smooth="yes"/>
      <point x="80" y="460" type="line"/>
      <point x="132" y="460" type="line"/>
      <point x="132" y="-69" type="line" smooth="yes"/>
      <point x="132" y="-157"/>
      <point x="93" y="-220"/>
      <point x="9" y="-220" type="curve" smooth="yes"/>
      <point x="-32" y="-220"/>
      <point x="-60" y="-201"/>
      <point x="-78" y="-177" type="curve"/>
    </contour>
  </outline>
</glyph>
<glyph name="k" format="2">
  <advance width="412"/>
  <unicode hex="006B"/>
  <outline>
    <contour>
      <point x="74" y="780" type="line"/>
      <point x="126" y="780" type="line"/>
      <point x="126" y="0" type="line"/>
      <point x="74" y="0" type="line"/>
    </contour>
    <contour>
      <point x="323" y="460" type="line"/>
      <point x="390" y="460" type="line"/>
      <point x="173" y="270" type="line"/>
      <point x="409" y="0" type="line"/>
      <point x="343" y="0" type="line"/>
      <point x="107" y="270" type="line"/>
    </contour>
  </outline>
</glyph>
<glyph name="m" format="2">
  <advance width="744"/>
  <unicode hex="006D"/>
  <outline>
    <contour>
      <point x="665" y="302" type="curve" smooth="yes"/>
      <point x="665" y="0" type="line"/>
      <point x="613" y="0" type="line"/>
      <point x="613" y="296" type="line" smooth="yes"/>
      <point x="613" y="376"/>
      <point x="583" y="421"/>
      <point x="519" y="421" type="curve" smooth="yes"/>
      <point x="451" y="421"/>
      <point x="398" y="361"/>
      <point x="398" y="280" type="curve" smooth="yes"/>
      <point x="398" y="0" type="line"/>
      <point x="346" y="0" type="line"/>
      <point x="346" y="296" type="line" smooth="yes"/>
      <point x="346" y="376"/>
      <point x="316" y="421"/>
      <point x="252" y="421" type="curve" smooth="yes"/>
      <point x="184" y="421"/>
      <point x="131" y="362"/>
      <point x="131" y="280" type="curve" smooth="yes"/>
      <point x="131" y="0" type="line"/>
      <point x="79" y="0" type="line"/>
      <point x="79" y="460" type="line"/>
      <point x="131" y="460" type="line"/>
      <point x="131" y="367" type="line"/>
      <point x="155" y="432"/>
      <point x="205" y="470"/>
      <point x="264" y="470" type="curve" smooth="yes"/>
      <point x="331" y="470"/>
      <point x="375" y="429"/>
      <point x="389" y="364" type="curve"/>
      <point x="416" y="430"/>
      <point x="469" y="470"/>
      <point x="531" y="470" type="curve" smooth="yes"/>
      <point x="617" y="470"/>
      <point x="665" y="406"/>
    </contour>
  </outline>
</glyph>
<glyph name="n" format="2">
  <advance width="505"/>
  <unicode hex="006E"/>
  <outline>
    <contour>
      <point x="374" y="296" type="line" smooth="yes"/>
      <point x="374" y="374"/>
      <point x="340" y="421"/>
      <point x="266" y="421" type="curve" smooth="yes"/>
      <point x="188" y="421"/>
      <point x="131" y="359"/>
      <point x="131" y="280" type="curve" smooth="yes"/>
      <point x="131" y="0" type="line"/>
      <point x="79" y="0" type="line"/>
      <point x="79" y="460" type="line"/>
      <point x="131" y="460" type="line"/>
      <point x="131" y="364" type="line"/>
      <point x="157" y="431"/>
      <point x="210" y="470"/>
      <point x="278" y="470" type="curve" smooth="yes"/>
      <point x="374" y="470"/>
      <point x="426" y="404"/>
      <point x="426" y="302" type="curve" smooth="yes"/>
      <point x="426" y="0" type="line"/>
      <point x="374" y="0" type="line"/>
    </contour>
  </outline>
</glyph>
<glyph name="r" format="2">
  <advance width="321"/>
  <unicode hex="0072"/>
  <outline>
    <contour>
      <point x="131" y="460" type="line"/>
      <point x="131" y="0" type="line"/>
      <point x="79" y="0" type="line"/>
      <point x="79" y="460" type="line"/>
    </contour>
    <contour>
      <point x="284" y="399" type="line"/>
      <point x="264" y="413"/>
      <point x="248" y="421"/>
      <point x="224" y="421" type="curve" smooth="yes"/>
      <point x="156" y="421"/>
      <point x="131" y="358"/>
      <point x="131" y="280" type="curve"/>
      <point x="107" y="280" type="line"/>
      <point x="107" y="389"/>
      <point x="163" y="470"/>
      <point x="236" y="470" type="curve" smooth="yes"/>
      <point x="265" y="470"/>
      <point x="292" y="462"/>
      <point x="313" y="442" type="curve"/>
    </contour>
  </outline>
</glyph>
<glyph name="s" format="2">
  <advance width="403"/>
  <unicode hex="0073"/>
  <outline>
    <contour>
      <point x="78" y="131" type="line"/>
      <point x="98" y="81"/>
      <point x="139" y="38"/>
      <point x="211" y="38" type="curve" smooth="yes"/>
      <point x="267" y="38"/>
      <point x="304" y="67"/>
      <point x="304" y="119" type="curve" smooth="yes"/>
      <point x="304" y="174"/>
      <point x="249" y="199"/>
      <point x="190" y="219" type="curve" smooth="yes"/>
      <point x="124" y="241"/>
      <point x="59" y="270"/>
      <point x="59" y="353" type="curve" smooth="yes"/>
      <point x="59" y="431"/>
      <point x="126" y="469"/>
      <point x="197" y="469" type="curve" smooth="yes"/>
      <point x="275" y="469"/>
      <point x="330" y="426"/>
      <point x="354" y="375" type="curve"/>
      <point x="311" y="349" type="line"/>
      <point x="289" y="389"/>
      <point x="252" y="423"/>
      <point x="191" y="423" type="curve" smooth="yes"/>
      <point x="147" y="423"/>
      <point x="110" y="401"/>
      <point x="110" y="356" type="curve" smooth="yes"/>
      <point x="110" y="301"/>
      <point x="161" y="282"/>
      <point x="218" y="262" type="curve" smooth="yes"/>
      <point x="292" y="235"/>
      <point x="357" y="203"/>
      <point x="357" y="125" type="curve" smooth="yes"/>
      <point x="357" y="45"/>
      <point x="296" y="-10"/>
      <point x="208" y="-10" type="curve" smooth="yes"/>
      <point x="112" y="-10"/>
      <point x="54" y="48"/>
      <point x="36" y="107" type="curve"/>
    </contour>
  </outline>
</glyph>
<glyph name="z" format="2">
  <advance width="448"/>
  <unicode hex="007A"/>
  <outline>
    <contour>
      <point x="332" y="411" type="line"/>
      <point x="43" y="411" type="line"/>
      <point x="43" y="460" type="line"/>
      <point x="427" y="460" type="line"/>
      <point x="112" y="49" type="line"/>
      <point x="419" y="49" type="line"/>
      <point x="419" y="0" type="line"/>
      <point x="17" y="0" type="line"/>
    </contour>
  </outline>
</glyph>
<glyph name="asciitilde" format="2">
  <advance width="575"/>
  <unicode hex="007E"/>
  <outline>
    <contour>
      <point x="120" y="177" type="curve"/>
      <point x="72" y="181" type="line"/>
      <point x="70" y="188"/>
      <point x="69" y="196"/>
      <point x="69" y="205" type="curve" smooth="yes"/>
      <point x="69" y="231"/>
      <point x="76" y="258"/>
      <point x="94" y="281" type="curve" smooth="yes"/>
      <point x="117" y="311"/>
      <point x="150" y="327"/>
      <point x="190" y="327" type="curve" smooth="yes"/>
      <point x="237" y="327"/>
      <point x="275" y="299"/>
      <point x="311" y="267" type="curve" smooth="yes"/>
      <point x="339" y="242"/>
      <point x="366" y="221"/>
      <point x="396" y="221" type="curve" smooth="yes"/>
      <point x="437" y="221"/>
      <point x="456" y="250"/>
      <point x="456" y="294" type="curve" smooth="yes"/>
      <point x="456" y="302"/>
      <point x="455" y="312"/>
      <point x="451" y="322" type="curve"/>
      <point x="502" y="318" type="line"/>
      <point x="504" y="310"/>
      <point x="506" y="300"/>
      <point x="506" y="290" type="curve" smooth="yes"/>
      <point x="506" y="265"/>
      <point x="501" y="236"/>
      <point x="484" y="214" type="curve" smooth="yes"/>
      <point x="462" y="185"/>
      <point x="433" y="172"/>
      <point x="398" y="172" type="curve" smooth="yes"/>
      <point x="356" y="172"/>
      <point x="322" y="197"/>
      <point x="285" y="229" type="curve" smooth="yes"/>
      <point x="257" y="254"/>
      <point x="226" y="279"/>
      <point x="189" y="279" type="curve" smooth="yes"/>
      <point x="142" y="279"/>
      <point x="116" y="247"/>
      <point x="116" y="199" type="curve" smooth="yes"/>
      <point x="116" y="192"/>
      <point x="117" y="185"/>
    </contour>
  </outline>
</glyph>
<glyph name="exclamdown" format="2">
  <advance width="300"/>
  <unicode hex="00A1"/>
  <outline>
    <contour>
      <point x="190" y="-245" type="line"/>
      <point x="125" y="-245" type="line"/>
      <point x="138" y="255" type="line"/>
      <point x="177" y="255" type="line"/>
    </contour>
    <contour>
      <point x="195" y="431" type="curve" smooth="yes"/>
      <point x="195" y="410"/>
      <point x="178" y="393"/>
      <point x="158" y="393" type="curve" smooth="yes"/>
      <point x="138" y="393"/>
      <point x="120" y="410"/>
      <point x="120" y="431" type="curve" smooth="yes"/>
      <point x="120" y="452"/>
      <point x="138" y="468"/>
      <point x="158" y="468" type="curve" smooth="yes"/>
      <point x="178" y="468"/>
      <point x="195" y="452"/>
    </contour>
  </outline>
</glyph>
<glyph name="yen" format="2">
  <advance width="574"/>
  <unicode hex="00A5"/>
  <outline>
    <contour>
      <point x="39" y="282" type="line"/>
      <point x="39" y="331" type="line"/>
      <point x="521" y="331" type="line"/>
      <point x="521" y="282" type="line"/>
    </contour>
    <contour>
      <point x="39" y="142" type="line"/>
      <point x="39" y="191" type="line"/>
      <point x="521" y="191" type="line"/>
      <point x="521" y="142" type="line"/>
    </contour>
    <contour>
      <point x="480" y="700" type="line"/>
      <point x="542" y="700" type="line"/>
      <point x="308" y="290" type="line"/>
      <point x="308" y="0" type="line"/>
      <point x="252" y="0" type="line"/>
      <point x="252" y="289" type="line"/>
      <point x="21" y="700" type="line"/>
      <point x="83" y="700" type="line"/>
      <point x="280" y="338" type="line"/>
    </contour>
  </outline>
</glyph>
<glyph name="dieresis" format="2">
  <advance width="450"/>
  <unicode hex="00A8"/>
  <outline>
    <contour>
      <point x="288" y="672" type="curve" smooth="yes"/>
      <point x="288" y="693"/>
      <point x="305" y="709"/>
      <point x="325" y="709" type="curve" smooth="yes"/>
      <point x="345" y="709"/>
      <point x="363" y="693"/>
      <point x="363" y="672" type="curve" smooth="yes"/>
      <point x="363" y="651"/>
      <point x="345" y="634"/>
      <point x="325" y="634" type="curve" smooth="yes"/>
      <point x="305" y="634"/>
      <point x="288" y="651"/>
    </contour>
    <contour>
      <point x="88" y="672" type="curve" smooth="yes"/>
      <point x="88" y="693"/>
      <point x="105" y="709"/>
      <point x="125" y="709" type="curve" smooth="yes"/>
      <point x="145" y="709"/>
      <point x="163" y="693"/>
      <point x="163" y="672" type="curve" smooth="yes"/>
      <point x="163" y="651"/>
      <point x="145" y="634"/>
      <point x="125" y="634" type="curve" smooth="yes"/>
      <point x="105" y="634"/>
      <point x="88" y="651"/>
    </contour>
  </outline>
</glyph>
<glyph name="guillemotleft" format="2">
  <advance width="500"/>
  <unicode hex="00AB"/>
  <outline>
    <contour>
      <point x="258" y="257" type="line"/>
      <point x="430" y="50" type="line"/>
      <point x="397" y="20" type="line"/>
      <point x="200" y="255" type="line"/>
      <point x="397" y="490" type="line"/>
      <point x="430" y="460" type="line"/>
    </contour>
    <contour>
      <point x="98" y="257" type="line"/>
      <point x="270" y="50" type="line"/>
      <point x="237" y="20" type="line"/>
      <point x="40" y="255" type="line"/>
      <point x="237" y="490" type="line"/>
      <point x="270" y="460" type="line"/>
    </contour>
  </outline>
</glyph>
<glyph name="uni00B2" format="2">
  <advance width="340"/>
  <unicode hex="00B2"/>
  <outline>
    <contour>
      <point x="27" y="282" type="line"/>
      <point x="223" y="490" type="line" smooth="yes"/>
      <point x="251" y="520"/>
      <point x="272" y="549"/>
      <point x="272" y="589" type="curve" smooth="yes"/>
      <point x="272" y="630"/>
      <point x="245" y="678"/>
      <point x="183" y="678" type="curve" smooth="yes"/>
      <point x="122" y="678"/>
      <point x="82" y="630"/>
      <point x="82" y="558" type="curve"/>
      <point x="49" y="558" type="line"/>
      <point x="49" y="647"/>
      <point x="101" y="709"/>
      <point x="183" y="709" type="curve" smooth="yes"/>
      <point x="270" y="709"/>
      <point x="305" y="641"/>
      <point x="305" y="587" type="curve" smooth="yes"/>
      <point x="305" y="542"/>
      <point x="281" y="504"/>
      <point x="249" y="471" type="curve" smooth="yes"/>
      <point x="96" y="313" type="line"/>
      <point x="313" y="313" type="line"/>
      <point x="313" y="282" type="line"/>
    </contour>
  </outline>
</glyph>
<glyph name="acute" format="2">
  <advance width="366"/>
  <unicode hex="00B4"/>
  <outline>
    <contour>
      <point x="281" y="673" type="line"/>
      <point x="104" y="520" type="line"/>
      <point x="75" y="540" type="line"/>
      <point x="233" y="700" type="line"/>
    </contour>
  </outline>
</glyph>
<glyph name="mu" format="2">
  <advance width="505"/>
  <unicode hex="00B5"/>
  <outline>
    <contour>
      <point x="131" y="460" type="line"/>
      <point x="131" y="168" type="line" smooth="yes"/>
      <point x="131" y="86"/>
      <point x="164" y="39"/>
      <point x="239" y="39" type="curve" smooth="yes"/>
      <point x="317" y="39"/>
      <point x="374" y="102"/>
      <point x="374" y="180" type="curve" smooth="yes"/>
      <point x="374" y="460" type="line"/>
      <point x="426" y="460" type="line"/>
      <point x="426" y="0" type="line"/>
      <point x="374" y="0" type="line"/>
      <point x="374" y="90" type="line"/>
      <point x="348" y="29"/>
      <point x="293" y="-10"/>
      <point x="227" y="-10" type="curve" smooth="yes"/>
      <point x="182" y="-10"/>
      <point x="151" y="6"/>
      <point x="131" y="34" type="curve"/>
      <point x="131" y="-320" type="line"/>
      <point x="79" y="-320" type="line"/>
      <point x="79" y="460" type="line"/>
    </contour>
  </outline>
</glyph>
<glyph name="paragraph" format="2">
  <advance width="526"/>
  <unicode hex="00B6"/>
  <outline>
    <contour>
      <point x="288" y="270" type="line"/>
      <point x="163" y="270"/>
      <point x="60" y="346"/>
      <point x="60" y="485" type="curve" smooth="yes"/>
      <point x="60" y="624"/>
      <point x="163" y="700"/>
      <point x="288" y="700" type="curve" smooth="yes"/>
      <point x="466" y="700" type="line"/>
      <point x="466" y="-220" type="line"/>
      <point x="420" y="-220" type="line"/>
      <point x="420" y="657" type="line"/>
      <point x="334" y="657" type="line"/>
      <point x="334" y="-220" type="line"/>
      <point x="288" y="-220" type="line"/>
    </contour>
  </outline>
</glyph>
<glyph name="cedilla" format="2">
  <advance width="350"/>
  <unicode hex="00B8"/>
  <outline>
    <contour>
      <point x="188" y="36" type="line"/>
      <point x="229" y="36" type="line"/>
      <point x="169" y="-62" type="line"/>
      <point x="181" y="-56"/>
      <point x="187" y="-52"/>
      <point x="202" y="-52" type="curve" smooth="yes"/>
      <point x="235" y="-52"/>
      <point x="275" y="-77"/>
      <point x="275" y="-126" type="curve" smooth="yes"/>
      <point x="275" y="-187"/>
      <point x="223" y="-220"/>
      <point x="168" y="-220" type="curve" smooth="yes"/>
      <point x="131" y="-220"/>
      <point x="107" y="-210"/>
      <point x="79" y="-182" type="curve"/>
      <point x="102" y="-156" type="line"/>
      <point x="125" y="-175"/>
      <point x="139" y="-184"/>
      <point x="168" y="-184" type="curve" smooth="yes"/>
      <point x="207" y="-184"/>
      <point x="237" y="-163"/>
      <point x="237" y="-126" type="curve" smooth="yes"/>
      <point x="237" y="-94"/>
      <point x="214" y="-79"/>
      <point x="182" y="-79" type="curve" smooth="yes"/>
      <point x="164" y="-79"/>
      <point x="137" y="-85"/>
      <point x="115" y="-100" type="curve"/>
    </contour>
  </outline>
</glyph>
<glyph name="ordmasculine" format="2">
  <advance width="278"/>
  <unicode hex="00BA"/>
  <outline>
    <contour>
      <point x="20" y="580" type="curve" smooth="yes"/>
      <point x="20" y="650"/>
      <point x="71" y="700"/>
      <point x="139" y="700" type="curve" smooth="yes"/>
      <point x="207" y="700"/>
      <point x="258" y="650"/>
      <point x="258" y="580" type="curve" smooth="yes"/>
      <point x="258" y="510"/>
      <point x="207" y="460"/>
      <point x="139" y="460" type="curve" smooth="yes"/>
      <point x="71" y="460"/>
      <point x="20" y="510"/>
    </contour>
    <contour>
      <point x="48" y="580" type="curve" smooth="yes"/>
      <point x="48" y="525"/>
      <point x="88" y="487"/>
      <point x="139" y="487" type="curve" smooth="yes"/>
      <point x="190" y="487"/>
      <point x="230" y="525"/>
      <point x="230" y="580" type="curve" smooth="yes"/>
      <point x="230" y="635"/>
      <point x="190" y="673"/>
      <point x="139" y="673" type="curve" smooth="yes"/>
      <point x="88" y="673"/>
      <point x="48" y="635"/>
    </contour>
  </outline>
</glyph>
<glyph name="guillemotright" format="2">
  <advance width="500"/>
  <unicode hex="00BB"/>
  <outline>
    <contour>
      <point x="242" y="253" type="line"/>
      <point x="70" y="460" type="line"/>
      <point x="103" y="490" type="line"/>
      <point x="300" y="255" type="line"/>
      <point x="103" y="20" type="line"/>
      <point x="70" y="50" type="line"/>
    </contour>
    <contour>
      <point x="402" y="253" type="line"/>
      <point x="230" y="460" type="line"/>
      <point x="263" y="490" type="line"/>
      <point x="460" y="255" type="line"/>
      <point x="263" y="20" type="line"/>
      <point x="230" y="50" type="line"/>
    </contour>
  </outline>
</glyph>
<glyph name="onequarter" format="2">
  <advance width="754"/>
  <unicode hex="00BC"/>
  <outline>
    <contour>
      <point x="639" y="700" type="line"/>
      <point x="683" y="700" type="line"/>
      <point x="142" y="0" type="line"/>
      <point x="98" y="0" type="line"/>
    </contour>
    <contour>
      <point x="26" y="633" type="line"/>
      <point x="26" y="668" type="line"/>
      <point x="156" y="699" type="line"/>
      <point x="156" y="274" type="line"/>
      <point x="123" y="274" type="line"/>
      <point x="123" y="659" type="line"/>
    </contour>
    <contour>
      <point x="399" y="84" type="line"/>
      <point x="427" y="113" type="line"/>
      <point x="624" y="113" type="line" smooth="yes"/>
      <point x="631" y="113" type="line" smooth="yes"/>
      <point x="710" y="113" type="line"/>
      <point x="710" y="84" type="line"/>
    </contour>
    <contour>
      <point x="434" y="84" type="line"/>
      <point x="399" y="84" type="line"/>
      <point x="631" y="420" type="line"/>
      <point x="644" y="420" type="line"/>
      <point x="644" y="0" type="line"/>
      <point x="611" y="0" type="line"/>
      <point x="611" y="98" type="line" smooth="yes"/>
      <point x="611" y="102" type="line" smooth="yes"/>
      <point x="611" y="344" type="line"/>
    </contour>
  </outline>
</glyph>
<glyph name="onehalf" format="2">
  <advance width="819"/>
  <unicode hex="00BD"/>
  <outline>
    <contour>
      <point x="639" y="700" type="line"/>
      <point x="683" y="700" type="line"/>
      <point x="142" y="0" type="line"/>
      <point x="98" y="0" type="line"/>
    </contour>
    <contour>
      <point x="26" y="633" type="line"/>
      <point x="26" y="668" type="line"/>
      <point x="156" y="699" type="line"/>
      <point x="156" y="274" type="line"/>
      <point x="123" y="274" type="line"/>
      <point x="123" y="659" type="line"/>
    </contour>
    <contour>
      <point x="494" y="2" type="line"/>
      <point x="690" y="209" type="line" smooth="yes"/>
      <point x="718" y="239"/>
      <point x="739" y="269"/>
      <point x="739" y="309" type="curve" smooth="yes"/>
      <point x="739" y="350"/>
      <point x="713" y="398"/>
      <point x="651" y="398" type="curve" smooth="yes"/>
      <point x="590" y="398"/>
      <point x="549" y="350"/>
      <point x="549" y="278" type="curve"/>
      <point x="516" y="278" type="line"/>
      <point x="516" y="367"/>
      <point x="569" y="429"/>
      <point x="651" y="429" type="curve" smooth="yes"/>
      <point x="738" y="429"/>
      <point x="773" y="360"/>
      <point x="773" y="306" type="curve" smooth="yes"/>
      <point x="773" y="261"/>
      <point x="748" y="224"/>
      <point x="716" y="191" type="curve" smooth="yes"/>
      <point x="563" y="33" type="line"/>
      <point x="781" y="33" type="line"/>
      <point x="781" y="2" type="line"/>
    </contour>
  </outline>
</glyph>
<glyph name="threequarters" format="2">
  <advance width="820"/>
  <unicode hex="00BE"/>
  <outline>
    <contour>
      <point x="706" y="700" type="line"/>
      <point x="750" y="700" type="line"/>
      <point x="209" y="0" type="line"/>
      <point x="165" y="0" type="line"/>
    </contour>
    <contour>
      <point x="146" y="491" type="curve"/>
      <point x="146" y="513" type="line"/>
      <point x="200" y="513"/>
      <point x="247" y="547"/>
      <point x="247" y="596" type="curve" smooth="yes"/>
      <point x="247" y="640"/>
      <point x="219" y="676"/>
      <point x="167" y="676" type="curve" smooth="yes"/>
      <point x="118" y="676"/>
      <point x="82" y="643"/>
      <point x="82" y="596" type="curve"/>
      <point x="50" y="596" type="line"/>
      <point x="50" y="661"/>
      <point x="98" y="706"/>
      <point x="167" y="706" type="curve" smooth="yes"/>
      <point x="239" y="706"/>
      <point x="280" y="653"/>
      <point x="280" y="596" type="curve" smooth="yes"/>
      <point x="280" y="535"/>
      <point x="220" y="491"/>
    </contour>
    <contour>
      <point x="164" y="274" type="curve" smooth="yes"/>
      <point x="83" y="274"/>
      <point x="32" y="326"/>
      <point x="32" y="391" type="curve"/>
      <point x="66" y="391" type="line"/>
      <point x="66" y="341"/>
      <point x="104" y="305"/>
      <point x="164" y="305" type="curve" smooth="yes"/>
      <point x="222" y="305"/>
      <point x="259" y="340"/>
      <point x="259" y="392" type="curve" smooth="yes"/>
      <point x="259" y="453"/>
      <point x="200" y="483"/>
      <point x="146" y="483" type="curve"/>
      <point x="146" y="505" type="line"/>
      <point x="220" y="505"/>
      <point x="292" y="470"/>
      <point x="292" y="389" type="curve" smooth="yes"/>
      <point x="292" y="320"/>
      <point x="239" y="274"/>
    </contour>
    <contour>
      <point x="466" y="84" type="line"/>
      <point x="494" y="113" type="line"/>
      <point x="691" y="113" type="line" smooth="yes"/>
      <point x="698" y="113" type="line" smooth="yes"/>
      <point x="777" y="113" type="line"/>
      <point x="777" y="84" type="line"/>
    </contour>
    <contour>
      <point x="501" y="84" type="line"/>
      <point x="466" y="84" type="line"/>
      <point x="698" y="420" type="line"/>
      <point x="711" y="420" type="line"/>
      <point x="711" y="0" type="line"/>
      <point x="678" y="0" type="line"/>
      <point x="678" y="98" type="line" smooth="yes"/>
      <point x="678" y="102" type="line" smooth="yes"/>
      <point x="678" y="344" type="line"/>
    </contour>
  </outline>
</glyph>
<glyph name="Agrave" format="2">
  <advance width="636"/>
  <unicode hex="00C0"/>
  <outline>
    <contour>
      <point x="139" y="235" type="line"/>
      <point x="157" y="287" type="line"/>
      <point x="481" y="287" type="line"/>
      <point x="499" y="235" type="line"/>
    </contour>
    <contour>
      <point x="318" y="600" type="line"/>
      <point x="182" y="269" type="line"/>
      <point x="176" y="257" type="line"/>
      <point x="71" y="0" type="line"/>
      <point x="9" y="0" type="line"/>
      <point x="318" y="727" type="line"/>
      <point x="627" y="0" type="line"/>
      <point x="565" y="0" type="line"/>
      <point x="461" y="253" type="line"/>
      <point x="456" y="266" type="line"/>
    </contour>
    <contour>
      <point x="186" y="940" type="line"/>
      <point x="234" y="967" type="line"/>
      <point x="392" y="807" type="line"/>
      <point x="363" y="787" type="line"/>
    </contour>
  </outline>
</glyph>
<glyph name="Adieresis" format="2">
  <advance width="636"/>
  <unicode hex="00C4"/>
  <outline>
    <contour>
      <point x="139" y="235" type="line"/>
      <point x="157" y="287" type="line"/>
      <point x="481" y="287" type="line"/>
      <point x="499" y="235" type="line"/>
    </contour>
    <contour>
      <point x="318" y="600" type="line"/>
      <point x="182" y="269" type="line"/>
      <point x="176" y="257" type="line"/>
      <point x="71" y="0" type="line"/>
      <point x="9" y="0" type="line"/>
      <point x="318" y="727" type="line"/>
      <point x="627" y="0" type="line"/>
      <point x="565" y="0" type="line"/>
      <point x="461" y="253" type="line"/>
      <point x="456" y="266" type="line"/>
    </contour>
    <contour>
      <point x="381" y="832" type="curve" smooth="yes"/>
      <point x="381" y="853"/>
      <point x="398" y="870"/>
      <point x="418" y="870" type="curve" smooth="yes"/>
      <point x="438" y="870"/>
      <point x="455" y="853"/>
      <point x="455" y="832" type="curve" smooth="yes"/>
      <point x="455" y="811"/>
      <point x="438" y="795"/>
      <point x="418" y="795" type="curve" smooth="yes"/>
      <point x="398" y="795"/>
      <point x="381" y="811"/>
    </contour>
    <contour>
      <point x="181" y="832" type="curve" smooth="yes"/>
      <point x="181" y="853"/>
      <point x="198" y="870"/>
      <point x="218" y="870" type="curve" smooth="yes"/>
      <point x="238" y="870"/>
      <point x="255" y="853"/>
      <point x="255" y="832" type="curve" smooth="yes"/>
      <point x="255" y="811"/>
      <point x="238" y="795"/>
      <point x="218" y="795" type="curve" smooth="yes"/>
      <point x="198" y="795"/>
      <point x="181" y="811"/>
    </contour>
  </outline>
</glyph>
<glyph name="AE" format="2">
  <advance width="934"/>
  <unicode hex="00C6"/>
  <outline>
    <contour>
      <point x="213" y="238" type="line"/>
      <point x="213" y="290" type="line"/>
      <point x="509" y="290" type="line"/>
      <point x="509" y="238" type="line"/>
    </contour>
    <contour>
      <point x="455" y="700" type="line"/>
      <point x="502" y="676" type="line"/>
      <point x="67" y="0" type="line"/>
      <point x="5" y="0" type="line"/>
    </contour>
    <contour>
      <point x="521" y="0" type="line"/>
      <point x="521" y="52" type="line"/>
      <point x="860" y="52" type="line"/>
      <point x="860" y="0" type="line"/>
    </contour>
    <contour>
      <point x="527" y="648" type="line"/>
      <point x="455" y="700" type="line"/>
      <point x="860" y="700" type="line"/>
      <point x="860" y="648" type="line"/>
    </contour>
    <contour>
      <point x="521" y="358" type="line"/>
      <point x="521" y="410" type="line"/>
      <point x="840" y="410" type="line"/>
      <point x="840" y="358" type="line"/>
    </contour>
    <contour>
      <point x="490" y="700" type="line"/>
      <point x="545" y="700" type="line"/>
      <point x="545" y="0" type="line"/>
      <point x="490" y="0" type="line"/>
    </contour>
  </outline>
</glyph>
<glyph name="Ccedilla" format="2">
  <advance width="685"/>
  <unicode hex="00C7"/>
  <outline>
    <contour>
      <point x="103" y="350" type="curve" smooth="yes"/>
      <point x="103" y="172"/>
      <point x="228" y="47"/>
      <point x="386" y="47" type="curve" smooth="yes"/>
      <point x="485" y="47"/>
      <point x="558" y="83"/>
      <point x="611" y="143" type="curve"/>
      <point x="611" y="69" type="line"/>
      <point x="552" y="17"/>
      <point x="488" y="-9"/>
      <point x="386" y="-9" type="curve" smooth="yes"/>
      <point x="192" y="-9"/>
      <point x="44" y="141"/>
      <point x="44" y="350" type="curve" smooth="yes"/>
      <point x="44" y="559"/>
      <point x="192" y="709"/>
      <point x="386" y="709" type="curve" smooth="yes"/>
      <point x="488" y="709"/>
      <point x="552" y="683"/>
      <point x="611" y="631" type="curve"/>
      <point x="611" y="558" type="line"/>
      <point x="559" y="618"/>
      <point x="483" y="653"/>
      <point x="386" y="653" type="curve" smooth="yes"/>
      <point x="229" y="653"/>
      <point x="103" y="529"/>
    </contour>
    <contour>
      <point x="378" y="35" type="line"/>
      <point x="418" y="35" type="line"/>
      <point x="358" y="-63" type="line"/>
      <point x="370" y="-57"/>
      <point x="377" y="-53"/>
      <point x="392" y="-53" type="curve" smooth="yes"/>
      <point x="425" y="-53"/>
      <point x="464" y="-78"/>
      <point x="464" y="-127" type="curve" smooth="yes"/>
      <point x="464" y="-188"/>
      <point x="413" y="-221"/>
      <point x="358" y="-221" type="curve" smooth="yes"/>
      <point x="321" y="-221"/>
      <point x="296" y="-211"/>
      <point x="268" y="-183" type="curve"/>
      <point x="291" y="-157" type="line"/>
      <point x="314" y="-176"/>
      <point x="329" y="-185"/>
      <point x="358" y="-185" type="curve" smooth="yes"/>
      <point x="397" y="-185"/>
      <point x="426" y="-164"/>
      <point x="426" y="-127" type="curve" smooth="yes"/>
      <point x="426" y="-95"/>
      <point x="403" y="-80"/>
      <point x="371" y="-80" type="curve" smooth="yes"/>
      <point x="353" y="-80"/>
      <point x="326" y="-86"/>
      <point x="304" y="-101" type="curve"/>
    </contour>
  </outline>
</glyph>
<glyph name="Egrave" format="2">
  <advance width="534"/>
  <unicode hex="00C8"/>
  <outline>
    <contour>
      <point x="113" y="0" type="line"/>
      <point x="113" y="52" type="line"/>
      <point x="460" y="52" type="line"/>
      <point x="460" y="0" type="line"/>
    </contour>
    <contour>
      <point x="113" y="648" type="line"/>
      <point x="113" y="700" type="line"/>
      <point x="460" y="700" type="line"/>
      <point x="460" y="648" type="line"/>
    </contour>
    <contour>
      <point x="113" y="358" type="line"/>
      <point x="113" y="410" type="line"/>
      <point x="440" y="410" type="line"/>
      <point x="440" y="358" type="line"/>
    </contour>
    <contour>
      <point x="84" y="700" type="line"/>
      <point x="139" y="700" type="line"/>
      <point x="139" y="0" type="line"/>
      <point x="84" y="0" type="line"/>
    </contour>
    <contour>
      <point x="132" y="922" type="line"/>
      <point x="180" y="949" type="line"/>
      <point x="338" y="789" type="line"/>
      <point x="309" y="769" type="line"/>
    </contour>
  </outline>
</glyph>
<glyph name="Ecircumflex" format="2">
  <advance width="534"/>
  <unicode hex="00CA"/>
  <outline>
    <contour>
      <point x="113" y="0" type="line"/>
      <point x="113" y="52" type="line"/>
      <point x="460" y="52" type="line"/>
      <point x="460" y="0" type="line"/>
    </contour>
    <contour>
      <point x="113" y="648" type="line"/>
      <point x="113" y="700" type="line"/>
      <point x="460" y="700" type="line"/>
      <point x="460" y="648" type="line"/>
    </contour>
    <contour>
      <point x="113" y="358" type="line"/>
      <point x="113" y="410" type="line"/>
      <point x="440" y="410" type="line"/>
      <point x="440" y="358" type="line"/>
    </contour>
    <contour>
      <point x="84" y="700" type="line"/>
      <point x="139" y="700" type="line"/>
      <point x="139" y="0" type="line"/>
      <point x="84" y="0" type="line"/>
    </contour>
    <contour>
      <point x="278" y="880" type="line"/>
      <point x="151" y="769" type="line"/>
      <point x="118" y="796" type="line"/>
      <point x="278" y="936" type="line"/>
      <point x="438" y="796" type="line"/>
      <point x="405" y="769" type="line"/>
    </contour>
  </outline>
</glyph>
<glyph name="Edieresis" format="2">
  <advance width="534"/>
  <unicode hex="00CB"/>
  <outline>
    <contour>
      <point x="113" y="0" type="line"/>
      <point x="113" y="52" type="line"/>
      <point x="460" y="52" type="line"/>
      <point x="460" y="0" type="line"/>
    </contour>
    <contour>
      <point x="113" y="648" type="line"/>
      <point x="113" y="700" type="line"/>
      <point x="460" y="700" type="line"/>
      <point x="460" y="648" type="line"/>
    </contour>
    <contour>
      <point x="113" y="358" type="line"/>
      <point x="113" y="410" type="line"/>
      <point x="440" y="410" type="line"/>
      <point x="440" y="358" type="line"/>
    </contour>
    <contour>
      <point x="84" y="700" type="line"/>
      <point x="139" y="700" type="line"/>
      <point x="139" y="0" type="line"/>
      <point x="84" y="0" type="line"/>
    </contour>
    <contour>
      <point x="341" y="827" type="curve" smooth="yes"/>
      <point x="341" y="848"/>
      <point x="358" y="864"/>
      <point x="378" y="864" type="curve" smooth="yes"/>
      <point x="398" y="864"/>
      <point x="415" y="848"/>
      <point x="415" y="827" type="curve" smooth="yes"/>
      <point x="415" y="806"/>
      <point x="398" y="789"/>
      <point x="378" y="789" type="curve" smooth="yes"/>
      <point x="358" y="789"/>
      <point x="341" y="806"/>
    </contour>
    <contour>
      <point x="141" y="827" type="curve" smooth="yes"/>
      <point x="141" y="848"/>
      <point x="158" y="864"/>
      <point x="178" y="864" type="curve" smooth="yes"/>
      <point x="198" y="864"/>
      <point x="215" y="848"/>
      <point x="215" y="827" type="curve" smooth="yes"/>
      <point x="215" y="806"/>
      <point x="198" y="789"/>
      <point x="178" y="789" type="curve" smooth="yes"/>
      <point x="158" y="789"/>
      <point x="141" y="806"/>
    </contour>
  </outline>
</glyph>
<glyph name="Idieresis" format="2">
  <advance width="219"/>
  <unicode hex="00CF"/>
  <outline>
    <contour>
      <point x="82" y="700" type="line"/>
      <point x="137" y="700" type="line"/>
      <point x="137" y="0" type="line"/>
      <point x="82" y="0" type="line"/>
    </contour>
    <contour>
      <point x="160" y="815" type="curve" smooth="yes"/>
      <point x="160" y="836"/>
      <point x="177" y="852"/>
      <point x="197" y="852" type="curve" smooth="yes"/>
      <point x="217" y="852"/>
      <point x="235" y="836"/>
      <point x="235" y="815" type="curve" smooth="yes"/>
      <point x="235" y="794"/>
      <point x="217" y="777"/>
      <point x="197" y="777" type="curve" smooth="yes"/>
      <point x="177" y="777"/>
      <point x="160" y="794"/>
    </contour>
    <contour>
      <point x="-16" y="815" type="curve" smooth="yes"/>
      <point x="-16" y="836"/>
      <point x="1" y="852"/>
      <point x="21" y="852" type="curve" smooth="yes"/>
      <point x="41" y="852"/>
      <point x="59" y="836"/>
      <point x="59" y="815" type="curve" smooth="yes"/>
      <point x="59" y="794"/>
      <point x="41" y="777"/>
      <point x="21" y="777" type="curve" smooth="yes"/>
      <point x="1" y="777"/>
      <point x="-16" y="794"/>
    </contour>
  </outline>
</glyph>
<glyph name="Ntilde" format="2">
  <advance width="731"/>
  <unicode hex="00D1"/>
  <outline>
    <contour>
      <point x="600" y="700" type="line"/>
      <point x="655" y="700" type="line"/>
      <point x="655" y="-27" type="line"/>
      <point x="123" y="584" type="line"/>
      <point x="123" y="0" type="line"/>
      <point x="68" y="0" type="line"/>
      <point x="68" y="727" type="line"/>
      <point x="600" y="114" type="line"/>
    </contour>
    <contour>
      <point x="211" y="778" type="line"/>
      <point x="217" y="819"/>
      <point x="253" y="850"/>
      <point x="298" y="850" type="curve" smooth="yes"/>
      <point x="359" y="850"/>
      <point x="368" y="803"/>
      <point x="422" y="803" type="curve" smooth="yes"/>
      <point x="445" y="803"/>
      <point x="460" y="819"/>
      <point x="478" y="851" type="curve"/>
      <point x="509" y="824" type="line"/>
      <point x="493" y="787"/>
      <point x="461" y="759"/>
      <point x="419" y="759" type="curve" smooth="yes"/>
      <point x="364" y="759"/>
      <point x="343" y="806"/>
      <point x="298" y="806" type="curve" smooth="yes"/>
      <point x="257" y="806"/>
      <point x="246" y="774"/>
      <point x="246" y="755" type="curve"/>
    </contour>
  </outline>
</glyph>
<glyph name="Otilde" format="2">
  <advance width="783"/>
  <unicode hex="00D5"/>
  <outline>
    <contour>
      <point x="102" y="350" type="curve" smooth="yes"/>
      <point x="102" y="175"/>
      <point x="224" y="46"/>
      <point x="392" y="46" type="curve" smooth="yes"/>
      <point x="560" y="46"/>
      <point x="681" y="175"/>
      <point x="681" y="350" type="curve" smooth="yes"/>
      <point x="681" y="525"/>
      <point x="560" y="654"/>
      <point x="392" y="654" type="curve" smooth="yes"/>
      <point x="224" y="654"/>
      <point x="102" y="525"/>
    </contour>
    <contour>
      <point x="44" y="350" type="curve" smooth="yes"/>
      <point x="44" y="556"/>
      <point x="192" y="709"/>
      <point x="392" y="709" type="curve" smooth="yes"/>
      <point x="592" y="709"/>
      <point x="740" y="556"/>
      <point x="740" y="350" type="curve" smooth="yes"/>
      <point x="740" y="144"/>
      <point x="592" y="-9"/>
      <point x="392" y="-9" type="curve" smooth="yes"/>
      <point x="192" y="-9"/>
      <point x="44" y="144"/>
    </contour>
    <contour>
      <point x="243" y="800" type="line"/>
      <point x="249" y="841"/>
      <point x="285" y="872"/>
      <point x="330" y="872" type="curve" smooth="yes"/>
      <point x="391" y="872"/>
      <point x="400" y="825"/>
      <point x="454" y="825" type="curve" smooth="yes"/>
      <point x="477" y="825"/>
      <point x="492" y="841"/>
      <point x="510" y="873" type="curve"/>
      <point x="541" y="846" type="line"/>
      <point x="525" y="809"/>
      <point x="493" y="781"/>
      <point x="451" y="781" type="curve" smooth="yes"/>
      <point x="396" y="781"/>
      <point x="375" y="828"/>
      <point x="330" y="828" type="curve" smooth="yes"/>
      <point x="289" y="828"/>
      <point x="278" y="796"/>
      <point x="278" y="777" type="curve"/>
    </contour>
  </outline>
</glyph>
<glyph name="multiply" format="2">
  <advance width="588"/>
  <unicode hex="00D7"/>
  <outline>
    <contour>
      <point x="108" y="32" type="line"/>
      <point x="71" y="68" type="line"/>
      <point x="261" y="255" type="line"/>
      <point x="71" y="442" type="line"/>
      <point x="107" y="478" type="line"/>
      <point x="294" y="288" type="line"/>
      <point x="481" y="478" type="line"/>
      <point x="518" y="442" type="line"/>
      <point x="327" y="255" type="line"/>
      <point x="517" y="68" type="line"/>
      <point x="481" y="32" type="line"/>
      <point x="294" y="222" type="line"/>
    </contour>
  </outline>
</glyph>
<glyph name="Ugrave" format="2">
  <advance width="606"/>
  <unicode hex="00D9"/>
  <outline>
    <contour>
      <point x="79" y="700" type="line"/>
      <point x="134" y="700" type="line"/>
      <point x="134" y="226" type="line" smooth="yes"/>
      <point x="134" y="114"/>
      <point x="195" y="42"/>
      <point x="303" y="42" type="curve" smooth="yes"/>
      <point x="411" y="42"/>
      <point x="472" y="114"/>
      <point x="472" y="226" type="curve" smooth="yes"/>
      <point x="472" y="700" type="line"/>
      <point x="527" y="700" type="line"/>
      <point x="527" y="226" type="line" smooth="yes"/>
      <point x="527" y="87"/>
      <point x="444" y="-10"/>
      <point x="303" y="-10" type="curve" smooth="yes"/>
      <point x="162" y="-10"/>
      <point x="79" y="87"/>
      <point x="79" y="226" type="curve" smooth="yes"/>
    </contour>
    <contour>
      <point x="171" y="922" type="line"/>
      <point x="219" y="949" type="line"/>
      <point x="377" y="789" type="line"/>
      <point x="348" y="769" type="line"/>
    </contour>
  </outline>
</glyph>
<glyph name="germandbls" format="2">
  <advance width="551"/>
  <unicode hex="00DF"/>
  <outline>
    <contour>
      <point x="325" y="-11" type="curve" smooth="yes"/>
      <point x="265" y="-11"/>
      <point x="205" y="14"/>
      <point x="171" y="52" type="curve"/>
      <point x="203" y="90" type="line"/>
      <point x="234" y="59"/>
      <point x="284" y="38"/>
      <point x="329" y="38" type="curve" smooth="yes"/>
      <point x="407" y="38"/>
      <point x="462" y="103"/>
      <point x="462" y="183" type="curve" smooth="yes"/>
      <point x="462" y="328"/>
      <point x="277" y="307"/>
      <point x="277" y="411" type="curve" smooth="yes"/>
      <point x="277" y="493"/>
      <point x="398" y="528"/>
      <point x="398" y="636" type="curve" smooth="yes"/>
      <point x="398" y="708"/>
      <point x="339" y="746"/>
      <point x="271" y="746" type="curve" smooth="yes"/>
      <point x="187" y="746"/>
      <point x="127" y="688"/>
      <point x="127" y="585" type="curve" smooth="yes"/>
      <point x="128" y="-1" type="line"/>
      <point x="75" y="-1" type="line"/>
      <point x="75" y="595" type="line" smooth="yes"/>
      <point x="75" y="710"/>
      <point x="157" y="794"/>
      <point x="279" y="794" type="curve" smooth="yes"/>
      <point x="378" y="794"/>
      <point x="452" y="740"/>
      <point x="452" y="640" type="curve" smooth="yes"/>
      <point x="452" y="510"/>
      <point x="334" y="485"/>
      <point x="334" y="411" type="curve" smooth="yes"/>
      <point x="334" y="339"/>
      <point x="516" y="356"/>
      <point x="516" y="190" type="curve" smooth="yes"/>
      <point x="516" y="76"/>
      <point x="435" y="-11"/>
    </contour>
  </outline>
</glyph>
<glyph name="adieresis" format="2">
  <advance width="465"/>
  <unicode hex="00E4"/>
  <outline>
    <contour>
      <point x="87" y="135" type="curve" smooth="yes"/>
      <point x="87" y="66"/>
      <point x="136" y="37"/>
      <point x="202" y="37" type="curve" smooth="yes"/>
      <point x="286" y="37"/>
      <point x="349" y="86"/>
      <point x="349" y="172" type="curve"/>
      <point x="361" y="142" type="line"/>
      <point x="361" y="53"/>
      <point x="288" y="-10"/>
      <point x="190" y="-10" type="curve" smooth="yes"/>
      <point x="103" y="-10"/>
      <point x="34" y="37"/>
      <point x="34" y="129" type="curve" smooth="yes"/>
      <point x="34" y="232"/>
      <point x="121" y="284"/>
      <point x="224" y="284" type="curve" smooth="yes"/>
      <point x="308" y="284"/>
      <point x="353" y="246"/>
      <point x="370" y="229" type="curve"/>
      <point x="370" y="197" type="line"/>
      <point x="333" y="225"/>
      <point x="288" y="243"/>
      <point x="226" y="243" type="curve" smooth="yes"/>
      <point x="144" y="243"/>
      <point x="87" y="205"/>
    </contour>
    <contour>
      <point x="100" y="369" type="curve"/>
      <point x="74" y="409" type="line"/>
      <point x="108" y="436"/>
      <point x="163" y="470"/>
      <point x="242" y="470" type="curve" smooth="yes"/>
      <point x="341" y="470"/>
      <point x="401" y="415"/>
      <point x="401" y="326" type="curve" smooth="yes"/>
      <point x="401" y="0" type="line"/>
      <point x="349" y="0" type="line"/>
      <point x="349" y="326" type="line" smooth="yes"/>
      <point x="349" y="388"/>
      <point x="305" y="424"/>
      <point x="242" y="424" type="curve" smooth="yes"/>
      <point x="176" y="424"/>
      <point x="128" y="393"/>
    </contour>
    <contour>
      <point x="293" y="575" type="curve" smooth="yes"/>
      <point x="293" y="596"/>
      <point x="310" y="613"/>
      <point x="330" y="613" type="curve" smooth="yes"/>
      <point x="350" y="613"/>
      <point x="367" y="596"/>
      <point x="367" y="575" type="curve" smooth="yes"/>
      <point x="367" y="554"/>
      <point x="350" y="538"/>
      <point x="330" y="538" type="curve" smooth="yes"/>
      <point x="310" y="538"/>
      <point x="293" y="554"/>
    </contour>
    <contour>
      <point x="109" y="575" type="curve" smooth="yes"/>
      <point x="109" y="596"/>
      <point x="126" y="613"/>
      <point x="146" y="613" type="curve" smooth="yes"/>
      <point x="166" y="613"/>
      <point x="183" y="596"/>
      <point x="183" y="575" type="curve" smooth="yes"/>
      <point x="183" y="554"/>
      <point x="166" y="538"/>
      <point x="146" y="538" type="curve" smooth="yes"/>
      <point x="126" y="538"/>
      <point x="109" y="554"/>
    </contour>
  </outline>
</glyph>
<glyph name="ae" format="2">
  <advance width="825"/>
  <unicode hex="00E6"/>
  <outline>
    <contour>
      <point x="202" y="-10" type="curve" smooth="yes"/>
      <point x="101" y="-10"/>
      <point x="34" y="46"/>
      <point x="34" y="128" type="curve" smooth="yes"/>
      <point x="34" y="222"/>
      <point x="112" y="284"/>
      <point x="226" y="284" type="curve" smooth="yes"/>
      <point x="281" y="284"/>
      <point x="325" y="269"/>
      <point x="377" y="232" type="curve"/>
      <point x="349" y="231" type="line"/>
      <point x="349" y="308" type="line" smooth="yes"/>
      <point x="349" y="383"/>
      <point x="311" y="424"/>
      <point x="243" y="424" type="curve" smooth="yes"/>
      <point x="194" y="424"/>
      <point x="141" y="404"/>
      <point x="100" y="369" type="curve"/>
      <point x="74" y="409" type="line"/>
      <point x="122" y="448"/>
      <point x="182" y="470"/>
      <point x="244" y="470" type="curve" smooth="yes"/>
      <point x="335" y="470"/>
      <point x="385" y="421"/>
      <point x="388" y="326" type="curve"/>
      <point x="380" y="326" type="line"/>
      <point x="410" y="412"/>
      <point x="490" y="470"/>
      <point x="583" y="470" type="curve" smooth="yes"/>
      <point x="702" y="470"/>
      <point x="789" y="374"/>
      <point x="789" y="242" type="curve" smooth="yes"/>
      <point x="789" y="231"/>
      <point x="787" y="225"/>
      <point x="786" y="217" type="curve"/>
      <point x="387" y="217" type="line"/>
      <point x="402" y="229" type="line"/>
      <point x="402" y="111"/>
      <point x="466" y="39"/>
      <point x="569" y="39" type="curve" smooth="yes"/>
      <point x="640" y="39"/>
      <point x="700" y="72"/>
      <point x="739" y="134" type="curve"/>
      <point x="781" y="107" type="line"/>
      <point x="733" y="31"/>
      <point x="655" y="-10"/>
      <point x="563" y="-10" type="curve" smooth="yes"/>
      <point x="464" y="-10"/>
      <point x="402" y="39"/>
      <point x="372" y="137" type="curve"/>
      <point x="380" y="137" type="line"/>
      <point x="368" y="45"/>
      <point x="300" y="-10"/>
    </contour>
    <contour>
      <point x="202" y="37" type="curve" smooth="yes"/>
      <point x="294" y="37"/>
      <point x="345" y="90"/>
      <point x="356" y="194" type="curve"/>
      <point x="354" y="141" type="line"/>
      <point x="349" y="225" type="line"/>
      <point x="356" y="206" type="line"/>
      <point x="324" y="230"/>
      <point x="278" y="243"/>
      <point x="228" y="243" type="curve" smooth="yes"/>
      <point x="140" y="243"/>
      <point x="87" y="202"/>
      <point x="87" y="134" type="curve" smooth="yes"/>
      <point x="87" y="73"/>
      <point x="129" y="37"/>
    </contour>
    <contour>
      <point x="402" y="238" type="curve"/>
      <point x="387" y="262" type="line"/>
      <point x="748" y="262" type="line"/>
      <point x="731" y="244" type="line"/>
      <point x="733" y="248"/>
      <point x="733" y="252"/>
      <point x="733" y="260" type="curve" smooth="yes"/>
      <point x="733" y="356"/>
      <point x="667" y="424"/>
      <point x="574" y="424" type="curve" smooth="yes"/>
      <point x="474" y="424"/>
      <point x="402" y="346"/>
    </contour>
  </outline>
</glyph>
<glyph name="ccedilla" format="2">
  <advance width="482"/>
  <unicode hex="00E7"/>
  <outline>
    <contour>
      <point x="87" y="230" type="curve" smooth="yes"/>
      <point x="87" y="119"/>
      <point x="166" y="39"/>
      <point x="270" y="39" type="curve" smooth="yes"/>
      <point x="344" y="39"/>
      <point x="407" y="77"/>
      <point x="428" y="114" type="curve"/>
      <point x="428" y="49" type="line"/>
      <point x="400" y="16"/>
      <point x="337" y="-10"/>
      <point x="270" y="-10" type="curve" smooth="yes"/>
      <point x="136" y="-10"/>
      <point x="34" y="91"/>
      <point x="34" y="230" type="curve" smooth="yes"/>
      <point x="34" y="369"/>
      <point x="136" y="470"/>
      <point x="270" y="470" type="curve" smooth="yes"/>
      <point x="337" y="470"/>
      <point x="400" y="443"/>
      <point x="428" y="411" type="curve"/>
      <point x="428" y="346" type="line"/>
      <point x="407" y="383"/>
      <point x="344" y="421"/>
      <point x="270" y="421" type="curve" smooth="yes"/>
      <point x="166" y="421"/>
      <point x="87" y="341"/>
    </contour>
    <contour>
      <point x="262" y="34" type="line"/>
      <point x="302" y="34" type="line"/>
      <point x="242" y="-63" type="line"/>
      <point x="254" y="-57"/>
      <point x="261" y="-54"/>
      <point x="276" y="-54" type="curve" smooth="yes"/>
      <point x="309" y="-54"/>
      <point x="348" y="-79"/>
      <point x="348" y="-128" type="curve" smooth="yes"/>
      <point x="348" y="-189"/>
      <point x="297" y="-222"/>
      <point x="242" y="-222" type="curve" smooth="yes"/>
      <point x="205" y="-222"/>
      <point x="180" y="-212"/>
      <point x="152" y="-184" type="curve"/>
      <point x="175" y="-157" type="line"/>
      <point x="198" y="-176"/>
      <point x="213" y="-185"/>
      <point x="242" y="-185" type="curve" smooth="yes"/>
      <point x="281" y="-185"/>
      <point x="310" y="-165"/>
      <point x="310" y="-128" type="curve" smooth="yes"/>
      <point x="310" y="-96"/>
      <point x="287" y="-81"/>
      <point x="255" y="-81" type="curve" smooth="yes"/>
      <point x="237" y="-81"/>
      <point x="210" y="-87"/>
      <point x="188" y="-102" type="curve"/>
    </contour>
  </outline>
</glyph>
<glyph name="ecircumflex" format="2">
  <advance width="509"/>
  <unicode hex="00EA"/>
  <outline>
    <contour>
      <point x="72" y="217" type="line"/>
      <point x="72" y="262" type="line"/>
      <point x="414" y="262" type="line"/>
      <point x="413" y="356"/>
      <point x="350" y="424"/>
      <point x="260" y="424" type="curve" smooth="yes"/>
      <point x="171" y="424"/>
      <point x="93" y="358"/>
      <point x="93" y="249" type="curve"/>
      <point x="92" y="231" type="line"/>
      <point x="92" y="115"/>
      <point x="160" y="39"/>
      <point x="258" y="39" type="curve" smooth="yes"/>
      <point x="345" y="39"/>
      <point x="390" y="84"/>
      <point x="421" y="134" type="curve"/>
      <point x="463" y="107" type="line"/>
      <point x="423" y="46"/>
      <point x="373" y="-10"/>
      <point x="252" y="-10" type="curve" smooth="yes"/>
      <point x="131" y="-10"/>
      <point x="39" y="92"/>
      <point x="39" y="231" type="curve" smooth="yes"/>
      <point x="39" y="252"/>
      <point x="40" y="272"/>
      <point x="45" y="291" type="curve" smooth="yes"/>
      <point x="67" y="397"/>
      <point x="149" y="470"/>
      <point x="260" y="470" type="curve" smooth="yes"/>
      <point x="380" y="470"/>
      <point x="471" y="379"/>
      <point x="471" y="242" type="curve" smooth="yes"/>
      <point x="471" y="234"/>
      <point x="470" y="225"/>
      <point x="469" y="217" type="curve"/>
    </contour>
    <contour>
      <point x="260" y="641" type="line"/>
      <point x="133" y="530" type="line"/>
      <point x="100" y="557" type="line"/>
      <point x="260" y="697" type="line"/>
      <point x="420" y="557" type="line"/>
      <point x="387" y="530" type="line"/>
    </contour>
  </outline>
</glyph>
<glyph name="edieresis" format="2">
  <advance width="509"/>
  <unicode hex="00EB"/>
  <outline>
    <contour>
      <point x="72" y="217" type="line"/>
      <point x="72" y="262" type="line"/>
      <point x="414" y="262" type="line"/>
      <point x="413" y="356"/>
      <point x="350" y="424"/>
      <point x="260" y="424" type="curve" smooth="yes"/>
      <point x="171" y="424"/>
      <point x="93" y="358"/>
      <point x="93" y="249" type="curve"/>
      <point x="92" y="231" type="line"/>
      <point x="92" y="115"/>
      <point x="160" y="39"/>
      <point x="258" y="39" type="curve" smooth="yes"/>
      <point x="345" y="39"/>
      <point x="390" y="84"/>
      <point x="421" y="134" type="curve"/>
      <point x="463" y="107" type="line"/>
      <point x="423" y="46"/>
      <point x="373" y="-10"/>
      <point x="252" y="-10" type="curve" smooth="yes"/>
      <point x="131" y="-10"/>
      <point x="39" y="92"/>
      <point x="39" y="231" type="curve" smooth="yes"/>
      <point x="39" y="252"/>
      <point x="40" y="272"/>
      <point x="45" y="291" type="curve" smooth="yes"/>
      <point x="67" y="397"/>
      <point x="149" y="470"/>
      <point x="260" y="470" type="curve" smooth="yes"/>
      <point x="380" y="470"/>
      <point x="471" y="379"/>
      <point x="471" y="242" type="curve" smooth="yes"/>
      <point x="471" y="234"/>
      <point x="470" y="225"/>
      <point x="469" y="217" type="curve"/>
    </contour>
    <contour>
      <point x="322" y="567" type="curve" smooth="yes"/>
      <point x="322" y="588"/>
      <point x="340" y="605"/>
      <point x="360" y="605" type="curve" smooth="yes"/>
      <point x="380" y="605"/>
      <point x="397" y="588"/>
      <point x="397" y="567" type="curve" smooth="yes"/>
      <point x="397" y="546"/>
      <point x="380" y="530"/>
      <point x="360" y="530" type="curve" smooth="yes"/>
      <point x="340" y="530"/>
      <point x="322" y="546"/>
    </contour>
    <contour>
      <point x="122" y="567" type="curve" smooth="yes"/>
      <point x="122" y="588"/>
      <point x="140" y="605"/>
      <point x="160" y="605" type="curve" smooth="yes"/>
      <point x="180" y="605"/>
      <point x="197" y="588"/>
      <point x="197" y="567" type="curve" smooth="yes"/>
      <point x="197" y="546"/>
      <point x="180" y="530"/>
      <point x="160" y="530" type="curve" smooth="yes"/>
      <point x="140" y="530"/>
      <point x="122" y="546"/>
    </contour>
  </outline>
</glyph>
<glyph name="igrave" format="2">
  <advance width="232"/>
  <unicode hex="00EC"/>
  <outline>
    <contour>
      <point x="90" y="460" type="line"/>
      <point x="142" y="460" type="line"/>
      <point x="142" y="0" type="line"/>
      <point x="90" y="0" type="line"/>
    </contour>
    <contour>
      <point x="-42" y="695" type="line"/>
      <point x="6" y="722" type="line"/>
      <point x="164" y="562" type="line"/>
      <point x="135" y="542" type="line"/>
    </contour>
  </outline>
</glyph>
<glyph name="eth" format="2">
  <advance width="560"/>
  <unicode hex="00F0"/>
  <outline>
    <contour>
      <point x="280" y="-10" type="curve" smooth="yes"/>
      <point x="144" y="-10"/>
      <point x="50" y="87"/>
      <point x="50" y="226" type="curve" smooth="yes"/>
      <point x="50" y="353"/>
      <point x="139" y="449"/>
      <point x="257" y="449" type="curve" smooth="yes"/>
      <point x="323" y="449"/>
      <point x="387" y="424"/>
      <point x="444" y="374" type="curve"/>
      <point x="416" y="373" type="line"/>
      <point x="361" y="474"/>
      <point x="306" y="544"/>
      <point x="183" y="679" type="curve"/>
      <point x="215" y="715" type="line"/>
      <point x="439" y="455"/>
      <point x="510" y="346"/>
      <point x="510" y="226" type="curve" smooth="yes"/>
      <point x="510" y="87"/>
      <point x="416" y="-10"/>
    </contour>
    <contour>
      <point x="280" y="40" type="curve" smooth="yes"/>
      <point x="384" y="40"/>
      <point x="457" y="118"/>
      <point x="457" y="226" type="curve" smooth="yes"/>
      <point x="457" y="331"/>
      <point x="380" y="408"/>
      <point x="276" y="408" type="curve" smooth="yes"/>
      <point x="179" y="408"/>
      <point x="103" y="328"/>
      <point x="103" y="226" type="curve" smooth="yes"/>
      <point x="103" y="118"/>
      <point x="176" y="40"/>
    </contour>
    <contour>
      <point x="182" y="510" type="line"/>
      <point x="169" y="542" type="line"/>
      <point x="436" y="650" type="line"/>
      <point x="449" y="618" type="line"/>
    </contour>
  </outline>
</glyph>
<glyph name="ntilde" format="2">
  <advance width="505"/>
  <unicode hex="00F1"/>
  <outline>
    <contour>
      <point x="131" y="460" type="line"/>
      <point x="131" y="0" type="line"/>
      <point x="79" y="0" type="line"/>
      <point x="79" y="460" type="line"/>
    </contour>
    <contour>
      <point x="374" y="296" type="line" smooth="yes"/>
      <point x="374" y="374"/>
      <point x="341" y="421"/>
      <point x="266" y="421" type="curve" smooth="yes"/>
      <point x="188" y="421"/>
      <point x="131" y="358"/>
      <point x="131" y="280" type="curve"/>
      <point x="107" y="280" type="line"/>
      <point x="107" y="389"/>
      <point x="183" y="470"/>
      <point x="278" y="470" type="curve" smooth="yes"/>
      <point x="373" y="470"/>
      <point x="426" y="409"/>
      <point x="426" y="302" type="curve" smooth="yes"/>
      <point x="426" y="0" type="line"/>
      <point x="374" y="0" type="line"/>
    </contour>
    <contour>
      <point x="104" y="561" type="line"/>
      <point x="110" y="602"/>
      <point x="146" y="633"/>
      <point x="191" y="633" type="curve" smooth="yes"/>
      <point x="252" y="633"/>
      <point x="261" y="586"/>
      <point x="315" y="586" type="curve" smooth="yes"/>
      <point x="338" y="586"/>
      <point x="353" y="602"/>
      <point x="371" y="634" type="curve"/>
      <point x="402" y="607" type="line"/>
      <point x="386" y="570"/>
      <point x="354" y="542"/>
      <point x="312" y="542" type="curve" smooth="yes"/>
      <point x="257" y="542"/>
      <point x="236" y="589"/>
      <point x="191" y="589" type="curve" smooth="yes"/>
      <point x="150" y="589"/>
      <point x="139" y="557"/>
      <point x="139" y="538" type="curve"/>
    </contour>
  </outline>
</glyph>
<glyph name="otilde" format="2">
  <advance width="550"/>
  <unicode hex="00F5"/>
  <outline>
    <contour>
      <point x="39" y="230" type="curve" smooth="yes"/>
      <point x="39" y="369"/>
      <point x="141" y="470"/>
      <point x="275" y="470" type="curve" smooth="yes"/>
      <point x="409" y="470"/>
      <point x="511" y="369"/>
      <point x="511" y="230" type="curve" smooth="yes"/>
      <point x="511" y="91"/>
      <point x="409" y="-10"/>
      <point x="275" y="-10" type="curve" smooth="yes"/>
      <point x="141" y="-10"/>
      <point x="39" y="91"/>
    </contour>
    <contour>
      <point x="92" y="230" type="curve" smooth="yes"/>
      <point x="92" y="119"/>
      <point x="171" y="39"/>
      <point x="275" y="39" type="curve" smooth="yes"/>
      <point x="379" y="39"/>
      <point x="458" y="119"/>
      <point x="458" y="230" type="curve" smooth="yes"/>
      <point x="458" y="341"/>
      <point x="379" y="421"/>
      <point x="275" y="421" type="curve" smooth="yes"/>
      <point x="171" y="421"/>
      <point x="92" y="341"/>
    </contour>
    <contour>
      <point x="126" y="561" type="line"/>
      <point x="132" y="602"/>
      <point x="168" y="633"/>
      <point x="213" y="633" type="curve" smooth="yes"/>
      <point x="274" y="633"/>
      <point x="283" y="586"/>
      <point x="337" y="586" type="curve" smooth="yes"/>
      <point x="360" y="586"/>
      <point x="375" y="602"/>
      <point x="393" y="634" type="curve"/>
      <point x="424" y="607" type="line"/>
      <point x="408" y="570"/>
      <point x="376" y="542"/>
      <point x="334" y="542" type="curve" smooth="yes"/>
      <point x="279" y="542"/>
      <point x="258" y="589"/>
      <point x="213" y="589" type="curve" smooth="yes"/>
      <point x="172" y="589"/>
      <point x="161" y="557"/>
      <point x="161" y="538" type="curve"/>
    </contour>
  </outline>
</glyph>
<glyph name="oslash" format="2">
  <advance width="546"/>
  <unicode hex="00F8"/>
  <outline>
    <contour>
      <point x="39" y="230" type="curve" smooth="yes"/>
      <point x="39" y="369"/>
      <point x="141" y="470"/>
      <point x="275" y="470" type="curve" smooth="yes"/>
      <point x="409" y="470"/>
      <point x="511" y="369"/>
      <point x="511" y="230" type="curve" smooth="yes"/>
      <point x="511" y="91"/>
      <point x="409" y="-10"/>
      <point x="275" y="-10" type="curve" smooth="yes"/>
      <point x="141" y="-10"/>
      <point x="39" y="91"/>
    </contour>
    <contour>
      <point x="92" y="230" type="curve" smooth="yes"/>
      <point x="92" y="119"/>
      <point x="171" y="39"/>
      <point x="275" y="39" type="curve" smooth="yes"/>
      <point x="379" y="39"/>
      <point x="458" y="119"/>
      <point x="458" y="230" type="curve" smooth="yes"/>
      <point x="458" y="341"/>
      <point x="379" y="421"/>
      <point x="275" y="421" type="curve" smooth="yes"/>
      <point x="171" y="421"/>
      <point x="92" y="341"/>
    </contour>
    <contour>
      <point x="447" y="497" type="line"/>
      <point x="478" y="483" type="line"/>
      <point x="88" y="-41" type="line"/>
      <point x="57" y="-27" type="line"/>
    </contour>
  </outline>
</glyph>
<glyph name="udieresis" format="2">
  <advance width="505"/>
  <unicode hex="00FC"/>
  <outline>
    <contour>
      <point x="374" y="0" type="line"/>
      <point x="374" y="460" type="line"/>
      <point x="426" y="460" type="line"/>
      <point x="426" y="0" type="line"/>
    </contour>
    <contour>
      <point x="131" y="168" type="line" smooth="yes"/>
      <point x="131" y="86"/>
      <point x="164" y="39"/>
      <point x="239" y="39" type="curve" smooth="yes"/>
      <point x="317" y="39"/>
      <point x="374" y="102"/>
      <point x="374" y="180" type="curve"/>
      <point x="398" y="180" type="line"/>
      <point x="398" y="71"/>
      <point x="322" y="-10"/>
      <point x="227" y="-10" type="curve" smooth="yes"/>
      <point x="132" y="-10"/>
      <point x="79" y="51"/>
      <point x="79" y="162" type="curve" smooth="yes"/>
      <point x="79" y="460" type="line"/>
      <point x="131" y="460" type="line"/>
    </contour>
    <contour>
      <point x="307" y="587" type="curve" smooth="yes"/>
      <point x="307" y="608"/>
      <point x="324" y="625"/>
      <point x="344" y="625" type="curve" smooth="yes"/>
      <point x="364" y="625"/>
      <point x="382" y="608"/>
      <point x="382" y="587" type="curve" smooth="yes"/>
      <point x="382" y="566"/>
      <point x="364" y="550"/>
      <point x="344" y="550" type="curve" smooth="yes"/>
      <point x="324" y="550"/>
      <point x="307" y="566"/>
    </contour>
    <contour>
      <point x="123" y="587" type="curve" smooth="yes"/>
      <point x="123" y="608"/>
      <point x="140" y="625"/>
      <point x="160" y="625" type="curve" smooth="yes"/>
      <point x="180" y="625"/>
      <point x="198" y="608"/>
      <point x="198" y="587" type="curve" smooth="yes"/>
      <point x="198" y="566"/>
      <point x="180" y="550"/>
      <point x="160" y="550" type="curve" smooth="yes"/>
      <point x="140" y="550"/>
      <point x="123" y="566"/>
    </contour>
  </outline>
</glyph>
<glyph name="yacute" format="2">
  <advance width="434"/>
  <unicode hex="00FD"/>
  <outline>
    <contour>
      <point x="430" y="460" type="line"/>
      <point x="130" y="-220" type="line"/>
      <point x="72" y="-220" type="line"/>
      <point x="190" y="47" type="line"/>
      <point x="4" y="460" type="line"/>
      <point x="66" y="460" type="line"/>
      <point x="233" y="68" type="line"/>
      <point x="209" y="70" type="line"/>
      <point x="372" y="460" type="line"/>
    </contour>
    <contour>
      <point x="357" y="695" type="line"/>
      <point x="180" y="542" type="line"/>
      <point x="151" y="562" type="line"/>
      <point x="309" y="722" type="line"/>
    </contour>
  </outline>
</glyph>
<glyph name="Aogonek" format="2">
  <advance width="636"/>
  <unicode hex="0104"/>
  <outline>
    <contour>
      <point x="140" y="235" type="line"/>
      <point x="158" y="287" type="line"/>
      <point x="481" y="287" type="line"/>
      <point x="499" y="235" type="line"/>
    </contour>
    <contour>
      <point x="318" y="600" type="line"/>
      <point x="182" y="269" type="line"/>
      <point x="176" y="257" type="line"/>
      <point x="71" y="0" type="line"/>
      <point x="9" y="0" type="line"/>
      <point x="318" y="727" type="line"/>
      <point x="627" y="0" type="line"/>
      <point x="565" y="0" type="line"/>
      <point x="461" y="253" type="line"/>
      <point x="456" y="266" type="line"/>
    </contour>
    <contour>
      <point x="644" y="-147" type="curve"/>
      <point x="666" y="-180" type="line"/>
      <point x="651" y="-200"/>
      <point x="617" y="-220"/>
      <point x="574" y="-220" type="curve" smooth="yes"/>
      <point x="498" y="-220"/>
      <point x="459" y="-183"/>
      <point x="459" y="-128" type="curve" smooth="yes"/>
      <point x="459" y="-65"/>
      <point x="530" y="-17"/>
      <point x="600" y="19" type="curve"/>
      <point x="627" y="0" type="line"/>
      <point x="569" y="-26"/>
      <point x="511" y="-71"/>
      <point x="511" y="-116" type="curve" smooth="yes"/>
      <point x="511" y="-156"/>
      <point x="539" y="-174"/>
      <point x="577" y="-174" type="curve" smooth="yes"/>
      <point x="609" y="-174"/>
      <point x="630" y="-162"/>
    </contour>
  </outline>
</glyph>
<glyph name="cdotaccent" format="2">
  <advance width="482"/>
  <unicode hex="010B"/>
  <outline>
    <contour>
      <point x="87" y="230" type="curve" smooth="yes"/>
      <point x="87" y="119"/>
      <point x="166" y="39"/>
      <point x="270" y="39" type="curve" smooth="yes"/>
      <point x="344" y="39"/>
      <point x="407" y="77"/>
      <point x="428" y="114" type="curve"/>
      <point x="428" y="49" type="line"/>
      <point x="400" y="16"/>
      <point x="337" y="-10"/>
      <point x="270" y="-10" type="curve" smooth="yes"/>
      <point x="136" y="-10"/>
      <point x="34" y="91"/>
      <point x="34" y="230" type="curve" smooth="yes"/>
      <point x="34" y="369"/>
      <point x="136" y="470"/>
      <point x="270" y="470" type="curve" smooth="yes"/>
      <point x="337" y="470"/>
      <point x="400" y="443"/>
      <point x="428" y="411" type="curve"/>
      <point x="428" y="346" type="line"/>
      <point x="407" y="383"/>
      <point x="344" y="421"/>
      <point x="270" y="421" type="curve" smooth="yes"/>
      <point x="166" y="421"/>
      <point x="87" y="341"/>
    </contour>
    <contour>
      <point x="233" y="571" type="curve" smooth="yes"/>
      <point x="233" y="592"/>
      <point x="250" y="609"/>
      <point x="270" y="609" type="curve" smooth="yes"/>
      <point x="290" y="609"/>
      <point x="307" y="592"/>
      <point x="307" y="571" type="curve" smooth="yes"/>
      <point x="307" y="550"/>
      <point x="290" y="534"/>
      <point x="270" y="534" type="curve" smooth="yes"/>
      <point x="250" y="534"/>
      <point x="233" y="550"/>
    </contour>
  </outline>
</glyph>
<glyph name="Emacron" format="2">
  <advance width="534"/>
  <unicode hex="0112"/>
  <outline>
    <contour>
      <point x="113" y="0" type="line"/>
      <point x="113" y="52" type="line"/>
      <point x="460" y="52" type="line"/>
      <point x="460" y="0" type="line"/>
    </contour>
    <contour>
      <point x="113" y="648" type="line"/>
      <point x="113" y="700" type="line"/>
      <point x="460" y="700" type="line"/>
      <point x="460" y="648" type="line"/>
    </contour>
    <contour>
      <point x="113" y="358" type="line"/>
      <point x="113" y="410" type="line"/>
      <point x="440" y="410" type="line"/>
      <point x="440" y="358" type="line"/>
    </contour>
    <contour>
      <point x="84" y="700" type="line"/>
      <point x="139" y="700" type="line"/>
      <point x="139" y="0" type="line"/>
      <point x="84" y="0" type="line"/>
    </contour>
    <contour>
      <point x="105" y="796" type="line"/>
      <point x="105" y="845" type="line"/>
      <point x="455" y="845" type="line"/>
      <point x="455" y="796" type="line"/>
    </contour>
  </outline>
</glyph>
<glyph name="Ebreve" format="2">
  <advance width="534"/>
  <unicode hex="0114"/>
  <outline>
    <contour>
      <point x="113" y="0" type="line"/>
      <point x="113" y="52" type="line"/>
      <point x="460" y="52" type="line"/>
      <point x="460" y="0" type="line"/>
    </contour>
    <contour>
      <point x="113" y="648" type="line"/>
      <point x="113" y="700" type="line"/>
      <point x="460" y="700" type="line"/>
      <point x="460" y="648" type="line"/>
    </contour>
    <contour>
      <point x="113" y="358" type="line"/>
      <point x="113" y="410" type="line"/>
      <point x="440" y="410" type="line"/>
      <point x="440" y="358" type="line"/>
    </contour>
    <contour>
      <point x="84" y="700" type="line"/>
      <point x="139" y="700" type="line"/>
      <point x="139" y="0" type="line"/>
      <point x="84" y="0" type="line"/>
    </contour>
    <contour>
      <point x="118" y="909" type="curve"/>
      <point x="165" y="909" type="line"/>
      <point x="165" y="867"/>
      <point x="197" y="812"/>
      <point x="276" y="812" type="curve" smooth="yes"/>
      <point x="355" y="812"/>
      <point x="387" y="867"/>
      <point x="387" y="909" type="curve"/>
      <point x="434" y="909" type="line"/>
      <point x="434" y="840"/>
      <point x="381" y="769"/>
      <point x="276" y="769" type="curve" smooth="yes"/>
      <point x="171" y="769"/>
      <point x="118" y="840"/>
    </contour>
  </outline>
</glyph>
<glyph name="Eogonek" format="2">
  <advance width="534"/>
  <unicode hex="0118"/>
  <outline>
    <contour>
      <point x="113" y="0" type="line"/>
      <point x="113" y="52" type="line"/>
      <point x="460" y="52" type="line"/>
      <point x="460" y="0" type="line"/>
    </contour>
    <contour>
      <point x="113" y="648" type="line"/>
      <point x="113" y="700" type="line"/>
      <point x="460" y="700" type="line"/>
      <point x="460" y="648" type="line"/>
    </contour>
    <contour>
      <point x="113" y="358" type="line"/>
      <point x="113" y="410" type="line"/>
      <point x="440" y="410" type="line"/>
      <point x="440" y="358" type="line"/>
    </contour>
    <contour>
      <point x="84" y="700" type="line"/>
      <point x="139" y="700" type="line"/>
      <point x="139" y="0" type="line"/>
      <point x="84" y="0" type="line"/>
    </contour>
    <contour>
      <point x="405" y="-147" type="curve"/>
      <point x="427" y="-180" type="line"/>
      <point x="412" y="-200"/>
      <point x="378" y="-220"/>
      <point x="335" y="-220" type="curve" smooth="yes"/>
      <point x="259" y="-220"/>
      <point x="220" y="-183"/>
      <point x="220" y="-128" type="curve" smooth="yes"/>
      <point x="220" y="-65"/>
      <point x="291" y="-17"/>
      <point x="361" y="19" type="curve"/>
      <point x="388" y="0" type="line"/>
      <point x="330" y="-26"/>
      <point x="272" y="-71"/>
      <point x="272" y="-116" type="curve" smooth="yes"/>
      <point x="272" y="-156"/>
      <point x="300" y="-174"/>
      <point x="338" y="-174" type="curve" smooth="yes"/>
      <point x="370" y="-174"/>
      <point x="391" y="-162"/>
    </contour>
  </outline>
</glyph>
<glyph name="eogonek" format="2">
  <advance width="509"/>
  <unicode hex="0119"/>
  <outline>
    <contour>
      <point x="72" y="217" type="line"/>
      <point x="72" y="262" type="line"/>
      <point x="414" y="262" type="line"/>
      <point x="413" y="356"/>
      <point x="350" y="424"/>
      <point x="260" y="424" type="curve" smooth="yes"/>
      <point x="171" y="424"/>
      <point x="93" y="358"/>
      <point x="93" y="249" type="curve"/>
      <point x="92" y="231" type="line"/>
      <point x="92" y="115"/>
      <point x="160" y="39"/>
      <point x="258" y="39" type="curve" smooth="yes"/>
      <point x="345" y="39"/>
      <point x="390" y="84"/>
      <point x="421" y="134" type="curve"/>
      <point x="463" y="107" type="line"/>
      <point x="423" y="46"/>
      <point x="373" y="-10"/>
      <point x="252" y="-10" type="curve" smooth="yes"/>
      <point x="131" y="-10"/>
      <point x="39" y="92"/>
      <point x="39" y="231" type="curve" smooth="yes"/>
      <point x="39" y="252"/>
      <point x="40" y="272"/>
      <point x="45" y="291" type="curve" smooth="yes"/>
      <point x="67" y="397"/>
      <point x="149" y="470"/>
      <point x="260" y="470" type="curve" smooth="yes"/>
      <point x="380" y="470"/>
      <point x="471" y="379"/>
      <point x="471" y="242" type="curve" smooth="yes"/>
      <point x="471" y="234"/>
      <point x="470" y="225"/>
      <point x="469" y="217" type="curve"/>
    </contour>
    <contour>
      <point x="295" y="-147" type="curve"/>
      <point x="317" y="-180" type="line"/>
      <point x="302" y="-200"/>
      <point x="268" y="-220"/>
      <point x="225" y="-220" type="curve" smooth="yes"/>
      <point x="149" y="-220"/>
      <point x="110" y="-183"/>
      <point x="110" y="-128" type="curve" smooth="yes"/>
      <point x="110" y="-65"/>
      <point x="180" y="-22"/>
      <point x="250" y="14" type="curve"/>
      <point x="278" y="-5" type="line"/>
      <point x="220" y="-31"/>
      <point x="162" y="-69"/>
      <point x="162" y="-116" type="curve" smooth="yes"/>
      <point x="162" y="-156"/>
      <point x="190" y="-174"/>
      <point x="228" y="-174" type="curve" smooth="yes"/>
      <point x="260" y="-174"/>
      <point x="281" y="-162"/>
    </contour>
  </outline>
</glyph>
<glyph name="Gbreve" format="2">
  <advance width="771"/>
  <unicode hex="011E"/>
  <outline>
    <contour>
      <point x="411" y="297" type="line"/>
      <point x="411" y="349" type="line"/>
      <point x="722" y="349" type="line"/>
      <point x="722" y="159"/>
      <point x="599" y="-9"/>
      <point x="393" y="-9" type="curve" smooth="yes"/>
      <point x="193" y="-9"/>
      <point x="44" y="141"/>
      <point x="44" y="350" type="curve" smooth="yes"/>
      <point x="44" y="559"/>
      <point x="193" y="709"/>
      <point x="393" y="709" type="curve" smooth="yes"/>
      <point x="522" y="709"/>
      <point x="619" y="652"/>
      <point x="679" y="559" type="curve"/>
      <point x="639" y="524" type="line"/>
      <point x="593" y="602"/>
      <point x="506" y="654"/>
      <point x="393" y="654" type="curve" smooth="yes"/>
      <point x="228" y="654"/>
      <point x="102" y="529"/>
      <point x="102" y="350" type="curve" smooth="yes"/>
      <point x="102" y="172"/>
      <point x="227" y="46"/>
      <point x="393" y="46" type="curve" smooth="yes"/>
      <point x="550" y="46"/>
      <point x="647" y="162"/>
      <point x="662" y="297" type="curve"/>
    </contour>
    <contour>
      <point x="235" y="909" type="curve"/>
      <point x="282" y="909" type="line"/>
      <point x="282" y="867"/>
      <point x="314" y="812"/>
      <point x="393" y="812" type="curve" smooth="yes"/>
      <point x="472" y="812"/>
      <point x="504" y="867"/>
      <point x="504" y="909" type="curve"/>
      <point x="551" y="909" type="line"/>
      <point x="551" y="840"/>
      <point x="498" y="769"/>
      <point x="393" y="769" type="curve" smooth="yes"/>
      <point x="288" y="769"/>
      <point x="235" y="840"/>
    </contour>
  </outline>
</glyph>
<glyph name="Gdotaccent" format="2">
  <advance width="771"/>
  <unicode hex="0120"/>
  <outline>
    <contour>
      <point x="411" y="297" type="line"/>
      <point x="411" y="349" type="line"/>
      <point x="722" y="349" type="line"/>
      <point x="722" y="159"/>
      <point x="599" y="-9"/>
      <point x="393" y="-9" type="curve" smooth="yes"/>
      <point x="193" y="-9"/>
      <point x="44" y="141"/>
      <point x="44" y="350" type="curve" smooth="yes"/>
      <point x="44" y="559"/>
      <point x="193" y="709"/>
      <point x="393" y="709" type="curve" smooth="yes"/>
      <point x="522" y="709"/>
      <point x="619" y="652"/>
      <point x="679" y="559" type="curve"/>
      <point x="639" y="524" type="line"/>
      <point x="593" y="602"/>
      <point x="506" y="654"/>
      <point x="393" y="654" type="curve" smooth="yes"/>
      <point x="228" y="654"/>
      <point x="102" y="529"/>
      <point x="102" y="350" type="curve" smooth="yes"/>
      <point x="102" y="172"/>
      <point x="227" y="46"/>
      <point x="393" y="46" type="curve" smooth="yes"/>
      <point x="550" y="46"/>
      <point x="647" y="162"/>
      <point x="662" y="297" type="curve"/>
    </contour>
    <contour>
      <point x="356" y="807" type="curve" smooth="yes"/>
      <point x="356" y="828"/>
      <point x="373" y="844"/>
      <point x="393" y="844" type="curve" smooth="yes"/>
      <point x="413" y="844"/>
      <point x="430" y="828"/>
      <point x="430" y="807" type="curve" smooth="yes"/>
      <point x="430" y="786"/>
      <point x="413" y="769"/>
      <point x="393" y="769" type="curve" smooth="yes"/>
      <point x="373" y="769"/>
      <point x="356" y="786"/>
    </contour>
  </outline>
</glyph>
<glyph name="uni0122" format="2">
  <advance width="771"/>
  <unicode hex="0122"/>
  <outline>
    <contour>
      <point x="411" y="297" type="line"/>
      <point x="411" y="349" type="line"/>
      <point x="722" y="349" type="line"/>
      <point x="722" y="159"/>
      <point x="599" y="-9"/>
      <point x="393" y="-9" type="curve" smooth="yes"/>
      <point x="193" y="-9"/>
      <point x="44" y="141"/>
      <point x="44" y="350" type="curve" smooth="yes"/>
      <point x="44" y="559"/>
      <point x="193" y="709"/>
      <point x="393" y="709" type="curve" smooth="yes"/>
      <point x="522" y="709"/>
      <point x="619" y="652"/>
      <point x="679" y="559" type="curve"/>
      <point x="639" y="524" type="line"/>
      <point x="593" y="602"/>
      <point x="506" y="654"/>
      <point x="393" y="654" type="curve" smooth="yes"/>
      <point x="228" y="654"/>
      <point x="102" y="529"/>
      <point x="102" y="350" type="curve" smooth="yes"/>
      <point x="102" y="172"/>
      <point x="227" y="46"/>
      <point x="393" y="46" type="curve" smooth="yes"/>
      <point x="550" y="46"/>
      <point x="647" y="162"/>
      <point x="662" y="297" type="curve"/>
    </contour>
    <contour>
      <point x="414" y="-69" type="line"/>
      <point x="467" y="-89" type="line"/>
      <point x="357" y="-339" type="line"/>
      <point x="319" y="-326" type="line"/>
    </contour>
  </outline>
</glyph>
<glyph name="itilde" format="2">
  <advance width="232"/>
  <unicode hex="0129"/>
  <outline>
    <contour>
      <point x="90" y="460" type="line"/>
      <point x="142" y="460" type="line"/>
      <point x="142" y="0" type="line"/>
      <point x="90" y="0" type="line"/>
    </contour>
    <contour>
      <point x="-28" y="577" type="line"/>
      <point x="-22" y="618"/>
      <point x="14" y="649"/>
      <point x="59" y="649" type="curve" smooth="yes"/>
      <point x="120" y="649"/>
      <point x="129" y="602"/>
      <point x="183" y="602" type="curve" smooth="yes"/>
      <point x="206" y="602"/>
      <point x="221" y="618"/>
      <point x="239" y="650" type="curve"/>
      <point x="270" y="623" type="line"/>
      <point x="254" y="586"/>
      <point x="222" y="558"/>
      <point x="180" y="558" type="curve" smooth="yes"/>
      <point x="125" y="558"/>
      <point x="104" y="605"/>
      <point x="59" y="605" type="curve" smooth="yes"/>
      <point x="18" y="605"/>
      <point x="7" y="573"/>
      <point x="7" y="554" type="curve"/>
    </contour>
  </outline>
</glyph>
<glyph name="ibreve" format="2">
  <advance width="232"/>
  <unicode hex="012D"/>
  <outline>
    <contour>
      <point x="90" y="460" type="line"/>
      <point x="142" y="460" type="line"/>
      <point x="142" y="0" type="line"/>
      <point x="90" y="0" type="line"/>
    </contour>
    <contour>
      <point x="-42" y="670" type="curve"/>
      <point x="5" y="670" type="line"/>
      <point x="5" y="628"/>
      <point x="37" y="573"/>
      <point x="116" y="573" type="curve" smooth="yes"/>
      <point x="195" y="573"/>
      <point x="227" y="628"/>
      <point x="227" y="670" type="curve"/>
      <point x="274" y="670" type="line"/>
      <point x="274" y="601"/>
      <point x="221" y="530"/>
      <point x="116" y="530" type="curve" smooth="yes"/>
      <point x="11" y="530"/>
      <point x="-42" y="601"/>
    </contour>
  </outline>
</glyph>
<glyph name="Iogonek" format="2">
  <advance width="219"/>
  <unicode hex="012E"/>
  <outline>
    <contour>
      <point x="82" y="700" type="line"/>
      <point x="137" y="700" type="line"/>
      <point x="137" y="0" type="line"/>
      <point x="82" y="0" type="line"/>
    </contour>
    <contour>
      <point x="154" y="-147" type="curve"/>
      <point x="176" y="-180" type="line"/>
      <point x="161" y="-200"/>
      <point x="127" y="-220"/>
      <point x="84" y="-220" type="curve" smooth="yes"/>
      <point x="8" y="-220"/>
      <point x="-31" y="-183"/>
      <point x="-31" y="-128" type="curve" smooth="yes"/>
      <point x="-31" y="-65"/>
      <point x="40" y="-17"/>
      <point x="110" y="19" type="curve"/>
      <point x="137" y="0" type="line"/>
      <point x="79" y="-26"/>
      <point x="21" y="-71"/>
      <point x="21" y="-116" type="curve" smooth="yes"/>
      <point x="21" y="-156"/>
      <point x="49" y="-174"/>
      <point x="87" y="-174" type="curve" smooth="yes"/>
      <point x="119" y="-174"/>
      <point x="140" y="-162"/>
    </contour>
  </outline>
</glyph>
<glyph name="iogonek" format="2">
  <advance width="232"/>
  <unicode hex="012F"/>
  <outline>
    <contour>
      <point x="79" y="668" type="curve" smooth="yes"/>
      <point x="79" y="688"/>
      <point x="95" y="705"/>
      <point x="116" y="705" type="curve" smooth="yes"/>
      <point x="137" y="705"/>
      <point x="153" y="688"/>
      <point x="153" y="668" type="curve" smooth="yes"/>
      <point x="153" y="648"/>
      <point x="137" y="631"/>
      <point x="116" y="631" type="curve" smooth="yes"/>
      <point x="95" y="631"/>
      <point x="79" y="648"/>
    </contour>
    <contour>
      <point x="90" y="460" type="line"/>
      <point x="142" y="460" type="line"/>
      <point x="142" y="0" type="line"/>
      <point x="90" y="0" type="line"/>
    </contour>
    <contour>
      <point x="159" y="-147" type="curve"/>
      <point x="181" y="-180" type="line"/>
      <point x="166" y="-200"/>
      <point x="132" y="-220"/>
      <point x="89" y="-220" type="curve" smooth="yes"/>
      <point x="13" y="-220"/>
      <point x="-26" y="-183"/>
      <point x="-26" y="-128" type="curve" smooth="yes"/>
      <point x="-26" y="-65"/>
      <point x="45" y="-17"/>
      <point x="115" y="19" type="curve"/>
      <point x="142" y="0" type="line"/>
      <point x="84" y="-26"/>
      <point x="26" y="-71"/>
      <point x="26" y="-116" type="curve" smooth="yes"/>
      <point x="26" y="-156"/>
      <point x="54" y="-174"/>
      <point x="92" y="-174" type="curve" smooth="yes"/>
      <point x="124" y="-174"/>
      <point x="145" y="-162"/>
    </contour>
  </outline>
</glyph>
<glyph name="Idotaccent" format="2">
  <advance width="219"/>
  <unicode hex="0130"/>
  <outline>
    <contour>
      <point x="82" y="700" type="line"/>
      <point x="137" y="700" type="line"/>
      <point x="137" y="0" type="line"/>
      <point x="82" y="0" type="line"/>
    </contour>
    <contour>
      <point x="72" y="809" type="curve" smooth="yes"/>
      <point x="72" y="830"/>
      <point x="89" y="847"/>
      <point x="109" y="847" type="curve" smooth="yes"/>
      <point x="129" y="847"/>
      <point x="147" y="830"/>
      <point x="147" y="809" type="curve" smooth="yes"/>
      <point x="147" y="788"/>
      <point x="129" y="772"/>
      <point x="109" y="772" type="curve" smooth="yes"/>
      <point x="89" y="772"/>
      <point x="72" y="788"/>
    </contour>
  </outline>
</glyph>
<glyph name="IJ" format="2">
  <advance width="490"/>
  <unicode hex="0132"/>
  <outline>
    <contour>
      <point x="159" y="-126" type="line"/>
      <point x="177" y="-149"/>
      <point x="210" y="-168"/>
      <point x="250" y="-168" type="curve" smooth="yes"/>
      <point x="304" y="-168"/>
      <point x="336" y="-136"/>
      <point x="336" y="-50" type="curve" smooth="yes"/>
      <point x="336" y="700" type="line"/>
      <point x="389" y="700" type="line"/>
      <point x="389" y="-60" type="line" smooth="yes"/>
      <point x="389" y="-169"/>
      <point x="342" y="-220"/>
      <point x="248" y="-220" type="curve" smooth="yes"/>
      <point x="195" y="-220"/>
      <point x="145" y="-188"/>
      <point x="130" y="-168" type="curve"/>
    </contour>
    <contour>
      <point x="82" y="700" type="line"/>
      <point x="137" y="700" type="line"/>
      <point x="137" y="0" type="line"/>
      <point x="82" y="0" type="line"/>
    </contour>
  </outline>
</glyph>
<glyph name="ij" format="2">
  <advance width="510"/>
  <unicode hex="0133"/>
  <outline>
    <contour>
      <point x="329" y="668" type="curve" smooth="yes"/>
      <point x="329" y="688"/>
      <point x="345" y="705"/>
      <point x="366" y="705" type="curve" smooth="yes"/>
      <point x="387" y="705"/>
      <point x="403" y="688"/>
      <point x="403" y="668" type="curve" smooth="yes"/>
      <point x="403" y="648"/>
      <point x="387" y="631"/>
      <point x="366" y="631" type="curve" smooth="yes"/>
      <point x="345" y="631"/>
      <point x="329" y="648"/>
    </contour>
    <contour>
      <point x="211" y="-134" type="line"/>
      <point x="226" y="-156"/>
      <point x="248" y="-168"/>
      <point x="272" y="-168" type="curve" smooth="yes"/>
      <point x="322" y="-168"/>
      <point x="340" y="-125"/>
      <point x="340" y="-63" type="curve" smooth="yes"/>
      <point x="340" y="460" type="line"/>
      <point x="392" y="460" type="line"/>
      <point x="392" y="-69" type="line" smooth="yes"/>
      <point x="392" y="-162"/>
      <point x="353" y="-220"/>
      <point x="269" y="-220" type="curve" smooth="yes"/>
      <point x="226" y="-220"/>
      <point x="197" y="-197"/>
      <point x="182" y="-177" type="curve"/>
    </contour>
    <contour>
      <point x="79" y="668" type="curve" smooth="yes"/>
      <point x="79" y="688"/>
      <point x="95" y="705"/>
      <point x="116" y="705" type="curve" smooth="yes"/>
      <point x="137" y="705"/>
      <point x="153" y="688"/>
      <point x="153" y="668" type="curve" smooth="yes"/>
      <point x="153" y="648"/>
      <point x="137" y="631"/>
      <point x="116" y="631" type="curve" smooth="yes"/>
      <point x="95" y="631"/>
      <point x="79" y="648"/>
    </contour>
    <contour>
      <point x="90" y="460" type="line"/>
      <point x="142" y="460" type="line"/>
      <point x="142" y="0" type="line"/>
      <point x="90" y="0" type="line"/>
    </contour>
  </outline>
</glyph>
<glyph name="Jcircumflex" format="2">
  <advance width="222"/>
  <unicode hex="0134"/>
  <outline>
    <contour>
      <point x="-91" y="-126" type="line"/>
      <point x="-73" y="-149"/>
      <point x="-40" y="-168"/>
      <point x="0" y="-168" type="curve" smooth="yes"/>
      <point x="54" y="-168"/>
      <point x="86" y="-136"/>
      <point x="86" y="-50" type="curve" smooth="yes"/>
      <point x="86" y="700" type="line"/>
      <point x="139" y="700" type="line"/>
      <point x="139" y="-60" type="line" smooth="yes"/>
      <point x="139" y="-169"/>
      <point x="92" y="-220"/>
      <point x="-2" y="-220" type="curve" smooth="yes"/>
      <point x="-55" y="-220"/>
      <point x="-105" y="-188"/>
      <point x="-120" y="-168" type="curve"/>
    </contour>
    <contour>
      <point x="113" y="880" type="line"/>
      <point x="-15" y="769" type="line"/>
      <point x="-47" y="796" type="line"/>
      <point x="113" y="936" type="line"/>
      <point x="273" y="796" type="line"/>
      <point x="240" y="769" type="line"/>
    </contour>
  </outline>
</glyph>
<glyph name="jcircumflex" format="2">
  <advance width="222"/>
  <unicode hex="0135"/>
  <outline>
    <contour>
      <point x="-49" y="-134" type="line"/>
      <point x="-34" y="-156"/>
      <point x="-12" y="-168"/>
      <point x="12" y="-168" type="curve" smooth="yes"/>
      <point x="62" y="-168"/>
      <point x="80" y="-125"/>
      <point x="80" y="-63" type="curve" smooth="yes"/>
      <point x="80" y="460" type="line"/>
      <point x="132" y="460" type="line"/>
      <point x="132" y="-69" type="line" smooth="yes"/>
      <point x="132" y="-162"/>
      <point x="93" y="-220"/>
      <point x="9" y="-220" type="curve" smooth="yes"/>
      <point x="-34" y="-220"/>
      <point x="-63" y="-197"/>
      <point x="-78" y="-177" type="curve"/>
    </contour>
    <contour>
      <point x="106" y="641" type="line"/>
      <point x="-21" y="530" type="line"/>
      <point x="-54" y="557" type="line"/>
      <point x="106" y="697" type="line"/>
      <point x="266" y="557" type="line"/>
      <point x="233" y="530" type="line"/>
    </contour>
  </outline>
</glyph>
<glyph name="uni0136" format="2">
  <advance width="520"/>
  <unicode hex="0136"/>
  <outline>
    <contour>
      <point x="82" y="700" type="line"/>
      <point x="137" y="700" type="line"/>
      <point x="137" y="0" type="line"/>
      <point x="82" y="0" type="line"/>
    </contour>
    <contour>
      <point x="427" y="700" type="line"/>
      <point x="497" y="700" type="line"/>
      <point x="189" y="372" type="line"/>
      <point x="512" y="0" type="line"/>
      <point x="442" y="0" type="line"/>
      <point x="121" y="371" type="line"/>
    </contour>
    <contour>
      <point x="318" y="-60" type="line"/>
      <point x="370" y="-80" type="line"/>
      <point x="260" y="-330" type="line"/>
      <point x="223" y="-317" type="line"/>
    </contour>
  </outline>
</glyph>
<glyph name="uni0137" format="2">
  <advance width="412"/>
  <unicode hex="0137"/>
  <outline>
    <contour>
      <point x="74" y="780" type="line"/>
      <point x="126" y="780" type="line"/>
      <point x="126" y="0" type="line"/>
      <point x="74" y="0" type="line"/>
    </contour>
    <contour>
      <point x="323" y="460" type="line"/>
      <point x="390" y="460" type="line"/>
      <point x="173" y="270" type="line"/>
      <point x="409" y="0" type="line"/>
      <point x="343" y="0" type="line"/>
      <point x="107" y="270" type="line"/>
    </contour>
    <contour>
      <point x="263" y="-60" type="line"/>
      <point x="315" y="-80" type="line"/>
      <point x="205" y="-330" type="line"/>
      <point x="168" y="-317" type="line"/>
    </contour>
  </outline>
</glyph>
<glyph name="lacute" format="2">
  <advance width="210"/>
  <unicode hex="013A"/>
  <outline>
    <contour>
      <point x="79" y="780" type="line"/>
      <point x="131" y="780" type="line"/>
      <point x="131" y="0" type="line"/>
      <point x="79" y="0" type="line"/>
    </contour>
    <contour>
      <point x="253" y="993" type="line"/>
      <point x="76" y="840" type="line"/>
      <point x="47" y="860" type="line"/>
      <point x="205" y="1020" type="line"/>
    </contour>
  </outline>
</glyph>
<glyph name="uni013B" format="2">
  <advance width="442"/>
  <unicode hex="013B"/>
  <outline>
    <contour>
      <point x="84" y="700" type="line"/>
      <point x="139" y="700" type="line"/>
      <point x="139" y="52" type="line"/>
      <point x="428" y="52" type="line"/>
      <point x="428" y="0" type="line"/>
      <point x="84" y="0" type="line"/>
    </contour>
    <contour>
      <point x="261" y="-60" type="line"/>
      <point x="314" y="-80" type="line"/>
      <point x="204" y="-330" type="line"/>
      <point x="166" y="-317" type="line"/>
    </contour>
  </outline>
</glyph>
<glyph name="Lcaron" format="2">
  <advance width="442"/>
  <unicode hex="013D"/>
  <outline>
    <contour>
      <point x="84" y="700" type="line"/>
      <point x="139" y="700" type="line"/>
      <point x="139" y="52" type="line"/>
      <point x="428" y="52" type="line"/>
      <point x="428" y="0" type="line"/>
      <point x="84" y="0" type="line"/>
    </contour>
    <contour>
      <point x="335" y="709" type="line"/>
      <point x="387" y="689" type="line"/>
      <point x="277" y="439" type="line"/>
      <point x="240" y="453" type="line"/>
    </contour>
  </outline>
</glyph>
<glyph name="lcaron" format="2">
  <advance width="230"/>
  <unicode hex="013E"/>
  <outline>
    <contour>
      <point x="79" y="780" type="line"/>
      <point x="131" y="780" type="line"/>
      <point x="131" y="0" type="line"/>
      <point x="79" y="0" type="line"/>
    </contour>
    <contour>
      <point x="304" y="774" type="line"/>
      <point x="356" y="754" type="line"/>
      <point x="246" y="504" type="line"/>
      <point x="209" y="517" type="line"/>
    </contour>
  </outline>
</glyph>
<glyph name="Ldot" format="2">
  <advance width="442"/>
  <unicode hex="013F"/>
  <outline>
    <contour>
      <point x="84" y="700" type="line"/>
      <point x="139" y="700" type="line"/>
      <point x="139" y="52" type="line"/>
      <point x="428" y="52" type="line"/>
      <point x="428" y="0" type="line"/>
      <point x="84" y="0" type="line"/>
    </contour>
    <contour>
      <point x="261" y="415" type="curve" smooth="yes"/>
      <point x="261" y="436"/>
      <point x="278" y="452"/>
      <point x="298" y="452" type="curve" smooth="yes"/>
      <point x="318" y="452"/>
      <point x="335" y="436"/>
      <point x="335" y="415" type="curve" smooth="yes"/>
      <point x="335" y="394"/>
      <point x="318" y="377"/>
      <point x="298" y="377" type="curve" smooth="yes"/>
      <point x="278" y="377"/>
      <point x="261" y="394"/>
    </contour>
  </outline>
</glyph>
<glyph name="Nacute" format="2">
  <advance width="731"/>
  <unicode hex="0143"/>
  <outline>
    <contour>
      <point x="600" y="700" type="line"/>
      <point x="655" y="700" type="line"/>
      <point x="655" y="-27" type="line"/>
      <point x="123" y="584" type="line"/>
      <point x="123" y="0" type="line"/>
      <point x="68" y="0" type="line"/>
      <point x="68" y="727" type="line"/>
      <point x="600" y="114" type="line"/>
    </contour>
    <contour>
      <point x="526" y="908" type="line"/>
      <point x="349" y="755" type="line"/>
      <point x="320" y="775" type="line"/>
      <point x="478" y="935" type="line"/>
    </contour>
  </outline>
</glyph>
<glyph name="Ncaron" format="2">
  <advance width="731"/>
  <unicode hex="0147"/>
  <outline>
    <contour>
      <point x="376" y="839" type="line"/>
      <point x="503" y="950" type="line"/>
      <point x="536" y="923" type="line"/>
      <point x="376" y="783" type="line"/>
      <point x="216" y="923" type="line"/>
      <point x="249" y="950" type="line"/>
    </contour>
    <contour>
      <point x="600" y="700" type="line"/>
      <point x="655" y="700" type="line"/>
      <point x="655" y="-27" type="line"/>
      <point x="123" y="584" type="line"/>
      <point x="123" y="0" type="line"/>
      <point x="68" y="0" type="line"/>
      <point x="68" y="727" type="line"/>
      <point x="600" y="114" type="line"/>
    </contour>
  </outline>
</glyph>
<glyph name="napostrophe" format="2">
  <advance width="627"/>
  <unicode hex="0149"/>
  <outline>
    <contour>
      <point x="233" y="460" type="line"/>
      <point x="233" y="0" type="line"/>
      <point x="181" y="0" type="line"/>
      <point x="181" y="460" type="line"/>
    </contour>
    <contour>
      <point x="476" y="296" type="line" smooth="yes"/>
      <point x="476" y="374"/>
      <point x="443" y="421"/>
      <point x="368" y="421" type="curve" smooth="yes"/>
      <point x="290" y="421"/>
      <point x="233" y="358"/>
      <point x="233" y="280" type="curve"/>
      <point x="209" y="280" type="line"/>
      <point x="209" y="389"/>
      <point x="285" y="470"/>
      <point x="380" y="470" type="curve" smooth="yes"/>
      <point x="475" y="470"/>
      <point x="528" y="409"/>
      <point x="528" y="302" type="curve" smooth="yes"/>
      <point x="528" y="0" type="line"/>
      <point x="476" y="0" type="line"/>
    </contour>
    <contour>
      <point x="147" y="700" type="line"/>
      <point x="209" y="700" type="line"/>
      <point x="111" y="470" type="line"/>
      <point x="74" y="470" type="line"/>
    </contour>
  </outline>
</glyph>
<glyph name="Eng" format="2">
  <advance width="755"/>
  <unicode hex="014A"/>
  <outline>
    <contour>
      <point x="548" y="-220" type="curve" smooth="yes"/>
      <point x="507" y="-220"/>
      <point x="479" y="-201"/>
      <point x="461" y="-177" type="curve"/>
      <point x="490" y="-134" type="line"/>
      <point x="502" y="-152"/>
      <point x="524" y="-168"/>
      <point x="551" y="-168" type="curve" smooth="yes"/>
      <point x="603" y="-168"/>
      <point x="619" y="-124"/>
      <point x="619" y="-63" type="curve" smooth="yes"/>
      <point x="619" y="29" type="line"/>
      <point x="139" y="584" type="line"/>
      <point x="139" y="0" type="line"/>
      <point x="84" y="0" type="line"/>
      <point x="84" y="727" type="line"/>
      <point x="616" y="114" type="line"/>
      <point x="616" y="700" type="line"/>
      <point x="671" y="700" type="line"/>
      <point x="671" y="-69" type="line" smooth="yes"/>
      <point x="671" y="-157"/>
      <point x="632" y="-220"/>
    </contour>
  </outline>
</glyph>
<glyph name="eng" format="2">
  <advance width="505"/>
  <unicode hex="014B"/>
  <outline>
    <contour>
      <point x="303" y="-220" type="curve" smooth="yes"/>
      <point x="269" y="-220"/>
      <point x="236" y="-204"/>
      <point x="216" y="-177" type="curve"/>
      <point x="245" y="-134" type="line"/>
      <point x="261" y="-157"/>
      <point x="282" y="-168"/>
      <point x="306" y="-168" type="curve" smooth="yes"/>
      <point x="350" y="-168"/>
      <point x="374" y="-132"/>
      <point x="374" y="-63" type="curve" smooth="yes"/>
      <point x="374" y="296" type="line" smooth="yes"/>
      <point x="374" y="378"/>
      <point x="337" y="421"/>
      <point x="266" y="421" type="curve" smooth="yes"/>
      <point x="190" y="421"/>
      <point x="131" y="360"/>
      <point x="131" y="280" type="curve" smooth="yes"/>
      <point x="131" y="0" type="line"/>
      <point x="79" y="0" type="line"/>
      <point x="79" y="460" type="line"/>
      <point x="131" y="460" type="line"/>
      <point x="131" y="364" type="line"/>
      <point x="156" y="429"/>
      <point x="212" y="470"/>
      <point x="278" y="470" type="curve" smooth="yes"/>
      <point x="373" y="470"/>
      <point x="426" y="410"/>
      <point x="426" y="302" type="curve" smooth="yes"/>
      <point x="426" y="-69" type="line" smooth="yes"/>
      <point x="426" y="-167"/>
      <point x="383" y="-220"/>
    </contour>
  </outline>
</glyph>
<glyph name="Obreve" format="2">
  <advance width="783"/>
  <unicode hex="014E"/>
  <outline>
    <contour>
      <point x="102" y="350" type="curve" smooth="yes"/>
      <point x="102" y="175"/>
      <point x="224" y="46"/>
      <point x="392" y="46" type="curve" smooth="yes"/>
      <point x="560" y="46"/>
      <point x="681" y="175"/>
      <point x="681" y="350" type="curve" smooth="yes"/>
      <point x="681" y="525"/>
      <point x="560" y="654"/>
      <point x="392" y="654" type="curve" smooth="yes"/>
      <point x="224" y="654"/>
      <point x="102" y="525"/>
    </contour>
    <contour>
      <point x="44" y="350" type="curve" smooth="yes"/>
      <point x="44" y="556"/>
      <point x="192" y="709"/>
      <point x="392" y="709" type="curve" smooth="yes"/>
      <point x="592" y="709"/>
      <point x="740" y="556"/>
      <point x="740" y="350" type="curve" smooth="yes"/>
      <point x="740" y="144"/>
      <point x="592" y="-9"/>
      <point x="392" y="-9" type="curve" smooth="yes"/>
      <point x="192" y="-9"/>
      <point x="44" y="144"/>
    </contour>
    <contour>
      <point x="234" y="909" type="curve"/>
      <point x="280" y="909" type="line"/>
      <point x="280" y="867"/>
      <point x="313" y="812"/>
      <point x="392" y="812" type="curve" smooth="yes"/>
      <point x="471" y="812"/>
      <point x="503" y="867"/>
      <point x="503" y="909" type="curve"/>
      <point x="550" y="909" type="line"/>
      <point x="550" y="840"/>
      <point x="497" y="769"/>
      <point x="392" y="769" type="curve" smooth="yes"/>
      <point x="287" y="769"/>
      <point x="234" y="840"/>
    </contour>
  </outline>
</glyph>
<glyph name="Racute" format="2">
  <advance width="523"/>
  <unicode hex="0154"/>
  <outline>
    <contour>
      <point x="203" y="334" type="line"/>
      <point x="264" y="334" type="line"/>
      <point x="503" y="0" type="line"/>
      <point x="435" y="0" type="line"/>
    </contour>
    <contour>
      <point x="84" y="700" type="line"/>
      <point x="139" y="700" type="line"/>
      <point x="139" y="0" type="line"/>
      <point x="84" y="0" type="line"/>
    </contour>
    <contour>
      <point x="113" y="651" type="line"/>
      <point x="113" y="700" type="line"/>
      <point x="244" y="700" type="line" smooth="yes"/>
      <point x="379" y="700"/>
      <point x="481" y="626"/>
      <point x="481" y="497" type="curve" smooth="yes"/>
      <point x="481" y="368"/>
      <point x="379" y="294"/>
      <point x="244" y="294" type="curve" smooth="yes"/>
      <point x="113" y="294" type="line"/>
      <point x="113" y="343" type="line"/>
      <point x="244" y="343" type="line" smooth="yes"/>
      <point x="351" y="343"/>
      <point x="426" y="396"/>
      <point x="426" y="497" type="curve" smooth="yes"/>
      <point x="426" y="598"/>
      <point x="350" y="651"/>
      <point x="244" y="651" type="curve" smooth="yes"/>
    </contour>
    <contour>
      <point x="388" y="922" type="line"/>
      <point x="211" y="769" type="line"/>
      <point x="182" y="789" type="line"/>
      <point x="340" y="949" type="line"/>
    </contour>
  </outline>
</glyph>
<glyph name="racute" format="2">
  <advance width="321"/>
  <unicode hex="0155"/>
  <outline>
    <contour>
      <point x="131" y="460" type="line"/>
      <point x="131" y="0" type="line"/>
      <point x="79" y="0" type="line"/>
      <point x="79" y="460" type="line"/>
    </contour>
    <contour>
      <point x="284" y="399" type="line"/>
      <point x="264" y="413"/>
      <point x="248" y="421"/>
      <point x="224" y="421" type="curve" smooth="yes"/>
      <point x="156" y="421"/>
      <point x="131" y="358"/>
      <point x="131" y="280" type="curve"/>
      <point x="107" y="280" type="line"/>
      <point x="107" y="389"/>
      <point x="163" y="470"/>
      <point x="236" y="470" type="curve" smooth="yes"/>
      <point x="265" y="470"/>
      <point x="292" y="462"/>
      <point x="313" y="442" type="curve"/>
    </contour>
    <contour>
      <point x="328" y="683" type="line"/>
      <point x="150" y="530" type="line"/>
      <point x="122" y="550" type="line"/>
      <point x="280" y="710" type="line"/>
    </contour>
  </outline>
</glyph>
<glyph name="Rcaron" format="2">
  <advance width="523"/>
  <unicode hex="0158"/>
  <outline>
    <contour>
      <point x="203" y="334" type="line"/>
      <point x="264" y="334" type="line"/>
      <point x="503" y="0" type="line"/>
      <point x="435" y="0" type="line"/>
    </contour>
    <contour>
      <point x="84" y="700" type="line"/>
      <point x="139" y="700" type="line"/>
      <point x="139" y="0" type="line"/>
      <point x="84" y="0" type="line"/>
    </contour>
    <contour>
      <point x="113" y="651" type="line"/>
      <point x="113" y="700" type="line"/>
      <point x="244" y="700" type="line" smooth="yes"/>
      <point x="379" y="700"/>
      <point x="481" y="626"/>
      <point x="481" y="497" type="curve" smooth="yes"/>
      <point x="481" y="368"/>
      <point x="379" y="294"/>
      <point x="244" y="294" type="curve" smooth="yes"/>
      <point x="113" y="294" type="line"/>
      <point x="113" y="343" type="line"/>
      <point x="244" y="343" type="line" smooth="yes"/>
      <point x="351" y="343"/>
      <point x="426" y="396"/>
      <point x="426" y="497" type="curve" smooth="yes"/>
      <point x="426" y="598"/>
      <point x="350" y="651"/>
      <point x="244" y="651" type="curve" smooth="yes"/>
    </contour>
    <contour>
      <point x="244" y="825" type="line"/>
      <point x="371" y="936" type="line"/>
      <point x="404" y="909" type="line"/>
      <point x="244" y="769" type="line"/>
      <point x="84" y="909" type="line"/>
      <point x="117" y="936" type="line"/>
    </contour>
  </outline>
</glyph>
<glyph name="scircumflex" format="2">
  <advance width="403"/>
  <unicode hex="015D"/>
  <outline>
    <contour>
      <point x="75" y="155" type="line"/>
      <point x="88" y="93"/>
      <point x="132" y="39"/>
      <point x="205" y="39" type="curve" smooth="yes"/>
      <point x="264" y="39"/>
      <point x="303" y="68"/>
      <point x="303" y="121" type="curve" smooth="yes"/>
      <point x="303" y="177"/>
      <point x="249" y="200"/>
      <point x="190" y="221" type="curve" smooth="yes"/>
      <point x="123" y="244"/>
      <point x="59" y="272"/>
      <point x="59" y="353" type="curve" smooth="yes"/>
      <point x="59" y="427"/>
      <point x="128" y="469"/>
      <point x="201" y="469" type="curve" smooth="yes"/>
      <point x="277" y="469"/>
      <point x="336" y="426"/>
      <point x="354" y="375" type="curve"/>
      <point x="311" y="349" type="line"/>
      <point x="291" y="387"/>
      <point x="252" y="420"/>
      <point x="201" y="420" type="curve" smooth="yes"/>
      <point x="151" y="420"/>
      <point x="111" y="398"/>
      <point x="111" y="350" type="curve" smooth="yes"/>
      <point x="111" y="296"/>
      <point x="170" y="277"/>
      <point x="229" y="256" type="curve" smooth="yes"/>
      <point x="294" y="232"/>
      <point x="357" y="194"/>
      <point x="357" y="125" type="curve" smooth="yes"/>
      <point x="357" y="34"/>
      <point x="293" y="-10"/>
      <point x="202" y="-10" type="curve" smooth="yes"/>
      <point x="109" y="-10"/>
      <point x="45" y="56"/>
      <point x="31" y="131" type="curve"/>
    </contour>
    <contour>
      <point x="201" y="641" type="line"/>
      <point x="73" y="530" type="line"/>
      <point x="41" y="557" type="line"/>
      <point x="201" y="697" type="line"/>
      <point x="361" y="557" type="line"/>
      <point x="328" y="530" type="line"/>
    </contour>
  </outline>
</glyph>
<glyph name="Scedilla" format="2">
  <advance width="524"/>
  <unicode hex="015E"/>
  <outline>
    <contour>
      <point x="87" y="214" type="line"/>
      <point x="123" y="121"/>
      <point x="178" y="43"/>
      <point x="279" y="43" type="curve" smooth="yes"/>
      <point x="379" y="43"/>
      <point x="422" y="99"/>
      <point x="422" y="180" type="curve" smooth="yes"/>
      <point x="422" y="275"/>
      <point x="335" y="317"/>
      <point x="257" y="346" type="curve" smooth="yes"/>
      <point x="183" y="373"/>
      <point x="77" y="417"/>
      <point x="77" y="538" type="curve" smooth="yes"/>
      <point x="77" y="640"/>
      <point x="156" y="709"/>
      <point x="268" y="709" type="curve" smooth="yes"/>
      <point x="381" y="709"/>
      <point x="443" y="633"/>
      <point x="472" y="556" type="curve"/>
      <point x="427" y="528" type="line"/>
      <point x="401" y="590"/>
      <point x="352" y="656"/>
      <point x="263" y="656" type="curve" smooth="yes"/>
      <point x="185" y="656"/>
      <point x="135" y="608"/>
      <point x="135" y="537" type="curve" smooth="yes"/>
      <point x="135" y="456"/>
      <point x="220" y="417"/>
      <point x="305" y="385" type="curve" smooth="yes"/>
      <point x="382" y="357"/>
      <point x="479" y="303"/>
      <point x="479" y="184" type="curve" smooth="yes"/>
      <point x="479" y="73"/>
      <point x="409" y="-9"/>
      <point x="276" y="-9" type="curve" smooth="yes"/>
      <point x="157" y="-9"/>
      <point x="78" y="79"/>
      <point x="40" y="187" type="curve"/>
    </contour>
    <contour>
      <point x="280" y="35" type="line"/>
      <point x="320" y="35" type="line"/>
      <point x="260" y="-63" type="line"/>
      <point x="272" y="-57"/>
      <point x="279" y="-53"/>
      <point x="294" y="-53" type="curve" smooth="yes"/>
      <point x="327" y="-53"/>
      <point x="366" y="-78"/>
      <point x="366" y="-127" type="curve" smooth="yes"/>
      <point x="366" y="-188"/>
      <point x="315" y="-221"/>
      <point x="260" y="-221" type="curve" smooth="yes"/>
      <point x="223" y="-221"/>
      <point x="198" y="-211"/>
      <point x="170" y="-183" type="curve"/>
      <point x="193" y="-157" type="line"/>
      <point x="216" y="-176"/>
      <point x="231" y="-185"/>
      <point x="260" y="-185" type="curve" smooth="yes"/>
      <point x="299" y="-185"/>
      <point x="328" y="-164"/>
      <point x="328" y="-127" type="curve" smooth="yes"/>
      <point x="328" y="-95"/>
      <point x="305" y="-80"/>
      <point x="273" y="-80" type="curve" smooth="yes"/>
      <point x="255" y="-80"/>
      <point x="228" y="-86"/>
      <point x="206" y="-101" type="curve"/>
    </contour>
  </outline>
</glyph>
<glyph name="scedilla" format="2">
  <advance width="403"/>
  <unicode hex="015F"/>
  <outline>
    <contour>
      <point x="73" y="157" type="line"/>
      <point x="98" y="95"/>
      <point x="143" y="40"/>
      <point x="208" y="40" type="curve" smooth="yes"/>
      <point x="263" y="40"/>
      <point x="303" y="68"/>
      <point x="303" y="120" type="curve" smooth="yes"/>
      <point x="303" y="175"/>
      <point x="249" y="199"/>
      <point x="190" y="220" type="curve" smooth="yes"/>
      <point x="123" y="243"/>
      <point x="59" y="265"/>
      <point x="59" y="352" type="curve" smooth="yes"/>
      <point x="59" y="432"/>
      <point x="128" y="470"/>
      <point x="201" y="470" type="curve" smooth="yes"/>
      <point x="277" y="470"/>
      <point x="330" y="427"/>
      <point x="354" y="376" type="curve"/>
      <point x="311" y="350" type="line"/>
      <point x="291" y="388"/>
      <point x="252" y="422"/>
      <point x="201" y="422" type="curve" smooth="yes"/>
      <point x="151" y="422"/>
      <point x="110" y="402"/>
      <point x="110" y="354" type="curve" smooth="yes"/>
      <point x="110" y="295"/>
      <point x="170" y="280"/>
      <point x="229" y="259" type="curve" smooth="yes"/>
      <point x="294" y="235"/>
      <point x="357" y="200"/>
      <point x="357" y="125" type="curve" smooth="yes"/>
      <point x="357" y="34"/>
      <point x="293" y="-9"/>
      <point x="208" y="-9" type="curve" smooth="yes"/>
      <point x="115" y="-9"/>
      <point x="57" y="57"/>
      <point x="31" y="132" type="curve"/>
    </contour>
    <contour>
      <point x="211" y="35" type="line"/>
      <point x="253" y="35" type="line"/>
      <point x="192" y="-63" type="line"/>
      <point x="204" y="-57"/>
      <point x="210" y="-53"/>
      <point x="225" y="-53" type="curve" smooth="yes"/>
      <point x="258" y="-53"/>
      <point x="299" y="-78"/>
      <point x="299" y="-127" type="curve" smooth="yes"/>
      <point x="299" y="-188"/>
      <point x="246" y="-221"/>
      <point x="191" y="-221" type="curve" smooth="yes"/>
      <point x="154" y="-221"/>
      <point x="131" y="-211"/>
      <point x="103" y="-183" type="curve"/>
      <point x="125" y="-157" type="line"/>
      <point x="148" y="-176"/>
      <point x="162" y="-185"/>
      <point x="191" y="-185" type="curve" smooth="yes"/>
      <point x="230" y="-185"/>
      <point x="260" y="-164"/>
      <point x="260" y="-127" type="curve" smooth="yes"/>
      <point x="260" y="-95"/>
      <point x="237" y="-80"/>
      <point x="205" y="-80" type="curve" smooth="yes"/>
      <point x="187" y="-80"/>
      <point x="161" y="-86"/>
      <point x="139" y="-101" type="curve"/>
    </contour>
  </outline>
</glyph>
<glyph name="Tcaron" format="2">
  <advance width="451"/>
  <unicode hex="0164"/>
  <outline>
    <contour>
      <point x="14" y="648" type="line"/>
      <point x="14" y="700" type="line"/>
      <point x="437" y="700" type="line"/>
      <point x="437" y="648" type="line"/>
      <point x="253" y="648" type="line"/>
      <point x="253" y="0" type="line"/>
      <point x="198" y="0" type="line"/>
      <point x="198" y="648" type="line"/>
    </contour>
    <contour>
      <point x="226" y="825" type="line"/>
      <point x="352" y="936" type="line"/>
      <point x="386" y="909" type="line"/>
      <point x="226" y="769" type="line"/>
      <point x="66" y="909" type="line"/>
      <point x="99" y="936" type="line"/>
    </contour>
  </outline>
</glyph>
<glyph name="tcaron" format="2">
  <advance width="322"/>
  <unicode hex="0165"/>
  <outline>
    <contour>
      <point x="9" y="460" type="line"/>
      <point x="211" y="460" type="line"/>
      <point x="211" y="411" type="line"/>
      <point x="9" y="411" type="line"/>
    </contour>
    <contour>
      <point x="84" y="620" type="line"/>
      <point x="136" y="620" type="line"/>
      <point x="136" y="0" type="line"/>
      <point x="84" y="0" type="line"/>
    </contour>
    <contour>
      <point x="287" y="796" type="line"/>
      <point x="339" y="776" type="line"/>
      <point x="229" y="526" type="line"/>
      <point x="192" y="539" type="line"/>
    </contour>
  </outline>
</glyph>
<glyph name="Utilde" format="2">
  <advance width="606"/>
  <unicode hex="0168"/>
  <outline>
    <contour>
      <point x="79" y="700" type="line"/>
      <point x="134" y="700" type="line"/>
      <point x="134" y="226" type="line" smooth="yes"/>
      <point x="134" y="114"/>
      <point x="195" y="42"/>
      <point x="303" y="42" type="curve" smooth="yes"/>
      <point x="411" y="42"/>
      <point x="472" y="114"/>
      <point x="472" y="226" type="curve" smooth="yes"/>
      <point x="472" y="700" type="line"/>
      <point x="527" y="700" type="line"/>
      <point x="527" y="226" type="line" smooth="yes"/>
      <point x="527" y="87"/>
      <point x="444" y="-10"/>
      <point x="303" y="-10" type="curve" smooth="yes"/>
      <point x="162" y="-10"/>
      <point x="79" y="87"/>
      <point x="79" y="226" type="curve" smooth="yes"/>
    </contour>
    <contour>
      <point x="154" y="792" type="line"/>
      <point x="160" y="833"/>
      <point x="196" y="864"/>
      <point x="241" y="864" type="curve" smooth="yes"/>
      <point x="302" y="864"/>
      <point x="311" y="817"/>
      <point x="365" y="817" type="curve" smooth="yes"/>
      <point x="388" y="817"/>
      <point x="403" y="833"/>
      <point x="421" y="865" type="curve"/>
      <point x="452" y="838" type="line"/>
      <point x="436" y="801"/>
      <point x="404" y="773"/>
      <point x="362" y="773" type="curve" smooth="yes"/>
      <point x="307" y="773"/>
      <point x="286" y="820"/>
      <point x="241" y="820" type="curve" smooth="yes"/>
      <point x="200" y="820"/>
      <point x="189" y="788"/>
      <point x="189" y="769" type="curve"/>
    </contour>
  </outline>
</glyph>
<glyph name="utilde" format="2">
  <advance width="505"/>
  <unicode hex="0169"/>
  <outline>
    <contour>
      <point x="374" y="0" type="line"/>
      <point x="374" y="460" type="line"/>
      <point x="426" y="460" type="line"/>
      <point x="426" y="0" type="line"/>
    </contour>
    <contour>
      <point x="131" y="168" type="line" smooth="yes"/>
      <point x="131" y="86"/>
      <point x="164" y="39"/>
      <point x="239" y="39" type="curve" smooth="yes"/>
      <point x="317" y="39"/>
      <point x="374" y="102"/>
      <point x="374" y="180" type="curve"/>
      <point x="392" y="180" type="line"/>
      <point x="392" y="71"/>
      <point x="322" y="-10"/>
      <point x="227" y="-10" type="curve" smooth="yes"/>
      <point x="132" y="-10"/>
      <point x="79" y="51"/>
      <point x="79" y="162" type="curve" smooth="yes"/>
      <point x="79" y="460" type="line"/>
      <point x="131" y="460" type="line"/>
    </contour>
    <contour>
      <point x="103" y="553" type="line"/>
      <point x="109" y="594"/>
      <point x="145" y="625"/>
      <point x="190" y="625" type="curve" smooth="yes"/>
      <point x="251" y="625"/>
      <point x="260" y="578"/>
      <point x="314" y="578" type="curve" smooth="yes"/>
      <point x="337" y="578"/>
      <point x="352" y="594"/>
      <point x="370" y="626" type="curve"/>
      <point x="402" y="599" type="line"/>
      <point x="386" y="562"/>
      <point x="354" y="534"/>
      <point x="312" y="534" type="curve" smooth="yes"/>
      <point x="257" y="534"/>
      <point x="236" y="581"/>
      <point x="191" y="581" type="curve" smooth="yes"/>
      <point x="150" y="581"/>
      <point x="139" y="549"/>
      <point x="139" y="530" type="curve"/>
    </contour>
  </outline>
</glyph>
<glyph name="Umacron" format="2">
  <advance width="606"/>
  <unicode hex="016A"/>
  <outline>
    <contour>
      <point x="79" y="700" type="line"/>
      <point x="134" y="700" type="line"/>
      <point x="134" y="226" type="line" smooth="yes"/>
      <point x="134" y="114"/>
      <point x="195" y="42"/>
      <point x="303" y="42" type="curve" smooth="yes"/>
      <point x="411" y="42"/>
      <point x="472" y="114"/>
      <point x="472" y="226" type="curve" smooth="yes"/>
      <point x="472" y="700" type="line"/>
      <point x="527" y="700" type="line"/>
      <point x="527" y="226" type="line" smooth="yes"/>
      <point x="527" y="87"/>
      <point x="444" y="-10"/>
      <point x="303" y="-10" type="curve" smooth="yes"/>
      <point x="162" y="-10"/>
      <point x="79" y="87"/>
      <point x="79" y="226" type="curve" smooth="yes"/>
    </contour>
    <contour>
      <point x="128" y="769" type="line"/>
      <point x="128" y="818" type="line"/>
      <point x="478" y="818" type="line"/>
      <point x="478" y="769" type="line"/>
    </contour>
  </outline>
</glyph>
<glyph name="Ubreve" format="2">
  <advance width="606"/>
  <unicode hex="016C"/>
  <outline>
    <contour>
      <point x="79" y="700" type="line"/>
      <point x="134" y="700" type="line"/>
      <point x="134" y="226" type="line" smooth="yes"/>
      <point x="134" y="114"/>
      <point x="195" y="42"/>
      <point x="303" y="42" type="curve" smooth="yes"/>
      <point x="411" y="42"/>
      <point x="472" y="114"/>
      <point x="472" y="226" type="curve" smooth="yes"/>
      <point x="472" y="700" type="line"/>
      <point x="527" y="700" type="line"/>
      <point x="527" y="226" type="line" smooth="yes"/>
      <point x="527" y="87"/>
      <point x="444" y="-10"/>
      <point x="303" y="-10" type="curve" smooth="yes"/>
      <point x="162" y="-10"/>
      <point x="79" y="87"/>
      <point x="79" y="226" type="curve" smooth="yes"/>
    </contour>
    <contour>
      <point x="145" y="909" type="curve"/>
      <point x="192" y="909" type="line"/>
      <point x="192" y="867"/>
      <point x="224" y="812"/>
      <point x="303" y="812" type="curve" smooth="yes"/>
      <point x="382" y="812"/>
      <point x="414" y="867"/>
      <point x="414" y="909" type="curve"/>
      <point x="461" y="909" type="line"/>
      <point x="461" y="840"/>
      <point x="408" y="769"/>
      <point x="303" y="769" type="curve" smooth="yes"/>
      <point x="198" y="769"/>
      <point x="145" y="840"/>
    </contour>
  </outline>
</glyph>
<glyph name="Wcircumflex" format="2">
  <advance width="974"/>
  <unicode hex="0174"/>
  <outline>
    <contour>
      <point x="698" y="115" type="line"/>
      <point x="899" y="700" type="line"/>
      <point x="960" y="700" type="line"/>
      <point x="701" y="-27" type="line"/>
      <point x="487" y="576" type="line"/>
      <point x="273" y="-27" type="line"/>
      <point x="14" y="700" type="line"/>
      <point x="75" y="700" type="line"/>
      <point x="276" y="115" type="line"/>
      <point x="487" y="727" type="line"/>
    </contour>
    <contour>
      <point x="487" y="898" type="line"/>
      <point x="360" y="787" type="line"/>
      <point x="327" y="814" type="line"/>
      <point x="487" y="954" type="line"/>
      <point x="647" y="814" type="line"/>
      <point x="614" y="787" type="line"/>
    </contour>
  </outline>
</glyph>
<glyph name="wcircumflex" format="2">
  <advance width="656"/>
  <unicode hex="0175"/>
  <outline>
    <contour>
      <point x="9" y="460" type="line"/>
      <point x="67" y="460" type="line"/>
      <point x="191" y="104" type="line"/>
      <point x="323" y="487" type="line"/>
      <point x="465" y="103" type="line"/>
      <point x="589" y="460" type="line"/>
      <point x="647" y="460" type="line"/>
      <point x="468" y="-27" type="line"/>
      <point x="324" y="356" type="line"/>
      <point x="188" y="-27" type="line"/>
    </contour>
    <contour>
      <point x="323" y="658" type="line"/>
      <point x="196" y="547" type="line"/>
      <point x="163" y="574" type="line"/>
      <point x="323" y="714" type="line"/>
      <point x="483" y="574" type="line"/>
      <point x="450" y="547" type="line"/>
    </contour>
  </outline>
</glyph>
<glyph name="Ycircumflex" format="2">
  <advance width="539"/>
  <unicode hex="0176"/>
  <outline>
    <contour>
      <point x="468" y="700" type="line"/>
      <point x="530" y="700" type="line"/>
      <point x="295" y="288" type="line"/>
      <point x="295" y="0" type="line"/>
      <point x="240" y="0" type="line"/>
      <point x="240" y="287" type="line"/>
      <point x="9" y="700" type="line"/>
      <point x="71" y="700" type="line"/>
      <point x="267" y="338" type="line"/>
    </contour>
    <contour>
      <point x="270" y="880" type="line"/>
      <point x="142" y="769" type="line"/>
      <point x="110" y="796" type="line"/>
      <point x="270" y="936" type="line"/>
      <point x="430" y="796" type="line"/>
      <point x="397" y="769" type="line"/>
    </contour>
  </outline>
</glyph>
<glyph name="ycircumflex" format="2">
  <advance width="434"/>
  <unicode hex="0177"/>
  <outline>
    <contour>
      <point x="430" y="460" type="line"/>
      <point x="130" y="-220" type="line"/>
      <point x="72" y="-220" type="line"/>
      <point x="190" y="47" type="line"/>
      <point x="4" y="460" type="line"/>
      <point x="66" y="460" type="line"/>
      <point x="233" y="68" type="line"/>
      <point x="209" y="70" type="line"/>
      <point x="372" y="460" type="line"/>
    </contour>
    <contour>
      <point x="217" y="641" type="line"/>
      <point x="90" y="530" type="line"/>
      <point x="57" y="557" type="line"/>
      <point x="217" y="697" type="line"/>
      <point x="377" y="557" type="line"/>
      <point x="344" y="530" type="line"/>
    </contour>
  </outline>
</glyph>
<glyph name="Zacute" format="2">
  <advance width="541"/>
  <unicode hex="0179"/>
  <outline>
    <contour>
      <point x="37" y="648" type="line"/>
      <point x="37" y="700" type="line"/>
      <point x="523" y="700" type="line"/>
      <point x="111" y="52" type="line"/>
      <point x="507" y="52" type="line"/>
      <point x="507" y="0" type="line"/>
      <point x="17" y="0" type="line"/>
      <point x="429" y="648" type="line"/>
    </contour>
    <contour>
      <point x="434" y="922" type="line"/>
      <point x="257" y="769" type="line"/>
      <point x="228" y="789" type="line"/>
      <point x="386" y="949" type="line"/>
    </contour>
  </outline>
</glyph>
<glyph name="zacute" format="2">
  <advance width="448"/>
  <unicode hex="017A"/>
  <outline>
    <contour>
      <point x="332" y="411" type="line"/>
      <point x="43" y="411" type="line"/>
      <point x="43" y="460" type="line"/>
      <point x="427" y="460" type="line"/>
      <point x="112" y="49" type="line"/>
      <point x="419" y="49" type="line"/>
      <point x="419" y="0" type="line"/>
      <point x="17" y="0" type="line"/>
    </contour>
    <contour>
      <point x="389" y="695" type="line"/>
      <point x="212" y="542" type="line"/>
      <point x="183" y="562" type="line"/>
      <point x="341" y="722" type="line"/>
    </contour>
  </outline>
</glyph>
<glyph name="Zdotaccent" format="2">
  <advance width="541"/>
  <unicode hex="017B"/>
  <outline>
    <contour>
      <point x="37" y="648" type="line"/>
      <point x="37" y="700" type="line"/>
      <point x="523" y="700" type="line"/>
      <point x="111" y="52" type="line"/>
      <point x="507" y="52" type="line"/>
      <point x="507" y="0" type="line"/>
      <point x="17" y="0" type="line"/>
      <point x="429" y="648" type="line"/>
    </contour>
    <contour>
      <point x="243" y="807" type="curve" smooth="yes"/>
      <point x="243" y="828"/>
      <point x="260" y="844"/>
      <point x="280" y="844" type="curve" smooth="yes"/>
      <point x="300" y="844"/>
      <point x="317" y="828"/>
      <point x="317" y="807" type="curve" smooth="yes"/>
      <point x="317" y="786"/>
      <point x="300" y="769"/>
      <point x="280" y="769" type="curve" smooth="yes"/>
      <point x="260" y="769"/>
      <point x="243" y="786"/>
    </contour>
  </outline>
</glyph>
<glyph name="zdotaccent" format="2">
  <advance width="448"/>
  <unicode hex="017C"/>
  <outline>
    <contour>
      <point x="332" y="411" type="line"/>
      <point x="43" y="411" type="line"/>
      <point x="43" y="460" type="line"/>
      <point x="427" y="460" type="line"/>
      <point x="112" y="49" type="line"/>
      <point x="419" y="49" type="line"/>
      <point x="419" y="0" type="line"/>
      <point x="17" y="0" type="line"/>
    </contour>
    <contour>
      <point x="198" y="597" type="curve" smooth="yes"/>
      <point x="198" y="618"/>
      <point x="215" y="635"/>
      <point x="235" y="635" type="curve" smooth="yes"/>
      <point x="255" y="635"/>
      <point x="272" y="618"/>
      <point x="272" y="597" type="curve" smooth="yes"/>
      <point x="272" y="576"/>
      <point x="255" y="560"/>
      <point x="235" y="560" type="curve" smooth="yes"/>
      <point x="215" y="560"/>
      <point x="198" y="576"/>
    </contour>
  </outline>
</glyph>
<glyph name="Zcaron" format="2">
  <advance width="541"/>
  <unicode hex="017D"/>
  <outline>
    <contour>
      <point x="37" y="648" type="line"/>
      <point x="37" y="700" type="line"/>
      <point x="523" y="700" type="line"/>
      <point x="111" y="52" type="line"/>
      <point x="507" y="52" type="line"/>
      <point x="507" y="0" type="line"/>
      <point x="17" y="0" type="line"/>
      <point x="429" y="648" type="line"/>
    </contour>
    <contour>
      <point x="280" y="825" type="line"/>
      <point x="407" y="936" type="line"/>
      <point x="440" y="909" type="line"/>
      <point x="280" y="769" type="line"/>
      <point x="120" y="909" type="line"/>
      <point x="153" y="936" type="line"/>
    </contour>
  </outline>
</glyph>
<glyph name="florin" format="2">
  <advance width="600"/>
  <unicode hex="0192"/>
  <outline>
    <contour>
      <point x="191" y="-200" type="curve" smooth="yes"/>
      <point x="161" y="-199"/>
      <point x="136" y="-187"/>
      <point x="104" y="-156" type="curve"/>
      <point x="132" y="-116" type="line"/>
      <point x="157" y="-141"/>
      <point x="171" y="-149"/>
      <point x="189" y="-149" type="curve" smooth="yes"/>
      <point x="229" y="-149"/>
      <point x="254" y="-110"/>
      <point x="258" y="-44" type="curve" smooth="yes"/>
      <point x="284" y="411" type="line"/>
      <point x="210" y="411" type="line"/>
      <point x="214" y="460" type="line"/>
      <point x="287" y="460" type="line"/>
      <point x="296" y="636" type="line" smooth="yes"/>
      <point x="301" y="730"/>
      <point x="348" y="789"/>
      <point x="416" y="788" type="curve" smooth="yes"/>
      <point x="446" y="787"/>
      <point x="471" y="775"/>
      <point x="503" y="744" type="curve"/>
      <point x="475" y="704" type="line"/>
      <point x="450" y="729"/>
      <point x="436" y="737"/>
      <point x="418" y="737" type="curve" smooth="yes"/>
      <point x="378" y="737"/>
      <point x="353" y="698"/>
      <point x="349" y="632" type="curve" smooth="yes"/>
      <point x="339" y="460" type="line"/>
      <point x="420" y="460" type="line"/>
      <point x="416" y="411" type="line"/>
      <point x="336" y="411" type="line"/>
      <point x="311" y="-48" type="line" smooth="yes"/>
      <point x="306" y="-142"/>
      <point x="259" y="-201"/>
    </contour>
  </outline>
</glyph>
<glyph name="uni0213" format="2">
  <advance width="321"/>
  <unicode hex="0213"/>
  <outline>
    <contour>
      <point x="131" y="460" type="line"/>
      <point x="131" y="0" type="line"/>
      <point x="79" y="0" type="line"/>
      <point x="79" y="460" type="line"/>
    </contour>
    <contour>
      <point x="284" y="399" type="line"/>
      <point x="264" y="413"/>
      <point x="248" y="421"/>
      <point x="224" y="421" type="curve" smooth="yes"/>
      <point x="156" y="421"/>
      <point x="131" y="358"/>
      <point x="131" y="280" type="curve"/>
      <point x="107" y="280" type="line"/>
      <point x="107" y="389"/>
      <point x="163" y="470"/>
      <point x="236" y="470" type="curve" smooth="yes"/>
      <point x="265" y="470"/>
      <point x="292" y="462"/>
      <point x="313" y="442" type="curve"/>
    </contour>
    <contour>
      <point x="38" y="538" type="curve"/>
      <point x="85" y="538" type="line"/>
      <point x="85" y="580"/>
      <point x="117" y="635"/>
      <point x="196" y="635" type="curve" smooth="yes"/>
      <point x="275" y="635"/>
      <point x="308" y="580"/>
      <point x="308" y="538" type="curve"/>
      <point x="354" y="538" type="line"/>
      <point x="354" y="607"/>
      <point x="301" y="678"/>
      <point x="196" y="678" type="curve" smooth="yes"/>
      <point x="91" y="678"/>
      <point x="38" y="607"/>
    </contour>
  </outline>
</glyph>
<glyph name="uni021A" format="2">
  <advance width="451"/>
  <unicode hex="021A"/>
  <outline>
    <contour>
      <point x="14" y="648" type="line"/>
      <point x="14" y="700" type="line"/>
      <point x="437" y="700" type="line"/>
      <point x="437" y="648" type="line"/>
      <point x="253" y="648" type="line"/>
      <point x="253" y="0" type="line"/>
      <point x="198" y="0" type="line"/>
      <point x="198" y="648" type="line"/>
    </contour>
    <contour>
      <point x="247" y="-60" type="line"/>
      <point x="299" y="-80" type="line"/>
      <point x="189" y="-330" type="line"/>
      <point x="152" y="-317" type="line"/>
    </contour>
  </outline>
</glyph>
<glyph name="uni021B" format="2">
  <advance width="220"/>
  <unicode hex="021B"/>
  <outline>
    <contour>
      <point x="9" y="460" type="line"/>
      <point x="211" y="460" type="line"/>
      <point x="211" y="411" type="line"/>
      <point x="9" y="411" type="line"/>
    </contour>
    <contour>
      <point x="84" y="620" type="line"/>
      <point x="136" y="620" type="line"/>
      <point x="136" y="0" type="line"/>
      <point x="84" y="0" type="line"/>
    </contour>
    <contour>
      <point x="131" y="-60" type="line"/>
      <point x="184" y="-80" type="line"/>
      <point x="74" y="-330" type="line"/>
      <point x="36" y="-317" type="line"/>
    </contour>
  </outline>
</glyph>
<glyph name="circumflex" format="2">
  <advance width="480"/>
  <unicode hex="02C6"/>
  <outline>
    <contour>
      <point x="240" y="674" type="line"/>
      <point x="113" y="563" type="line"/>
      <point x="80" y="590" type="line"/>
      <point x="240" y="730" type="line"/>
      <point x="400" y="590" type="line"/>
      <point x="367" y="563" type="line"/>
    </contour>
  </outline>
</glyph>
<glyph name="caron" format="2">
  <advance width="480"/>
  <unicode hex="02C7"/>
  <outline>
    <contour>
      <point x="240" y="626" type="line"/>
      <point x="367" y="737" type="line"/>
      <point x="400" y="710" type="line"/>
      <point x="240" y="570" type="line"/>
      <point x="80" y="710" type="line"/>
      <point x="113" y="737" type="line"/>
    </contour>
  </outline>
</glyph>
<glyph name="breve" format="2">
  <advance width="546"/>
  <unicode hex="02D8"/>
  <outline>
    <contour>
      <point x="115" y="850" type="curve"/>
      <point x="162" y="850" type="line"/>
      <point x="162" y="808"/>
      <point x="194" y="753"/>
      <point x="273" y="753" type="curve" smooth="yes"/>
      <point x="352" y="753"/>
      <point x="384" y="808"/>
      <point x="384" y="850" type="curve"/>
      <point x="431" y="850" type="line"/>
      <point x="431" y="781"/>
      <point x="378" y="710"/>
      <point x="273" y="710" type="curve" smooth="yes"/>
      <point x="168" y="710"/>
      <point x="115" y="781"/>
    </contour>
  </outline>
</glyph>
<glyph name="dotaccent" format="2">
  <advance width="276"/>
  <unicode hex="02D9"/>
  <outline>
    <contour>
      <point x="101" y="774" type="curve" smooth="yes"/>
      <point x="101" y="795"/>
      <point x="118" y="812"/>
      <point x="138" y="812" type="curve" smooth="yes"/>
      <point x="158" y="812"/>
      <point x="176" y="795"/>
      <point x="176" y="774" type="curve" smooth="yes"/>
      <point x="176" y="753"/>
      <point x="158" y="737"/>
      <point x="138" y="737" type="curve" smooth="yes"/>
      <point x="118" y="737"/>
      <point x="101" y="753"/>
    </contour>
  </outline>
</glyph>
<glyph name="ring" format="2">
  <advance width="278"/>
  <unicode hex="02DA"/>
  <outline>
    <contour>
      <point x="37" y="785" type="curve" smooth="yes"/>
      <point x="37" y="845"/>
      <point x="87" y="885"/>
      <point x="139" y="885" type="curve" smooth="yes"/>
      <point x="191" y="885"/>
      <point x="241" y="845"/>
      <point x="241" y="785" type="curve" smooth="yes"/>
      <point x="241" y="725"/>
      <point x="191" y="685"/>
      <point x="139" y="685" type="curve" smooth="yes"/>
      <point x="87" y="685"/>
      <point x="37" y="725"/>
    </contour>
    <contour>
      <point x="72" y="785" type="curve" smooth="yes"/>
      <point x="72" y="744"/>
      <point x="105" y="717"/>
      <point x="139" y="717" type="curve" smooth="yes"/>
      <point x="173" y="717"/>
      <point x="206" y="744"/>
      <point x="206" y="785" type="curve" smooth="yes"/>
      <point x="206" y="826"/>
      <point x="173" y="853"/>
      <point x="139" y="853" type="curve" smooth="yes"/>
      <point x="105" y="853"/>
      <point x="72" y="826"/>
    </contour>
  </outline>
</glyph>
<glyph name="tilde" format="2">
  <advance width="530"/>
  <unicode hex="02DC"/>
  <outline>
    <contour>
      <point x="117" y="635" type="line"/>
      <point x="123" y="676"/>
      <point x="159" y="707"/>
      <point x="204" y="707" type="curve" smooth="yes"/>
      <point x="265" y="707"/>
      <point x="274" y="660"/>
      <point x="328" y="660" type="curve" smooth="yes"/>
      <point x="351" y="660"/>
      <point x="366" y="676"/>
      <point x="384" y="708" type="curve"/>
      <point x="415" y="681" type="line"/>
      <point x="399" y="644"/>
      <point x="367" y="616"/>
      <point x="325" y="616" type="curve" smooth="yes"/>
      <point x="270" y="616"/>
      <point x="249" y="663"/>
      <point x="204" y="663" type="curve" smooth="yes"/>
      <point x="163" y="663"/>
      <point x="152" y="631"/>
      <point x="152" y="612" type="curve"/>
    </contour>
  </outline>
</glyph>
<glyph name="hungarumlaut" format="2">
  <unicode hex="02DD"/>
  <outline>
    <contour>
      <point x="34" y="518" type="line"/>
      <point x="0" y="530" type="line"/>
      <point x="104" y="729" type="line"/>
      <point x="158" y="715" type="line"/>
    </contour>
    <contour>
      <point x="172" y="518" type="line"/>
      <point x="139" y="530" type="line"/>
      <point x="243" y="729" type="line"/>
      <point x="297" y="715" type="line"/>
    </contour>
  </outline>
</glyph>
<glyph name="gravecomb" format="2">
  <unicode hex="0300"/>
  <outline>
    <contour>
      <point x="177" y="541" type="line"/>
      <point x="0" y="694" type="line"/>
      <point x="48" y="721" type="line"/>
      <point x="206" y="561" type="line"/>
    </contour>
  </outline>
</glyph>
<glyph name="acutecomb" format="2">
  <unicode hex="0301"/>
  <outline>
    <contour>
      <point x="44" y="541" type="line"/>
      <point x="15" y="561" type="line"/>
      <point x="173" y="721" type="line"/>
      <point x="221" y="694" type="line"/>
    </contour>
  </outline>
</glyph>
<glyph name="uni0302" format="2">
  <unicode hex="0302"/>
  <outline>
    <contour>
      <point x="27" y="561" type="line"/>
      <point x="0" y="594" type="line"/>
      <point x="155" y="728" type="line"/>
      <point x="309" y="594" type="line"/>
      <point x="282" y="561" type="line"/>
      <point x="144" y="682" type="line"/>
      <point x="166" y="682" type="line"/>
    </contour>
  </outline>
</glyph>
<glyph name="tildecomb" format="2">
  <unicode hex="0303"/>
  <outline>
    <contour>
      <point x="35" y="612" type="curve"/>
      <point x="0" y="635" type="line"/>
      <point x="6" y="676"/>
      <point x="42" y="707"/>
      <point x="87" y="707" type="curve" smooth="yes"/>
      <point x="148" y="707"/>
      <point x="158" y="660"/>
      <point x="211" y="660" type="curve" smooth="yes"/>
      <point x="234" y="660"/>
      <point x="249" y="676"/>
      <point x="267" y="708" type="curve"/>
      <point x="298" y="681" type="line"/>
      <point x="282" y="644"/>
      <point x="251" y="616"/>
      <point x="208" y="616" type="curve" smooth="yes"/>
      <point x="153" y="616"/>
      <point x="133" y="663"/>
      <point x="87" y="663" type="curve" smooth="yes"/>
      <point x="50" y="663"/>
      <point x="35" y="633"/>
    </contour>
  </outline>
</glyph>
<glyph name="uni0306" format="2">
  <unicode hex="0306"/>
  <outline>
    <contour>
      <point x="158" y="558" type="curve" smooth="yes"/>
      <point x="66" y="558"/>
      <point x="0" y="613"/>
      <point x="0" y="690" type="curve"/>
      <point x="47" y="690" type="line"/>
      <point x="47" y="639"/>
      <point x="94" y="601"/>
      <point x="158" y="601" type="curve" smooth="yes"/>
      <point x="222" y="601"/>
      <point x="269" y="639"/>
      <point x="269" y="690" type="curve"/>
      <point x="316" y="690" type="line"/>
      <point x="316" y="613"/>
      <point x="250" y="558"/>
    </contour>
  </outline>
</glyph>
<glyph name="uni0307" format="2">
  <unicode hex="0307"/>
  <outline>
    <contour>
      <point x="37" y="604" type="curve" smooth="yes"/>
      <point x="17" y="604"/>
      <point x="0" y="621"/>
      <point x="0" y="641" type="curve" smooth="yes"/>
      <point x="0" y="661"/>
      <point x="17" y="678"/>
      <point x="37" y="678" type="curve" smooth="yes"/>
      <point x="57" y="678"/>
      <point x="75" y="661"/>
      <point x="75" y="641" type="curve" smooth="yes"/>
      <point x="75" y="621"/>
      <point x="57" y="604"/>
    </contour>
  </outline>
</glyph>
<glyph name="uni0308" format="2">
  <unicode hex="0308"/>
  <outline>
    <contour>
      <point x="37" y="610" type="curve" smooth="yes"/>
      <point x="15" y="610"/>
      <point x="0" y="626"/>
      <point x="0" y="648" type="curve" smooth="yes"/>
      <point x="0" y="670"/>
      <point x="15" y="685"/>
      <point x="37" y="685" type="curve" smooth="yes"/>
      <point x="59" y="685"/>
      <point x="75" y="670"/>
      <point x="75" y="648" type="curve" smooth="yes"/>
      <point x="75" y="626"/>
      <point x="59" y="610"/>
    </contour>
    <contour>
      <point x="237" y="610" type="curve" smooth="yes"/>
      <point x="215" y="610"/>
      <point x="200" y="626"/>
      <point x="200" y="648" type="curve" smooth="yes"/>
      <point x="200" y="670"/>
      <point x="215" y="685"/>
      <point x="237" y="685" type="curve" smooth="yes"/>
      <point x="259" y="685"/>
      <point x="275" y="670"/>
      <point x="275" y="648" type="curve" smooth="yes"/>
      <point x="275" y="626"/>
      <point x="259" y="610"/>
    </contour>
  </outline>
</glyph>
<glyph name="uni030A" format="2">
  <unicode hex="030A"/>
  <outline>
    <contour>
      <point x="108" y="524" type="curve" smooth="yes"/>
      <point x="48" y="524"/>
      <point x="0" y="571"/>
      <point x="0" y="630" type="curve" smooth="yes"/>
      <point x="0" y="689"/>
      <point x="48" y="736"/>
      <point x="108" y="736" type="curve" smooth="yes"/>
      <point x="168" y="736"/>
      <point x="217" y="689"/>
      <point x="217" y="630" type="curve" smooth="yes"/>
      <point x="217" y="571"/>
      <point x="168" y="524"/>
    </contour>
    <contour>
      <point x="108" y="559" type="curve" smooth="yes"/>
      <point x="147" y="559"/>
      <point x="178" y="591"/>
      <point x="178" y="630" type="curve" smooth="yes"/>
      <point x="178" y="669"/>
      <point x="147" y="701"/>
      <point x="108" y="701" type="curve" smooth="yes"/>
      <point x="69" y="701"/>
      <point x="38" y="669"/>
      <point x="38" y="630" type="curve" smooth="yes"/>
      <point x="38" y="591"/>
      <point x="69" y="559"/>
    </contour>
  </outline>
</glyph>
<glyph name="uni030B" format="2">
  <unicode hex="030B"/>
  <outline>
    <contour>
      <point x="34" y="518" type="line"/>
      <point x="0" y="530" type="line"/>
      <point x="104" y="729" type="line"/>
      <point x="158" y="715" type="line"/>
    </contour>
    <contour>
      <point x="172" y="518" type="line"/>
      <point x="139" y="530" type="line"/>
      <point x="243" y="729" type="line"/>
      <point x="297" y="715" type="line"/>
    </contour>
  </outline>
</glyph>
<glyph name="uni030C" format="2">
  <unicode hex="030C"/>
  <outline>
    <contour>
      <point x="155" y="561" type="line"/>
      <point x="0" y="696" type="line"/>
      <point x="27" y="728" type="line"/>
      <point x="166" y="607" type="line"/>
      <point x="144" y="607" type="line"/>
      <point x="282" y="728" type="line"/>
      <point x="309" y="696" type="line"/>
    </contour>
  </outline>
</glyph>
<glyph name="uni0312" format="2">
  <unicode hex="0312"/>
  <outline>
    <contour>
      <point x="52" y="508" type="line"/>
      <point x="0" y="528" type="line"/>
      <point x="110" y="778" type="line"/>
      <point x="147" y="764" type="line"/>
    </contour>
  </outline>
</glyph>
<glyph name="uni0326" format="2">
  <unicode hex="0326"/>
  <outline>
    <contour>
      <point x="26" y="-216" type="line"/>
      <point x="0" y="-202" type="line"/>
      <point x="90" y="-18" type="line"/>
      <point x="127" y="-39" type="line"/>
    </contour>
  </outline>
</glyph>
<glyph name="uni0327" format="2">
  <unicode hex="0327"/>
  <outline>
    <contour>
      <point x="89" y="-220" type="curve" smooth="yes"/>
      <point x="53" y="-220"/>
      <point x="27" y="-210"/>
      <point x="0" y="-188" type="curve"/>
      <point x="17" y="-158" type="line"/>
      <point x="43" y="-177"/>
      <point x="60" y="-184"/>
      <point x="89" y="-184" type="curve" smooth="yes"/>
      <point x="131" y="-184"/>
      <point x="158" y="-162"/>
      <point x="158" y="-126" type="curve" smooth="yes"/>
      <point x="158" y="-96"/>
      <point x="139" y="-79"/>
      <point x="103" y="-79" type="curve" smooth="yes"/>
      <point x="83" y="-79"/>
      <point x="56" y="-83"/>
      <point x="39" y="-91" type="curve"/>
      <point x="109" y="36" type="line"/>
      <point x="150" y="36" type="line"/>
      <point x="87" y="-73" type="line"/>
      <point x="68" y="-74" type="line"/>
      <point x="79" y="-56"/>
      <point x="98" y="-49"/>
      <point x="123" y="-49" type="curve" smooth="yes"/>
      <point x="166" y="-49"/>
      <point x="197" y="-85"/>
      <point x="197" y="-126" type="curve" smooth="yes"/>
      <point x="197" y="-180"/>
      <point x="151" y="-220"/>
    </contour>
  </outline>
</glyph>
<glyph name="uni0328" format="2">
  <unicode hex="0328"/>
  <outline>
    <contour>
      <point x="115" y="-220" type="curve" smooth="yes"/>
      <point x="39" y="-220"/>
      <point x="0" y="-183"/>
      <point x="0" y="-128" type="curve" smooth="yes"/>
      <point x="0" y="-65"/>
      <point x="70" y="-17"/>
      <point x="140" y="19" type="curve"/>
      <point x="168" y="0" type="line"/>
      <point x="110" y="-26"/>
      <point x="52" y="-71"/>
      <point x="52" y="-116" type="curve" smooth="yes"/>
      <point x="52" y="-156"/>
      <point x="80" y="-174"/>
      <point x="118" y="-174" type="curve" smooth="yes"/>
      <point x="150" y="-174"/>
      <point x="170" y="-162"/>
      <point x="184" y="-147" type="curve"/>
      <point x="207" y="-180" type="line"/>
      <point x="192" y="-200"/>
      <point x="158" y="-220"/>
    </contour>
  </outline>
</glyph>
<glyph name="uni0394" format="2">
  <advance width="600"/>
  <unicode hex="0394"/>
  <outline>
    <contour>
      <point x="25" y="0" type="line"/>
      <point x="573" y="0" type="line"/>
      <point x="299" y="770" type="line"/>
    </contour>
    <contour>
      <point x="104" y="49" type="line"/>
      <point x="299" y="626" type="line"/>
      <point x="496" y="49" type="line"/>
    </contour>
  </outline>
</glyph>
<glyph name="uni03A9" format="2">
  <advance width="600"/>
  <unicode hex="03A9"/>
  <outline>
    <contour>
      <point x="66" y="0" type="line"/>
      <point x="260" y="0" type="line"/>
      <point x="260" y="48" type="line"/>
      <point x="185" y="96"/>
      <point x="126" y="211"/>
      <point x="126" y="311" type="curve" smooth="yes"/>
      <point x="126" y="427"/>
      <point x="194" y="500"/>
      <point x="300" y="500" type="curve" smooth="yes"/>
      <point x="406" y="500"/>
      <point x="472" y="427"/>
      <point x="472" y="311" type="curve" smooth="yes"/>
      <point x="472" y="210"/>
      <point x="414" y="96"/>
      <point x="339" y="48" type="curve"/>
      <point x="339" y="0" type="line"/>
      <point x="533" y="0" type="line"/>
      <point x="533" y="44" type="line"/>
      <point x="414" y="44" type="line"/>
      <point x="483" y="113"/>
      <point x="530" y="221"/>
      <point x="530" y="315" type="curve" smooth="yes"/>
      <point x="530" y="454"/>
      <point x="432" y="559"/>
      <point x="300" y="559" type="curve" smooth="yes"/>
      <point x="168" y="559"/>
      <point x="69" y="454"/>
      <point x="69" y="315" type="curve" smooth="yes"/>
      <point x="69" y="221"/>
      <point x="116" y="113"/>
      <point x="185" y="44" type="curve"/>
      <point x="66" y="44" type="line"/>
    </contour>
  </outline>
</glyph>
<glyph name="uni0400" format="2">
  <advance width="550"/>
  <unicode hex="0400"/>
  <outline>
    <contour>
      <point x="113" y="0" type="line"/>
      <point x="113" y="52" type="line"/>
      <point x="460" y="52" type="line"/>
      <point x="460" y="0" type="line"/>
    </contour>
    <contour>
      <point x="113" y="648" type="line"/>
      <point x="113" y="700" type="line"/>
      <point x="460" y="700" type="line"/>
      <point x="460" y="648" type="line"/>
    </contour>
    <contour>
      <point x="113" y="358" type="line"/>
      <point x="113" y="410" type="line"/>
      <point x="440" y="410" type="line"/>
      <point x="440" y="358" type="line"/>
    </contour>
    <contour>
      <point x="84" y="700" type="line"/>
      <point x="139" y="700" type="line"/>
      <point x="139" y="0" type="line"/>
      <point x="84" y="0" type="line"/>
    </contour>
    <contour>
      <point x="110" y="933" type="line"/>
      <point x="158" y="960" type="line"/>
      <point x="316" y="800" type="line"/>
      <point x="287" y="780" type="line"/>
    </contour>
  </outline>
</glyph>
<glyph name="uni0401" format="2">
  <advance width="550"/>
  <unicode hex="0401"/>
  <outline>
    <contour>
      <point x="113" y="0" type="line"/>
      <point x="113" y="52" type="line"/>
      <point x="460" y="52" type="line"/>
      <point x="460" y="0" type="line"/>
    </contour>
    <contour>
      <point x="113" y="648" type="line"/>
      <point x="113" y="700" type="line"/>
      <point x="460" y="700" type="line"/>
      <point x="460" y="648" type="line"/>
    </contour>
    <contour>
      <point x="113" y="358" type="line"/>
      <point x="113" y="410" type="line"/>
      <point x="440" y="410" type="line"/>
      <point x="440" y="358" type="line"/>
    </contour>
    <contour>
      <point x="84" y="700" type="line"/>
      <point x="139" y="700" type="line"/>
      <point x="139" y="0" type="line"/>
      <point x="84" y="0" type="line"/>
    </contour>
    <contour>
      <point x="333" y="837" type="curve" smooth="yes"/>
      <point x="333" y="858"/>
      <point x="350" y="874"/>
      <point x="370" y="874" type="curve" smooth="yes"/>
      <point x="390" y="874"/>
      <point x="408" y="858"/>
      <point x="408" y="837" type="curve" smooth="yes"/>
      <point x="408" y="816"/>
      <point x="390" y="799"/>
      <point x="370" y="799" type="curve" smooth="yes"/>
      <point x="350" y="799"/>
      <point x="333" y="816"/>
    </contour>
    <contour>
      <point x="133" y="837" type="curve" smooth="yes"/>
      <point x="133" y="858"/>
      <point x="150" y="874"/>
      <point x="170" y="874" type="curve" smooth="yes"/>
      <point x="190" y="874"/>
      <point x="208" y="858"/>
      <point x="208" y="837" type="curve" smooth="yes"/>
      <point x="208" y="816"/>
      <point x="190" y="799"/>
      <point x="170" y="799" type="curve" smooth="yes"/>
      <point x="150" y="799"/>
      <point x="133" y="816"/>
    </contour>
  </outline>
</glyph>
<glyph name="uni0403" format="2">
  <advance width="435"/>
  <unicode hex="0403"/>
  <outline>
    <contour>
      <point x="80" y="700" type="line"/>
      <point x="425" y="700" type="line"/>
      <point x="425" y="648" type="line"/>
      <point x="135" y="648" type="line"/>
      <point x="135" y="0" type="line"/>
      <point x="80" y="0" type="line"/>
    </contour>
    <contour>
      <point x="414" y="933" type="line"/>
      <point x="236" y="780" type="line"/>
      <point x="208" y="800" type="line"/>
      <point x="366" y="960" type="line"/>
    </contour>
  </outline>
</glyph>
<glyph name="uni040C" format="2">
  <advance width="565"/>
  <unicode hex="040C"/>
  <outline>
    <contour>
      <point x="82" y="700" type="line"/>
      <point x="137" y="700" type="line"/>
      <point x="137" y="0" type="line"/>
      <point x="82" y="0" type="line"/>
    </contour>
    <contour>
      <point x="427" y="700" type="line"/>
      <point x="497" y="700" type="line"/>
      <point x="189" y="372" type="line"/>
      <point x="512" y="0" type="line"/>
      <point x="442" y="0" type="line"/>
      <point x="121" y="371" type="line"/>
    </contour>
    <contour>
      <point x="474" y="933" type="line"/>
      <point x="296" y="780" type="line"/>
      <point x="268" y="800" type="line"/>
      <point x="426" y="960" type="line"/>
    </contour>
  </outline>
</glyph>
<glyph name="uni040D" format="2">
  <advance width="755"/>
  <unicode hex="040D"/>
  <outline>
    <contour>
      <point x="668" y="650" type="line"/>
      <point x="84" y="-35" type="line"/>
      <point x="87" y="50" type="line"/>
      <point x="671" y="735" type="line"/>
    </contour>
    <contour>
      <point x="139" y="700" type="line"/>
      <point x="139" y="40" type="line"/>
      <point x="84" y="-35" type="line"/>
      <point x="84" y="700" type="line"/>
    </contour>
    <contour>
      <point x="671" y="735" type="line"/>
      <point x="671" y="0" type="line"/>
      <point x="616" y="0" type="line"/>
      <point x="616" y="661" type="line"/>
    </contour>
    <contour>
      <point x="229" y="908" type="line"/>
      <point x="277" y="935" type="line"/>
      <point x="435" y="775" type="line"/>
      <point x="406" y="755" type="line"/>
    </contour>
  </outline>
</glyph>
<glyph name="uni040E" format="2">
  <advance width="531"/>
  <unicode hex="040E"/>
  <outline>
    <contour>
      <point x="531" y="700" type="line"/>
      <point x="202" y="0" type="line"/>
      <point x="141" y="0" type="line"/>
      <point x="237" y="214" type="line"/>
      <point x="0" y="700" type="line"/>
      <point x="67" y="700" type="line"/>
      <point x="288" y="230" type="line"/>
      <point x="254" y="232" type="line"/>
      <point x="470" y="700" type="line"/>
    </contour>
    <contour>
      <point x="109" y="909" type="curve"/>
      <point x="156" y="909" type="line"/>
      <point x="156" y="867"/>
      <point x="188" y="812"/>
      <point x="267" y="812" type="curve" smooth="yes"/>
      <point x="346" y="812"/>
      <point x="378" y="867"/>
      <point x="378" y="909" type="curve"/>
      <point x="425" y="909" type="line"/>
      <point x="425" y="840"/>
      <point x="372" y="769"/>
      <point x="267" y="769" type="curve" smooth="yes"/>
      <point x="162" y="769"/>
      <point x="109" y="840"/>
    </contour>
  </outline>
</glyph>
<glyph name="uni0415" format="2">
  <advance width="550"/>
  <unicode hex="0415"/>
  <outline>
    <contour>
      <point x="113" y="0" type="line"/>
      <point x="113" y="52" type="line"/>
      <point x="460" y="52" type="line"/>
      <point x="460" y="0" type="line"/>
    </contour>
    <contour>
      <point x="113" y="648" type="line"/>
      <point x="113" y="700" type="line"/>
      <point x="460" y="700" type="line"/>
      <point x="460" y="648" type="line"/>
    </contour>
    <contour>
      <point x="113" y="358" type="line"/>
      <point x="113" y="410" type="line"/>
      <point x="440" y="410" type="line"/>
      <point x="440" y="358" type="line"/>
    </contour>
    <contour>
      <point x="84" y="700" type="line"/>
      <point x="139" y="700" type="line"/>
      <point x="139" y="0" type="line"/>
      <point x="84" y="0" type="line"/>
    </contour>
  </outline>
</glyph>
<glyph name="uni0416" format="2">
  <advance width="793"/>
  <unicode hex="0416"/>
  <outline>
    <contour>
      <point x="89" y="700" type="line"/>
      <point x="384" y="370" type="line"/>
      <point x="74" y="0" type="line"/>
      <point x="5" y="0" type="line"/>
      <point x="317" y="371" type="line"/>
      <point x="20" y="700" type="line"/>
    </contour>
    <contour>
      <point x="374" y="700" type="line"/>
      <point x="429" y="700" type="line"/>
      <point x="429" y="0" type="line"/>
      <point x="374" y="0" type="line"/>
    </contour>
    <contour>
      <point x="704" y="700" type="line"/>
      <point x="773" y="700" type="line"/>
      <point x="480" y="371" type="line"/>
      <point x="788" y="0" type="line"/>
      <point x="719" y="0" type="line"/>
      <point x="419" y="370" type="line"/>
    </contour>
  </outline>
</glyph>
<glyph name="uni0417" format="2">
  <advance width="606"/>
  <unicode hex="0417"/>
  <outline>
    <contour>
      <point x="283" y="351" type="curve"/>
      <point x="283" y="387" type="line"/>
      <point x="406" y="387"/>
      <point x="485" y="444"/>
      <point x="485" y="522" type="curve" smooth="yes"/>
      <point x="485" y="600"/>
      <point x="424" y="660"/>
      <point x="318" y="660" type="curve" smooth="yes"/>
      <point x="214" y="660"/>
      <point x="143" y="603"/>
      <point x="143" y="526" type="curve"/>
      <point x="90" y="526" type="line"/>
      <point x="90" y="635"/>
      <point x="182" y="710"/>
      <point x="317" y="710" type="curve" smooth="yes"/>
      <point x="457" y="710"/>
      <point x="541" y="623"/>
      <point x="541" y="524" type="curve" smooth="yes"/>
      <point x="541" y="425"/>
      <point x="438" y="351"/>
    </contour>
    <contour>
      <point x="313" y="-10" type="curve" smooth="yes"/>
      <point x="148" y="-10"/>
      <point x="60" y="76"/>
      <point x="60" y="185" type="curve"/>
      <point x="116" y="185" type="line"/>
      <point x="120" y="103"/>
      <point x="185" y="42"/>
      <point x="313" y="42" type="curve" smooth="yes"/>
      <point x="439" y="42"/>
      <point x="505" y="102"/>
      <point x="505" y="191" type="curve" smooth="yes"/>
      <point x="505" y="297"/>
      <point x="406" y="338"/>
      <point x="283" y="338" type="curve"/>
      <point x="283" y="374" type="line"/>
      <point x="438" y="374"/>
      <point x="561" y="324"/>
      <point x="561" y="185" type="curve" smooth="yes"/>
      <point x="561" y="66"/>
      <point x="468" y="-10"/>
    </contour>
  </outline>
</glyph>
<glyph name="uni0419" format="2">
  <advance width="755"/>
  <unicode hex="0419"/>
  <outline>
    <contour>
      <point x="668" y="650" type="line"/>
      <point x="84" y="-35" type="line"/>
      <point x="87" y="50" type="line"/>
      <point x="671" y="735" type="line"/>
    </contour>
    <contour>
      <point x="139" y="700" type="line"/>
      <point x="139" y="40" type="line"/>
      <point x="84" y="-35" type="line"/>
      <point x="84" y="700" type="line"/>
    </contour>
    <contour>
      <point x="671" y="735" type="line"/>
      <point x="671" y="0" type="line"/>
      <point x="616" y="0" type="line"/>
      <point x="616" y="661" type="line"/>
    </contour>
    <contour>
      <point x="240" y="903" type="curve"/>
      <point x="287" y="903" type="line"/>
      <point x="287" y="861"/>
      <point x="319" y="806"/>
      <point x="398" y="806" type="curve" smooth="yes"/>
      <point x="477" y="806"/>
      <point x="510" y="861"/>
      <point x="510" y="903" type="curve"/>
      <point x="556" y="903" type="line"/>
      <point x="556" y="834"/>
      <point x="503" y="763"/>
      <point x="398" y="763" type="curve" smooth="yes"/>
      <point x="293" y="763"/>
      <point x="240" y="834"/>
    </contour>
  </outline>
</glyph>
<glyph name="uni041A" format="2">
  <advance width="565"/>
  <unicode hex="041A"/>
  <outline>
    <contour>
      <point x="82" y="700" type="line"/>
      <point x="137" y="700" type="line"/>
      <point x="137" y="0" type="line"/>
      <point x="82" y="0" type="line"/>
    </contour>
    <contour>
      <point x="427" y="700" type="line"/>
      <point x="497" y="700" type="line"/>
      <point x="189" y="372" type="line"/>
      <point x="512" y="0" type="line"/>
      <point x="442" y="0" type="line"/>
      <point x="121" y="371" type="line"/>
    </contour>
  </outline>
</glyph>
<glyph name="uni041B" format="2">
  <advance width="640"/>
  <unicode hex="041B"/>
  <outline>
    <contour>
      <point x="560" y="700" type="line"/>
      <point x="560" y="0" type="line"/>
      <point x="505" y="0" type="line"/>
      <point x="505" y="648" type="line"/>
      <point x="155" y="648" type="line"/>
      <point x="155" y="240" type="line" smooth="yes"/>
      <point x="155" y="111"/>
      <point x="104" y="0"/>
      <point x="10" y="0" type="curve"/>
      <point x="10" y="48" type="line"/>
      <point x="70" y="48"/>
      <point x="103" y="146"/>
      <point x="103" y="252" type="curve" smooth="yes"/>
      <point x="103" y="700" type="line"/>
    </contour>
  </outline>
</glyph>
<glyph name="uni041F" format="2">
  <advance width="685"/>
  <unicode hex="041F"/>
  <outline>
    <contour>
      <point x="550" y="648" type="line"/>
      <point x="135" y="648" type="line"/>
      <point x="135" y="0" type="line"/>
      <point x="80" y="0" type="line"/>
      <point x="80" y="700" type="line"/>
      <point x="605" y="700" type="line"/>
      <point x="605" y="0" type="line"/>
      <point x="550" y="0" type="line"/>
    </contour>
  </outline>
</glyph>
<glyph name="uni0420" format="2">
  <advance width="548"/>
  <unicode hex="0420"/>
  <outline>
    <contour>
      <point x="84" y="700" type="line"/>
      <point x="139" y="700" type="line"/>
      <point x="139" y="0" type="line"/>
      <point x="84" y="0" type="line"/>
    </contour>
    <contour>
      <point x="115" y="648" type="line"/>
      <point x="115" y="700" type="line"/>
      <point x="248" y="700" type="line" smooth="yes"/>
      <point x="379" y="700"/>
      <point x="477" y="622"/>
      <point x="477" y="493" type="curve" smooth="yes"/>
      <point x="477" y="364"/>
      <point x="379" y="286"/>
      <point x="248" y="286" type="curve" smooth="yes"/>
      <point x="115" y="286" type="line"/>
      <point x="115" y="338" type="line"/>
      <point x="248" y="338" type="line" smooth="yes"/>
      <point x="350" y="338"/>
      <point x="421" y="392"/>
      <point x="421" y="493" type="curve" smooth="yes"/>
      <point x="421" y="594"/>
      <point x="350" y="648"/>
      <point x="248" y="648" type="curve" smooth="yes"/>
    </contour>
  </outline>
</glyph>
<glyph name="uni0421" format="2">
  <advance width="685"/>
  <unicode hex="0421"/>
  <outline>
    <contour>
      <point x="103" y="350" type="curve" smooth="yes"/>
      <point x="103" y="172"/>
      <point x="228" y="47"/>
      <point x="386" y="47" type="curve" smooth="yes"/>
      <point x="485" y="47"/>
      <point x="558" y="83"/>
      <point x="611" y="143" type="curve"/>
      <point x="611" y="69" type="line"/>
      <point x="552" y="17"/>
      <point x="488" y="-9"/>
      <point x="386" y="-9" type="curve" smooth="yes"/>
      <point x="192" y="-9"/>
      <point x="44" y="141"/>
      <point x="44" y="350" type="curve" smooth="yes"/>
      <point x="44" y="559"/>
      <point x="192" y="709"/>
      <point x="386" y="709" type="curve" smooth="yes"/>
      <point x="488" y="709"/>
      <point x="552" y="683"/>
      <point x="611" y="631" type="curve"/>
      <point x="611" y="558" type="line"/>
      <point x="559" y="618"/>
      <point x="483" y="653"/>
      <point x="386" y="653" type="curve" smooth="yes"/>
      <point x="229" y="653"/>
      <point x="103" y="529"/>
    </contour>
  </outline>
</glyph>
<glyph name="uni0423" format="2">
  <advance width="531"/>
  <unicode hex="0423"/>
  <outline>
    <contour>
      <point x="531" y="700" type="line"/>
      <point x="202" y="0" type="line"/>
      <point x="141" y="0" type="line"/>
      <point x="237" y="214" type="line"/>
      <point x="0" y="700" type="line"/>
      <point x="67" y="700" type="line"/>
      <point x="288" y="230" type="line"/>
      <point x="254" y="232" type="line"/>
      <point x="470" y="700" type="line"/>
    </contour>
  </outline>
</glyph>
<glyph name="uni0424" format="2">
  <advance width="761"/>
  <unicode hex="0424"/>
  <outline>
    <contour>
      <point x="353" y="700" type="line"/>
      <point x="408" y="700" type="line"/>
      <point x="408" y="0" type="line"/>
      <point x="353" y="0" type="line"/>
    </contour>
    <contour>
      <point x="667" y="350" type="curve" smooth="yes"/>
      <point x="667" y="489"/>
      <point x="556" y="565"/>
      <point x="402" y="565" type="curve" smooth="yes"/>
      <point x="360" y="565" type="line" smooth="yes"/>
      <point x="206" y="565"/>
      <point x="95" y="489"/>
      <point x="95" y="350" type="curve" smooth="yes"/>
      <point x="95" y="211"/>
      <point x="206" y="135"/>
      <point x="360" y="135" type="curve" smooth="yes"/>
      <point x="402" y="135" type="line" smooth="yes"/>
      <point x="556" y="135"/>
      <point x="667" y="211"/>
    </contour>
    <contour>
      <point x="722" y="350" type="curve" smooth="yes"/>
      <point x="722" y="181"/>
      <point x="586" y="80"/>
      <point x="402" y="80" type="curve" smooth="yes"/>
      <point x="360" y="80" type="line" smooth="yes"/>
      <point x="176" y="80"/>
      <point x="40" y="181"/>
      <point x="40" y="350" type="curve" smooth="yes"/>
      <point x="40" y="519"/>
      <point x="176" y="620"/>
      <point x="360" y="620" type="curve" smooth="yes"/>
      <point x="402" y="620" type="line" smooth="yes"/>
      <point x="586" y="620"/>
      <point x="722" y="519"/>
    </contour>
  </outline>
</glyph>
<glyph name="uni0425" format="2">
  <advance width="555"/>
  <unicode hex="0425"/>
  <outline>
    <contour>
      <point x="438" y="700" type="line"/>
      <point x="504" y="700" type="line"/>
      <point x="297" y="367" type="line"/>
      <point x="519" y="0" type="line"/>
      <point x="453" y="0" type="line"/>
      <point x="269" y="318" type="line"/>
      <point x="80" y="0" type="line"/>
      <point x="14" y="0" type="line"/>
      <point x="241" y="367" type="line"/>
      <point x="39" y="700" type="line"/>
      <point x="105" y="700" type="line"/>
      <point x="270" y="415" type="line"/>
    </contour>
  </outline>
</glyph>
<glyph name="uni0428" format="2">
  <advance width="954"/>
  <unicode hex="0428"/>
  <outline>
    <contour>
      <point x="820" y="52" type="line"/>
      <point x="820" y="700" type="line"/>
      <point x="875" y="700" type="line"/>
      <point x="875" y="0" type="line"/>
      <point x="80" y="0" type="line"/>
      <point x="80" y="700" type="line"/>
      <point x="135" y="700" type="line"/>
      <point x="135" y="52" type="line"/>
      <point x="450" y="52" type="line"/>
      <point x="450" y="700" type="line"/>
      <point x="505" y="700" type="line"/>
      <point x="505" y="52" type="line"/>
    </contour>
  </outline>
</glyph>
<glyph name="uni042D" format="2">
  <advance width="685"/>
  <unicode hex="042D"/>
  <outline>
    <contour>
      <point x="144" y="324" type="line"/>
      <point x="144" y="376" type="line"/>
      <point x="582" y="376" type="line"/>
      <point x="582" y="324" type="line"/>
    </contour>
    <contour>
      <point x="582" y="350" type="curve" smooth="yes"/>
      <point x="582" y="529"/>
      <point x="456" y="653"/>
      <point x="299" y="653" type="curve" smooth="yes"/>
      <point x="202" y="653"/>
      <point x="126" y="618"/>
      <point x="74" y="558" type="curve"/>
      <point x="74" y="631" type="line"/>
      <point x="133" y="683"/>
      <point x="197" y="709"/>
      <point x="299" y="709" type="curve" smooth="yes"/>
      <point x="493" y="709"/>
      <point x="641" y="559"/>
      <point x="641" y="350" type="curve" smooth="yes"/>
      <point x="641" y="141"/>
      <point x="493" y="-9"/>
      <point x="299" y="-9" type="curve" smooth="yes"/>
      <point x="197" y="-9"/>
      <point x="133" y="17"/>
      <point x="74" y="69" type="curve"/>
      <point x="74" y="143" type="line"/>
      <point x="127" y="83"/>
      <point x="200" y="47"/>
      <point x="299" y="47" type="curve" smooth="yes"/>
      <point x="457" y="47"/>
      <point x="582" y="172"/>
    </contour>
  </outline>
</glyph>
